<svg id="Layer_1" data-name="Layer 1" xmlns="http://www.w3.org/2000/svg" viewBox="0 0 404.72839 277.54415"><defs><style>.cls-1{fill:#008083;}.cls-2{fill:#008183;}.cls-3{fill:#008184;}</style></defs><g id="CgYbZE"><path class="cls-1" d="M307.96,271.13c.08,2.11-.76,2.34-2.49,2.33-9.25-.06-18.51-.03-27.76-.03-8.97,0-17.93-.09-26.9.06-2.35.03-2.92-.72-2.85-2.94.16-4.82.11-9.64.02-14.46-.03-1.61.42-2.15,2.09-2.15q27.915.09,55.82.01c1.66-.01,2.09.48,2.05,2.15C307.81,261.11,307.77,266.12,307.96,271.13Z" transform="translate(-175.85236 -167.29891)"/><path class="cls-1" d="M508.08,256.39c.04-1.87005-.47-2.5-2.41-2.46-5.11.13-10.22-.08-15.32.11-2.27.08-2.69-.66-2.63-2.74.16-5.11.03-10.22.07-15.33.01-1.33-.15-2.19-1.82-2.17-5.31.06-10.61.05-15.91,0-1.38-.01-1.83.49-1.77,1.88.11,2.79.03,5.59.03,8.38,0,2.51-.11,5.02.04,7.52.1,1.85-.43,2.49-2.38,2.44-5.2-.13-10.41.02-15.61-.08-1.74-.03-2.38.48-2.34,2.28.1,5.01.09,10.02,0,15.03-.03,1.76.52,2.35,2.3,2.31,5.3-.1,10.61.04,15.91-.09,1.68-.04,2.14.44,2.11,2.06-.08,5.3.04,10.6-.06,15.9-.04,1.8.56,2.32,2.31,2.29q7.38006-.15,14.75,0c1.86.04,2.52-.49,2.47-2.44-.13-5.11.06-10.22-.1-15.33-.06-2.1.63-2.53,2.61005-2.48,5.2.15,10.41,0,15.61.09,1.66.03,2.16-.5,2.13-2.14C507.98,266.41,507.96,261.4,508.08,256.39Zm0,0c.04-1.87005-.47-2.5-2.41-2.46-5.11.13-10.22-.08-15.32.11-2.27.08-2.69-.66-2.63-2.74.16-5.11.03-10.22.07-15.33.01-1.33-.15-2.19-1.82-2.17-5.31.06-10.61.05-15.91,0-1.38-.01-1.83.49-1.77,1.88.11,2.79.03,5.59.03,8.38,0,2.51-.11,5.02.04,7.52.1,1.85-.43,2.49-2.38,2.44-5.2-.13-10.41.02-15.61-.08-1.74-.03-2.38.48-2.34,2.28.1,5.01.09,10.02,0,15.03-.03,1.76.52,2.35,2.3,2.31,5.3-.1,10.61.04,15.91-.09,1.68-.04,2.14.44,2.11,2.06-.08,5.3.04,10.6-.06,15.9-.04,1.8.56,2.32,2.31,2.29q7.38006-.15,14.75,0c1.86.04,2.52-.49,2.47-2.44-.13-5.11.06-10.22-.1-15.33-.06-2.1.63-2.53,2.61005-2.48,5.2.15,10.41,0,15.61.09,1.66.03,2.16-.5,2.13-2.14C507.98,266.41,507.96,261.4,508.08,256.39Zm0,0c.04-1.87005-.47-2.5-2.41-2.46-5.11.13-10.22-.08-15.32.11-2.27.08-2.69-.66-2.63-2.74.16-5.11.03-10.22.07-15.33.01-1.33-.15-2.19-1.82-2.17-5.31.06-10.61.05-15.91,0-1.38-.01-1.83.49-1.77,1.88.11,2.79.03,5.59.03,8.38,0,2.51-.11,5.02.04,7.52.1,1.85-.43,2.49-2.38,2.44-5.2-.13-10.41.02-15.61-.08-1.74-.03-2.38.48-2.34,2.28.1,5.01.09,10.02,0,15.03-.03,1.76.52,2.35,2.3,2.31,5.3-.1,10.61.04,15.91-.09,1.68-.04,2.14.44,2.11,2.06-.08,5.3.04,10.6-.06,15.9-.04,1.8.56,2.32,2.31,2.29q7.38006-.15,14.75,0c1.86.04,2.52-.49,2.47-2.44-.13-5.11.06-10.22-.1-15.33-.06-2.1.63-2.53,2.61005-2.48,5.2.15,10.41,0,15.61.09,1.66.03,2.16-.5,2.13-2.14C507.98,266.41,507.96,261.4,508.08,256.39Zm0,0c.04-1.87005-.47-2.5-2.41-2.46-5.11.13-10.22-.08-15.32.11-2.27.08-2.69-.66-2.63-2.74.16-5.11.03-10.22.07-15.33.01-1.33-.15-2.19-1.82-2.17-5.31.06-10.61.05-15.91,0-1.38-.01-1.83.49-1.77,1.88.11,2.79.03,5.59.03,8.38,0,2.51-.11,5.02.04,7.52.1,1.85-.43,2.49-2.38,2.44-5.2-.13-10.41.02-15.61-.08-1.74-.03-2.38.48-2.34,2.28.1,5.01.09,10.02,0,15.03-.03,1.76.52,2.35,2.3,2.31,5.3-.1,10.61.04,15.91-.09,1.68-.04,2.14.44,2.11,2.06-.08,5.3.04,10.6-.06,15.9-.04,1.8.56,2.32,2.31,2.29q7.38006-.15,14.75,0c1.86.04,2.52-.49,2.47-2.44-.13-5.11.06-10.22-.1-15.33-.06-2.1.63-2.53,2.61005-2.48,5.2.15,10.41,0,15.61.09,1.66.03,2.16-.5,2.13-2.14C507.98,266.41,507.96,261.4,508.08,256.39Zm72.36.44c-1.13-23.98-11.32-44.29-28.43-60.81-21.05-20.35-46.53-29.72-75.86-28.55-19.76.8-37.76,6.92-54.29,17.56-16.95,10.9-30.5,25.24-41.97,41.66-.78,1.12-1.23,2.7-2.83.37a157.769,157.769,0,0,0-33.86-36.1c-19.91-15.25-42.25-23.56-67.41-23.66a96.63334,96.63334,0,0,0-45.69,10.69c-31.46,16.41-50.2,41.93-53.77,77.58-2.34,23.4,3.96,44.74,17.97,63.55,24.5,32.91,66.64,47.58,106.72,37.48,27.01-6.81,48.21-22.53,65.93-43.43,4.02-4.75,7.67-9.82,11.63-14.92,3.5,4.91,6.99,9.7,10.81,14.25,15.46,18.38,33.58,33.19,56.56,41.11,27.49,9.47,54.89,8.74,80.74-4.8C563.46,329.55,582.42,298.94,580.44,256.83Zm-221.58,8.01c-11.36,20.03-25.16,37.9-45.27,49.93-21.37006,12.77-43.65,14.39-66.66,4.59-22.14-9.43-37-32.04-37-56.36,0-24.82,16.25-47.77,41.13-57.03,23.45-8.72,45.66-5.11,66.35,8.47,14.85,9.75,26.05005,23.02,35.54,37.85,2.02,3.15,3.8,6.46,5.78,9.65A2.49387,2.49387,0,0,1,358.86,264.84ZM532.9,301.3c-18.33,22.39-48.23,29.96-76.17,20.07-16.38-5.79-29.15-16.53-40.34-29.44a160.59448,160.59448,0,0,1-18.13-26.34c-.62-1.07-1.15-2.08-.38-3.48,9.35-17.06,20.88-32.35,36.44-44.25,13.76-10.53,29.17-16.66,42.36-16.48,31.48-.13,56.05,15.58,65.73,40.28C550.84,263.13,547.5,283.46,532.9,301.3Zm-27.23-47.37c-5.11.13-10.22-.08-15.32.11-2.27.08-2.69-.66-2.63-2.74.16-5.11.03-10.22.07-15.33.01-1.33-.15-2.19-1.82-2.17-5.31.06-10.61.05-15.91,0-1.38-.01-1.83.49-1.77,1.88.11,2.79.03,5.59.03,8.38,0,2.51-.11,5.02.04,7.52.1,1.85-.43,2.49-2.38,2.44-5.2-.13-10.41.02-15.61-.08-1.74-.03-2.38.48-2.34,2.28.1,5.01.09,10.02,0,15.03-.03,1.76.52,2.35,2.3,2.31,5.3-.1,10.61.04,15.91-.09,1.68-.04,2.14.44,2.11,2.06-.08,5.3.04,10.6-.06,15.9-.04,1.8.56,2.32,2.31,2.29q7.38006-.15,14.75,0c1.86.04,2.52-.49,2.47-2.44-.13-5.11.06-10.22-.1-15.33-.06-2.1.63-2.53,2.61005-2.48,5.2.15,10.41,0,15.61.09,1.66.03,2.16-.5,2.13-2.14-.09-5.01-.11-10.02.01-15.03C508.12,254.52,507.61,253.89,505.67,253.93Zm2.41,2.46c.04-1.87005-.47-2.5-2.41-2.46-5.11.13-10.22-.08-15.32.11-2.27.08-2.69-.66-2.63-2.74.16-5.11.03-10.22.07-15.33.01-1.33-.15-2.19-1.82-2.17-5.31.06-10.61.05-15.91,0-1.38-.01-1.83.49-1.77,1.88.11,2.79.03,5.59.03,8.38,0,2.51-.11,5.02.04,7.52.1,1.85-.43,2.49-2.38,2.44-5.2-.13-10.41.02-15.61-.08-1.74-.03-2.38.48-2.34,2.28.1,5.01.09,10.02,0,15.03-.03,1.76.52,2.35,2.3,2.31,5.3-.1,10.61.04,15.91-.09,1.68-.04,2.14.44,2.11,2.06-.08,5.3.04,10.6-.06,15.9-.04,1.8.56,2.32,2.31,2.29q7.38006-.15,14.75,0c1.86.04,2.52-.49,2.47-2.44-.13-5.11.06-10.22-.1-15.33-.06-2.1.63-2.53,2.61005-2.48,5.2.15,10.41,0,15.61.09,1.66.03,2.16-.5,2.13-2.14C507.98,266.41,507.96,261.4,508.08,256.39Zm0,0c.04-1.87005-.47-2.5-2.41-2.46-5.11.13-10.22-.08-15.32.11-2.27.08-2.69-.66-2.63-2.74.16-5.11.03-10.22.07-15.33.01-1.33-.15-2.19-1.82-2.17-5.31.06-10.61.05-15.91,0-1.38-.01-1.83.49-1.77,1.88.11,2.79.03,5.59.03,8.38,0,2.51-.11,5.02.04,7.52.1,1.85-.43,2.49-2.38,2.44-5.2-.13-10.41.02-15.61-.08-1.74-.03-2.38.48-2.34,2.28.1,5.01.09,10.02,0,15.03-.03,1.76.52,2.35,2.3,2.31,5.3-.1,10.61.04,15.91-.09,1.68-.04,2.14.44,2.11,2.06-.08,5.3.04,10.6-.06,15.9-.04,1.8.56,2.32,2.31,2.29q7.38006-.15,14.75,0c1.86.04,2.52-.49,2.47-2.44-.13-5.11.06-10.22-.1-15.33-.06-2.1.63-2.53,2.61005-2.48,5.2.15,10.41,0,15.61.09,1.66.03,2.16-.5,2.13-2.14C507.98,266.41,507.96,261.4,508.08,256.39Zm0,0c.04-1.87005-.47-2.5-2.41-2.46-5.11.13-10.22-.08-15.32.11-2.27.08-2.69-.66-2.63-2.74.16-5.11.03-10.22.07-15.33.01-1.33-.15-2.19-1.82-2.17-5.31.06-10.61.05-15.91,0-1.38-.01-1.83.49-1.77,1.88.11,2.79.03,5.59.03,8.38,0,2.51-.11,5.02.04,7.52.1,1.85-.43,2.49-2.38,2.44-5.2-.13-10.41.02-15.61-.08-1.74-.03-2.38.48-2.34,2.28.1,5.01.09,10.02,0,15.03-.03,1.76.52,2.35,2.3,2.31,5.3-.1,10.61.04,15.91-.09,1.68-.04,2.14.44,2.11,2.06-.08,5.3.04,10.6-.06,15.9-.04,1.8.56,2.32,2.31,2.29q7.38006-.15,14.75,0c1.86.04,2.52-.49,2.47-2.44-.13-5.11.06-10.22-.1-15.33-.06-2.1.63-2.53,2.61005-2.48,5.2.15,10.41,0,15.61.09,1.66.03,2.16-.5,2.13-2.14C507.98,266.41,507.96,261.4,508.08,256.39Zm0,0c.04-1.87005-.47-2.5-2.41-2.46-5.11.13-10.22-.08-15.32.11-2.27.08-2.69-.66-2.63-2.74.16-5.11.03-10.22.07-15.33.01-1.33-.15-2.19-1.82-2.17-5.31.06-10.61.05-15.91,0-1.38-.01-1.83.49-1.77,1.88.11,2.79.03,5.59.03,8.38,0,2.51-.11,5.02.04,7.52.1,1.85-.43,2.49-2.38,2.44-5.2-.13-10.41.02-15.61-.08-1.74-.03-2.38.48-2.34,2.28.1,5.01.09,10.02,0,15.03-.03,1.76.52,2.35,2.3,2.31,5.3-.1,10.61.04,15.91-.09,1.68-.04,2.14.44,2.11,2.06-.08,5.3.04,10.6-.06,15.9-.04,1.8.56,2.32,2.31,2.29q7.38006-.15,14.75,0c1.86.04,2.52-.49,2.47-2.44-.13-5.11.06-10.22-.1-15.33-.06-2.1.63-2.53,2.61005-2.48,5.2.15,10.41,0,15.61.09,1.66.03,2.16-.5,2.13-2.14C507.98,266.41,507.96,261.4,508.08,256.39Z" transform="translate(-175.85236 -167.29891)"/><path class="cls-2" d="M500.64132,421.4726c0-9.869,0-18.87249,0-27.876,0-5.34927.00106-5.40976,5.21129-5.3228,2.46936.04119,5.63984-1.09466,7.21589.54517,1.43908,1.49731.40767,4.60839.41332,7.00415.03551,15.14178-.021,30.28388.06183,45.42527.01187,2.168-.40569,3.17057-2.82443,2.94981-3.71314-.33886-8.16958,1.339-10.98354-.62888-2.68049-1.87456-3.70869-6.12508-5.43567-9.34583q-6.65842-12.4177-13.32286-24.90577c-1.01113.71025-.45723,1.52153-.45384,2.20077.04974,10.025.094,20.05046.24423,30.07424.02876,1.91878-.33891,2.79354-2.518,2.617a53.72342,53.72342,0,0,0-8.09521-.00475c-2.00725.14174-2.57277-.39391-2.5602-2.47813.09681-16.00928.05332-32.01939.05335-48.02925,0-5.45022.00014-5.47391,5.36007-5.44125,3.16574.01929,7.04991-.97645,9.30436.491,2.50649,1.6315,3.57546,5.5181,5.18621,8.4688C491.76419,405.03119,495.98491,412.8711,500.64132,421.4726Z" transform="translate(-175.85236 -167.29891)"/><path class="cls-2" d="M286.71,434.62c-1.63-3.05-3.2-6.14-4.88-9.16-.72-1.29-.77-1.98.63-3,6.43-4.67,9-13.42,6.62-21.8-1.97-6.94-7.33-11.23-15.59-12.06-8.65-.86-17.33-.14-26-.38-1.78-.04-1.43,1.22-1.43,2.19-.02,17.15.01,34.3-.04,51.46-.01,1.71.63,2.13,2.2,2.09,3.18005-.09,6.36005-.11,9.54,0,1.63.06,2.16-.46,2.12-2.1-.1-4.43-.05-8.87-.02-13.3.01-.72-.33-1.59.47-2.12,1.7-1.14,6.79.27,7.69,2.13q3.27,6.76493,6.48,13.53c.52,1.1,1.05,1.9,2.53,1.87,4.72-.1,9.43-.04,14.67-.04C289.87,440.52,288.29,437.58,286.71,434.62Zm-19.02-19.31c-7.72.25-7.72.25-7.5-8.05,0-2.48-.98-5.85.25-7.2,1.44-1.58,4.85-.44,7.4-.43,5.19.02,7.38995,2.33,7.36,7.4C275.17,412.23,272.51,415.16,267.69,415.31Z" transform="translate(-175.85236 -167.29891)"/><path class="cls-1" d="M346.26,407.65c-2.01-11.73-8.83-17.87-20.6-18.98-7.41-.7-14.84-.21-22.25-.47-2.13995-.07-2.53.71-2.51,2.65.1,8.39.04,16.78.04,25.17,0,8.58-.02,17.17.03,25.75,0,.96-.68994,2.48,1.4,2.42,7.61-.23,15.25.45,22.83-.53,11.48-1.49,18.52-7.64,20.75-18.21A47.16584,47.16584,0,0,0,346.26,407.65Zm-14.44,16.31c-.94,5.33-3.81,7.77-9.19,8.37-7.79.88-7.79.88-7.79-6.82v-9.54c0-4.44.12994-8.88-.05-13.3-.1-2.38.29-3.61,3.04-3.12,1.69.3,3.47.06,5.18.27,5.18.63,7.91,2.99,8.78,8.07A47.12794,47.12794,0,0,1,331.82,423.96Z" transform="translate(-175.85236 -167.29891)"/><path class="cls-1" d="M569.86,410.6c-1.17-13.05-6.26-21.57-19.7-22.8-12.49-1.14-22.56994,3.33-26,17.21a52.42621,52.42621,0,0,0-.51,21.17A23.24322,23.24322,0,0,0,528,437.05c6.02,7.72,14.33,8.53,23.22,7.36,9.15-1.2,14.64-6.59,17.23-15.22a43.06915,43.06915,0,0,0,1.72-13.12C570.07,414.24,570.03,412.41,569.86,410.6Zm-15.52,17.21c-.97,4.37-3.86005,6.09-8.6,5.9-4.48-.18-6.52-1.88995-7.58-6.4-.85-3.59-.63995-7.26-.72-11.07.12-3.95-.14-8.09,1.13-12.12,1.23-3.88,3.17-5.13,8.18-5.1,4.46.02,6.92,1.38,7.64,5.05A57.71789,57.71789,0,0,1,554.34,427.81Z" transform="translate(-175.85236 -167.29891)"/><path class="cls-1" d="M401.208,408.74942c.00035,5.59074.02406,11.18158-.00474,16.77218-.05461,10.6118-6.29866,17.51949-16.83574,18.88836a33.24178,33.24178,0,0,1-15.94513-1.31426c-7.57374-2.759-10.94191-8.72759-11.15431-16.297-.34324-12.23188-.12326-24.47906-.20641-36.71933-.0109-1.6029.62035-1.909,2.05959-1.864,3.17836.09947,6.37178.18284,9.53991-.02264,2.067-.13406,2.36844.68342,2.3575,2.4684-.06613,10.7955-.041,21.59161-.02121,32.38748a17.63858,17.63858,0,0,0,.27561,3.43516c1.20244,5.96437,5.87594,8.56063,11.64519,6.54686,3.72229-1.29927,4.66655-4.4057,4.81228-7.794.24821-5.77078.29253-11.55176.34469-17.32915.0531-5.87944.06459-11.76047-.02084-17.63913-.024-1.65267.48725-2.13652,2.13011-2.06049,2.98224.138,5.98025.14015,8.96219-.00106,1.63423-.07739,2.12427.37523,2.09874,2.0359C401.1507,396.41036,401.20769,402.58034,401.208,408.74942Z" transform="translate(-175.85236 -167.29891)"/><path class="cls-1" d="M236.69,442.6q-7.59-23.895-15.18-47.79c-2.08-6.56-2.07-6.6-9-6.54-2.78.02-6.12-1.08-8.17.43-2.05,1.5-2,5.01-2.83,7.65-4.8,15.22-9.54,30.45-14.34,45.66-.49,1.54-.54,2.28,1.46,2.19,3.37-.15,6.75-.14,10.12.01,1.45.06,2.06-.4,2.36-1.77.55-2.54,1.33-5.03,1.83-7.58.31-1.58.89-2.28,2.64-2.22,3.94.13,7.9.11,11.85,0a2.21287,2.21287,0,0,1,2.58,2.01c.64,2.61005,1.46,5.18,2.08,7.79a1.88245,1.88245,0,0,0,2.17,1.74c4.2-.06,8.42-.02,12.81-.02C236.91,443.5,236.83,443.04,236.69,442.6ZM213.9,421.95c-2.01-.16-4.04-.06-6.07-.03-.98.01-1.71-.07-1.38-1.39q2.265-9.045,4.47-18.1c.18.04.36005.08.53.13,1.51,5.56,2.91,11.15,4.58,16.66C216.73,421.53,216.17,422.13,213.9,421.95Z" transform="translate(-175.85236 -167.29891)"/><path class="cls-2" d="M434.9355,444.15766c-6.26871,0-12.53879-.07261-18.80534.04367-1.90914.03542-2.8382-.29606-2.60565-2.452.31633-2.9328-1.216-6.76787.62469-8.59645,1.70362-1.6924,5.49922-.42412,8.3713-.46115,5.28241-.06813,5.28312-.01945,5.28308-5.31421,0-8.389-.06535-16.779.04713-25.16653.0271-2.0179-.50892-2.67245-2.55514-2.566-3.27014.17013-6.55886-.03953-9.83332.08267-1.54584.05768-1.99741-.43635-1.934-1.934.1059-2.50259.08477-5.01468.00646-7.51932-.04389-1.40431.26649-2.06575,1.88756-2.05849q19.38444.08687,38.76941.00569c1.48328-.00527,2.18461.43234,2.00785,1.95914-.022.19023.00166.38541-.00194.57818-.054,2.882.97813,6.67569-.4637,8.39449-1.49974,1.78776-5.42864.46992-8.29136.51212-5.71417.08425-5.715.025-5.71506,5.74194,0,8.1962.07434,16.39355-.0496,24.58787-.03324,2.196.62823,2.84683,2.78659,2.72369,3.17228-.181,6.36784.06412,9.543-.08894,1.85084-.08921,2.3215.57947,2.223,2.30386a51.478,51.478,0,0,0,.00922,6.93757c.16,2.04194-.709,2.35289-2.49858,2.32462C447.4739,444.097,441.20424,444.15766,434.9355,444.15766Z" transform="translate(-175.85236 -167.29891)"/><path class="cls-3" d="M307.96,271.13c.08,2.11-.76,2.34-2.49,2.33-9.25-.06-18.51-.03-27.76-.03-8.97,0-17.93-.09-26.9.06-2.35.03-2.92-.72-2.85-2.94.16-4.82.11-9.64.02-14.46-.03-1.61.42-2.15,2.09-2.15q27.915.09,55.82.01c1.66-.01,2.09.48,2.05,2.15C307.81,261.11,307.77,266.12,307.96,271.13Z" transform="translate(-175.85236 -167.29891)"/><path class="cls-3" d="M508.07,271.42c.03,1.64-.47,2.17-2.13,2.14-5.2-.09-10.41.06-15.61-.09-1.98-.05-2.67005.38-2.61005,2.48.16,5.11-.03,10.22.1,15.33.05,1.95-.61,2.48-2.47,2.44q-7.365-.15-14.75,0c-1.75.03-2.35-.49-2.31-2.29.1-5.3-.02-10.6.06-15.9.03-1.62-.43-2.1-2.11-2.06-5.3.13-10.61-.01-15.91.09-1.78.04-2.33-.55-2.3-2.31.09-5.01.1-10.02,0-15.03-.04-1.8.6-2.31,2.34-2.28,5.2.1,10.41-.05,15.61.08,1.95.05,2.48-.59,2.38-2.44-.15-2.5-.04-5.01-.04-7.52,0-2.79.08-5.59-.03-8.38-.06-1.39.39-1.89,1.77-1.88,5.3.05,10.6.06,15.91,0,1.67-.02,1.83.84,1.82,2.17-.04,5.11.09,10.22-.07,15.33-.06,2.08.36005,2.82,2.63,2.74,5.1-.19,10.21.02,15.32-.11,1.94-.04,2.45.59,2.41,2.46C507.96,261.4,507.98,266.41,508.07,271.42Z" transform="translate(-175.85236 -167.29891)"/></g></svg>