<?xml version="1.0" encoding="UTF-8"?>
<svg xmlns="http://www.w3.org/2000/svg" xmlns:xlink="http://www.w3.org/1999/xlink" viewBox="0 0 150 150" width="150px" height="150px">
<g id="surface94991416">
<path style=" stroke:none;fill-rule:nonzero;fill:rgb(10.196079%,75.686276%,40.000001%);fill-opacity:1;" d="M 71.007812 5.71875 C 68.640625 5.761719 66.242188 5.941406 63.820312 6.289062 C 60.261719 7.0625 56.824219 8.3125 53.753906 9.925781 C 49.882812 11.683594 45.882812 13.5 42.265625 13.757812 C 42.082031 13.769531 41.902344 13.800781 41.726562 13.84375 C 36.667969 15.152344 32.304688 18.273438 29.496094 22.5625 L 29.046875 23.21875 C 28.953125 23.359375 28.863281 23.503906 28.792969 23.652344 C 26.316406 28.832031 25.660156 34.761719 26.992188 40.5625 C 27.851562 43.371094 28.875 46.0625 29.867188 48.671875 L 30.171875 49.464844 C 32.484375 54.890625 34.164062 60.59375 35.167969 66.410156 C 35.21875 66.703125 35.3125 66.988281 35.445312 67.253906 C 36.429688 69.210938 37.203125 71.269531 37.765625 73.480469 C 38.011719 74.347656 38.265625 75.238281 38.542969 76.136719 C 38.621094 76.390625 38.769531 76.601562 38.90625 76.816406 C 38.914062 77.132812 38.953125 77.449219 39.058594 77.753906 L 43.226562 89.671875 C 43.507812 90.480469 44.121094 91.128906 44.914062 91.453125 C 45.707031 91.777344 46.597656 91.746094 47.367188 91.371094 C 55.234375 87.550781 73.65625 78.601562 99.074219 94.496094 C 99.5625 94.796875 100.113281 94.953125 100.667969 94.953125 C 101.074219 94.953125 101.476562 94.875 101.859375 94.707031 C 102.765625 94.3125 103.421875 93.5 103.609375 92.53125 C 104.226562 89.402344 104.445312 84.378906 104.242188 80.292969 L 104.429688 79.394531 C 104.675781 78.210938 104.914062 77.007812 105.167969 75.820312 C 107.546875 70.535156 111.75 65.425781 115.816406 60.480469 C 122.191406 52.730469 128.785156 44.71875 128.214844 35.765625 C 128.1875 35.359375 128.082031 34.957031 127.898438 34.59375 C 126.960938 32.746094 125.90625 30.945312 124.605469 28.929688 L 124.351562 28.523438 C 124.050781 28.050781 123.746094 27.582031 123.433594 27.136719 C 123.199219 26.796875 122.960938 26.480469 122.722656 26.167969 L 122.472656 25.828125 C 121.996094 25.191406 121.519531 24.558594 121.03125 23.960938 C 120.765625 23.640625 120.507812 23.339844 120.15625 22.945312 C 119.613281 22.320312 119.074219 21.71875 118.523438 21.148438 L 117.796875 20.410156 C 117.15625 19.773438 116.515625 19.171875 115.886719 18.621094 L 115.421875 18.222656 C 107.445312 11.417969 99.253906 9.628906 94.265625 8.539062 L 91.484375 7.910156 C 84.984375 6.664062 78.121094 5.589844 71.011719 5.71875 Z M 73.984375 11.730469 C 76.703125 11.808594 79.460938 12.070312 82.316406 12.460938 C 72.542969 27.015625 74.210938 46.695312 76.488281 63.859375 C 73.507812 63.628906 70.453125 63.566406 67.386719 63.714844 C 65.65625 53.496094 63.84375 40.667969 62.296875 30.5625 C 61.835938 26.011719 62.234375 21.417969 63.472656 17.015625 C 64.703125 14.367188 64.820312 12.871094 65.921875 12.070312 C 68.605469 11.746094 71.269531 11.652344 73.984375 11.730469 Z M 64.300781 12.355469 C 62.972656 13.480469 62 15.257812 61.339844 17.507812 C 60.234375 22.082031 59.859375 26.800781 60.226562 31.492188 C 60.960938 42.457031 62.953125 53.277344 66.011719 63.808594 C 63.121094 64.011719 60.242188 64.398438 57.472656 65.015625 C 55.375 57.777344 55.746094 49.550781 55.066406 41.882812 C 54.378906 33.117188 51.496094 24.8125 47.824219 19.898438 C 47.570312 19.296875 47.601562 18.996094 47.675781 18.75 C 49.273438 18.28125 50.847656 17.710938 52.394531 17.0625 C 52.578125 17.164062 52.761719 17.265625 52.925781 17.398438 L 52.984375 17.328125 C 52.824219 17.210938 52.652344 17.125 52.480469 17.027344 C 53.808594 16.46875 55.117188 15.894531 56.382812 15.316406 C 58.945312 13.972656 61.660156 12.992188 64.300781 12.359375 Z M 52.929688 17.398438 L 52.894531 17.4375 L 52.988281 17.4375 C 52.96875 17.421875 52.949219 17.414062 52.929688 17.398438 Z M 82.484375 12.480469 C 84.988281 12.828125 87.5625 13.269531 90.265625 13.789062 L 93.078125 14.421875 C 95.15625 14.875 97.726562 15.457031 100.535156 16.464844 C 95.675781 25.15625 92.394531 34.648438 90.902344 44.507812 C 89.828125 51.636719 89.335938 58.828125 89.34375 66.03125 C 85.691406 65.03125 81.507812 64.292969 77.101562 63.914062 C 76.929688 60.089844 76.804688 56.199219 76.960938 54.011719 C 77.484375 46.765625 78.089844 24.363281 82.480469 12.480469 Z M 101.304688 16.726562 C 104.53125 17.96875 108.046875 19.8125 111.527344 22.78125 L 111.921875 23.128906 C 112.472656 23.609375 113.019531 24.128906 113.574219 24.675781 L 114.207031 25.3125 C 114.679688 25.808594 115.152344 26.332031 115.722656 26.988281 C 115.949219 27.246094 116.171875 27.503906 116.390625 27.765625 C 116.71875 28.171875 117.042969 28.605469 117.371094 29.039062 C 111.824219 31.191406 102.621094 51.636719 101.367188 70.117188 C 101.148438 70.507812 100.921875 70.890625 100.71875 71.277344 C 98.210938 69.171875 94.65625 67.648438 91.460938 66.632812 C 90.953125 66.472656 90.410156 66.332031 89.882812 66.179688 C 90.363281 58.933594 91.042969 51.335938 91.699219 44.464844 C 93.828125 33.1875 99.285156 27.402344 101.304688 16.726562 Z M 46.742188 19.039062 C 46.886719 19.457031 47.117188 19.851562 47.421875 20.191406 C 51.054688 25.125 51.761719 33.148438 52.546875 41.894531 C 53.214844 49.609375 53.984375 57.878906 56.828125 65.160156 C 54.402344 65.742188 52.078125 66.503906 49.878906 67.457031 C 48.085938 60.96875 47.230469 53.652344 45.878906 47.039062 C 44.042969 38.09375 43.800781 30.085938 40.769531 27.644531 C 39.605469 26.039062 36.488281 26.179688 37.960938 23.230469 C 38.3125 22.601562 38.75 22.027344 39.167969 21.4375 C 40.359375 20.714844 41.617188 20.097656 42.984375 19.722656 C 44.238281 19.613281 45.492188 19.359375 46.738281 19.039062 Z M 38.167969 22.042969 C 37.886719 22.425781 37.605469 22.816406 37.40625 23.257812 C 36.863281 24.257812 36.628906 25.398438 36.734375 26.53125 C 36.824219 27.125 37.066406 27.6875 37.425781 28.171875 C 40.421875 30.5625 41.976562 38.160156 43.792969 47.074219 C 45.164062 53.792969 46.75 61.222656 49.179688 67.792969 C 47.078125 68.761719 45.125 69.925781 43.359375 71.296875 C 42.765625 69.121094 41.992188 66.988281 41 64.957031 C 39.90625 58.832031 38.121094 52.832031 35.730469 47.226562 L 35.472656 46.546875 C 34.519531 44.03125 33.53125 41.429688 32.785156 39.023438 C 31.824219 34.820312 32.289062 30.363281 34.101562 26.453125 L 34.464844 25.933594 C 35.464844 24.40625 36.722656 23.097656 38.167969 22.042969 Z M 117.644531 29.402344 C 117.652344 29.410156 117.648438 29.410156 117.65625 29.421875 L 117.9375 29.789062 C 118.136719 30.042969 118.328125 30.304688 118.515625 30.574219 C 118.78125 30.953125 119.039062 31.351562 119.296875 31.757812 L 119.566406 32.179688 C 120.621094 33.808594 121.480469 35.273438 122.25 36.738281 C 122.316406 43.144531 116.90625 49.722656 111.1875 56.671875 C 108.960938 59.375 106.703125 62.125 104.660156 64.980469 C 109.277344 53.160156 113.734375 41.382812 117.644531 29.402344 Z M 69.4375 69.691406 C 76.730469 69.523438 84.058594 70.582031 89.640625 72.355469 C 96.304688 74.476562 97.894531 76.695312 97.957031 77.335938 C 98.066406 78.074219 98.144531 78.972656 98.203125 79.921875 L 98.1875 80 C 98.082031 80.488281 98.144531 80.960938 98.273438 81.410156 C 98.332031 83.238281 98.3125 85.210938 98.210938 87.035156 C 87.746094 81.328125 78.335938 79.417969 70.320312 79.417969 C 60.519531 79.417969 52.804688 82.273438 47.796875 84.539062 L 45.324219 77.46875 C 50.761719 72.140625 60.066406 69.90625 69.441406 69.691406 Z M 54.175781 97.140625 L 52.816406 98.054688 C 53.390625 99.023438 54.136719 99.878906 55.011719 100.582031 C 55.703125 101.015625 56.507812 101.222656 57.320312 101.183594 C 57.738281 101.183594 58.152344 101.125 58.554688 101.007812 L 63.085938 99.367188 C 63.398438 99.25 63.726562 99.1875 64.054688 99.1875 C 64.550781 99.15625 65.050781 99.289062 65.464844 99.570312 C 66.039062 100.035156 66.535156 100.585938 66.9375 101.203125 L 68.226562 100.484375 L 68.226562 100.449219 C 67.667969 99.582031 66.972656 98.8125 66.164062 98.175781 C 65.515625 97.722656 64.742188 97.484375 63.953125 97.5 C 63.691406 97.492188 63.425781 97.542969 63.179688 97.648438 L 58.273438 99.289062 C 57.960938 99.382812 57.632812 99.425781 57.304688 99.417969 C 56.722656 99.457031 56.140625 99.296875 55.664062 98.960938 C 55.066406 98.441406 54.566406 97.828125 54.175781 97.144531 Z M 104.546875 100.414062 C 104.082031 100.453125 103.652344 100.683594 103.351562 101.050781 C 102.996094 101.355469 102.769531 101.777344 102.714844 102.246094 C 102.683594 102.347656 102.683594 102.460938 102.714844 102.5625 C 103.769531 103.679688 105.121094 104.464844 106.609375 104.835938 C 108.101562 105.296875 109.59375 105.738281 111.050781 106.148438 C 112.527344 106.636719 113.78125 107.636719 114.589844 108.964844 C 114.605469 109.027344 114.605469 109.089844 114.589844 109.148438 C 114.589844 109.425781 113.921875 109.882812 112.628906 110.539062 C 111.976562 110.914062 110.992188 111.746094 109.351562 112.992188 C 108.332031 113.828125 107.234375 114.570312 106.078125 115.207031 C 105.09375 115.644531 104.230469 116.320312 103.570312 117.167969 C 103.554688 117.183594 103.542969 117.199219 103.53125 117.214844 C 103.007812 117.816406 103.070312 118.734375 103.671875 119.253906 C 103.980469 119.554688 104.402344 119.71875 104.835938 119.710938 C 105.144531 119.707031 105.449219 119.628906 105.722656 119.484375 C 107.832031 118.152344 109.863281 116.6875 111.796875 115.105469 C 113.757812 113.480469 115.808594 111.957031 117.925781 110.535156 C 119.105469 109.816406 119.679688 109.0625 119.679688 108.292969 C 119.640625 107.777344 119.355469 107.308594 118.921875 107.03125 C 116.394531 104.765625 113.417969 103.082031 110.1875 102.070312 L 107.808594 101.039062 C 107.003906 100.675781 106.144531 100.464844 105.269531 100.410156 C 105.03125 100.378906 104.785156 100.378906 104.550781 100.410156 Z M 39.199219 100.582031 C 37.105469 102.152344 34.816406 103.441406 32.386719 104.414062 C 29.976562 105.40625 27.695312 106.683594 25.589844 108.214844 C 24.566406 109.132812 23.96875 110.433594 23.949219 111.800781 C 24.066406 112.320312 24.4375 112.753906 24.933594 112.949219 C 25.371094 113.097656 25.835938 113.273438 26.28125 113.453125 C 30.757812 115.355469 34.960938 117.398438 38.894531 119.582031 C 39.417969 119.960938 39.90625 120.375 40.367188 120.824219 C 40.664062 120.957031 40.988281 121.023438 41.316406 121.023438 C 42.121094 121.03125 42.910156 120.753906 43.53125 120.242188 C 44.164062 119.789062 44.496094 119.03125 44.398438 118.257812 C 44.421875 117.691406 44.082031 117.167969 43.558594 116.960938 L 36.78125 113.976562 C 34.53125 113.023438 32.335938 111.929688 30.222656 110.703125 C 31.703125 108.855469 33.703125 107.488281 35.960938 106.769531 C 38.199219 106.046875 40.269531 104.871094 42.035156 103.3125 C 42.289062 103.070312 42.429688 102.730469 42.429688 102.382812 C 42.414062 101.886719 42.183594 101.421875 41.789062 101.121094 C 41.320312 100.761719 40.746094 100.570312 40.15625 100.582031 Z M 86.609375 105.21875 C 85.289062 105.167969 84 105.648438 83.023438 106.542969 C 81.921875 107.628906 81.457031 109.207031 81.789062 110.71875 C 81.941406 112.148438 82.511719 113.5 83.429688 114.605469 C 84.207031 115.636719 85.417969 116.238281 86.707031 116.238281 C 87.554688 116.226562 88.378906 116.003906 89.113281 115.589844 C 90.726562 114.4375 91.574219 112.492188 91.324219 110.527344 C 91.242188 108.3125 90.722656 106.820312 89.6875 106.101562 C 88.777344 105.496094 87.703125 105.1875 86.605469 105.21875 Z M 61.183594 105.328125 C 59.863281 105.277344 58.574219 105.75 57.597656 106.640625 C 56.492188 107.726562 56.019531 109.304688 56.351562 110.820312 C 56.507812 112.242188 57.082031 113.59375 57.992188 114.703125 C 58.761719 115.734375 59.976562 116.339844 61.265625 116.335938 C 62.113281 116.324219 62.9375 116.101562 63.671875 115.6875 C 65.148438 114.800781 65.871094 113.128906 65.871094 110.625 C 66.058594 108.980469 65.464844 107.339844 64.265625 106.203125 C 63.355469 105.597656 62.277344 105.296875 61.183594 105.328125 Z M 61.117188 108.851562 C 62.023438 108.851562 62.757812 109.585938 62.757812 110.492188 C 62.757812 111.394531 62.023438 112.132812 61.117188 112.132812 C 60.214844 112.132812 59.476562 111.394531 59.476562 110.492188 C 59.476562 109.585938 60.214844 108.851562 61.117188 108.851562 Z M 86.085938 109.039062 C 86.988281 109.035156 87.726562 109.765625 87.726562 110.671875 C 87.726562 111.578125 86.988281 112.3125 86.085938 112.3125 C 85.179688 112.3125 84.449219 111.578125 84.449219 110.671875 C 84.449219 109.765625 85.179688 109.039062 86.085938 109.039062 Z M 70.210938 120.539062 C 70.175781 120.574219 70.15625 120.617188 70.136719 120.667969 L 70.136719 120.804688 C 70.363281 121.429688 70.644531 122.027344 70.984375 122.601562 C 71.296875 123.152344 71.683594 123.65625 72.132812 124.097656 C 72.539062 124.519531 73.011719 124.867188 73.539062 125.128906 C 74.058594 125.347656 74.617188 125.464844 75.179688 125.484375 L 75.246094 125.554688 C 75.699219 125.558594 76.148438 125.472656 76.570312 125.308594 C 76.976562 125.144531 77.359375 124.929688 77.710938 124.675781 C 78.050781 124.40625 78.367188 124.113281 78.648438 123.792969 C 78.921875 123.484375 79.160156 123.15625 79.363281 122.808594 C 79.5625 122.496094 79.742188 122.175781 79.890625 121.839844 C 80.007812 121.597656 80.105469 121.347656 80.171875 121.089844 L 80.171875 120.945312 C 80.140625 120.898438 80.113281 120.847656 80.089844 120.796875 C 79.664062 121.453125 79.136719 122.03125 78.519531 122.515625 C 78.050781 122.957031 77.488281 123.300781 76.878906 123.515625 C 76.265625 123.730469 75.617188 123.832031 74.964844 123.828125 C 74.410156 123.835938 73.855469 123.757812 73.324219 123.597656 C 72.867188 123.453125 72.441406 123.230469 72.0625 122.941406 C 71.679688 122.632812 71.332031 122.285156 71.03125 121.898438 C 70.71875 121.472656 70.441406 121.015625 70.210938 120.539062 Z M 65.871094 126.828125 C 59.320312 127.171875 55.5 135.585938 46.359375 127.824219 C 43.871094 142.730469 62.085938 144.207031 69.574219 137.472656 C 74.753906 132.851562 73.292969 126.414062 65.871094 126.828125 Z M 80.882812 126.828125 C 74.625 127.210938 73.648438 133.144531 78.503906 137.472656 C 85.992188 144.203125 104.203125 142.730469 101.714844 127.824219 C 92.570312 135.585938 88.757812 127.167969 82.203125 126.828125 C 81.738281 126.800781 81.300781 126.800781 80.882812 126.828125 Z M 80.882812 126.828125 "/>
</g>
</svg>
