<svg id="Layer_1" data-name="Layer 1" xmlns="http://www.w3.org/2000/svg" viewBox="0 0 125.45064 139.55043"><defs><style>.cls-1{fill:#a7a9ac;}</style></defs><g id="ec8804.tif"><g id="Hz8nWc.tif"><path class="cls-1" d="M394.4,392.4c-3.28-.01-3.31-.01-3.28,2.98.06,5.28-.67,5.05,2.61,5.1,4.45.06,5.31-.6,5.36005-3.95C399.13,393.25,398.18,392.41,394.4,392.4Zm0,0c-3.28-.01-3.31-.01-3.28,2.98.06,5.28-.67,5.05,2.61,5.1,4.45.06,5.31-.6,5.36005-3.95C399.13,393.25,398.18,392.41,394.4,392.4Zm0,0c-3.28-.01-3.31-.01-3.28,2.98.06,5.28-.67,5.05,2.61,5.1,4.45.06,5.31-.6,5.36005-3.95C399.13,393.25,398.18,392.41,394.4,392.4Zm25.13,8.5a2.93848,2.93848,0,0,1-.2-2.96c1.19-2.87.3-5.78-1.95-6.95-1.32-.69-2.77-.22-4.14-.43-4.15-.65-6.21,4.27-4.7,7.11a2.52346,2.52346,0,0,1,.32,2.58c-1.91,3.35-1.51,6.39,1.12,9.18,1.49.06,2.96.18,4.44.18C419.73,409.6,422.14,405.55,419.53,400.9ZM414.16,392.42c2.27-.06,3.16,1.1,3.13,3.17-.03,2.15-1.07,3.24-3.24,2.87-2.26.23-3.34-.69-3.31-2.95C410.78,393.11,411.53,392.48,414.16,392.42Zm-.27,15.21c-2.99.01-3.76-.65-3.79-3.27-.04-2.61,1.04-3.66,3.79-3.69,2.92-.03,4.01.89,4.05,3.41C417.98,406.91,417.19,407.61,413.89,407.63Zm20.78.38c-1.98-.09-3.96-.02-5.93-.04-2.88-.04-3.03-.29-1.83-2.98a12.76439,12.76439,0,0,1,4.32-3.64,13.26,13.26,0,0,0,3.42-2.42c2.53-2.73,1.77-6.85-1.72-8.09a8.90944,8.90944,0,0,0-6.99.29c-.65.32-1.81.39-1.32,1.66.46,1.15,1.3.73,2.08.46a9.42289,9.42289,0,0,1,3.11-.73,3.57341,3.57341,0,0,1,3.68,2.41c.57,1.56-.74,2.43-1.71,3.27a22.46684,22.46684,0,0,1-2.33,1.4c-1.75,1.2-3.68,2.22-4.61,4.32a16.19149,16.19149,0,0,0-1.15,2.99c-.46,1.96.21,2.77,2.22,2.79,2.88.04,5.77.02,8.66.01.56,0,1.31.12,1.42-.62C436.12,408.21,435.35,408.04,434.67,408.01Zm10.82-10.42c-.74-.01-1.49-.01-2.23.03-1.15.07-1.44-.57-1.34-1.56a2.95122,2.95122,0,0,1,2.09-2.76,7.86933,7.86933,0,0,1,5.35-.11c1.03.37,1.93.04,2.16-1,.26-1.15-.69-1.64-1.65-1.71-1.65-.11-3.31-.12-4.96-.07a5.73031,5.73031,0,0,0-5.68,4.32c-.57,1.71-.21,3.46-.34,4.82,0,1.6-.06,2.85.01,4.09a6.499,6.499,0,0,0,7.03,6.44c4.19-.14,6.51-2.58,6.48-6.82C452.37,399.62,449.93,397.6,445.49,397.59Zm3.27,9.29c-1.96,1.16-4.38,1.19-5.69.08-1.33-1.13-2.1-4.66-1.39-6.35a2.05538,2.05538,0,0,1,1.73-1.24c2.47-.34,4.75-.03,6.34,2.2C449.92,403.44,450.11,405.3,448.76,406.88Zm13.97-8.86c-.9-.08-1.81-.01-2.72-.02-2.85-.04-3.17-.55-2.19-3.47,2.04-2.05,4.49-2.2,7.12-1.53.97.25,1.97.24,2.17-.91.21-1.21-.84-1.51-1.78-1.56a36.87267,36.87267,0,0,0-4.7-.06c-3.51.26-5.56,2.4-5.73,5.96-.11,2.31-.13,4.63-.06,6.94a6.40107,6.40107,0,0,0,4.35,6.25,6.86705,6.86705,0,0,0,8.06-2.59,9.16627,9.16627,0,0,0,.52-2.64C468.26,400.62,466.49,398.38,462.73,398.02Zm2.04,7.31a4.64136,4.64136,0,0,1-5.19,1.71c-2.49-1.41-1.88-3.8-1.87-5.98a1.2048,1.2048,0,0,1,1.35-1.18c1.8-.01,3.66-.28,5.21,1.03C465.37,402.27,465.96,403.71,464.77,405.33Zm-2.04-7.31c-.9-.08-1.81-.01-2.72-.02-2.85-.04-3.17-.55-2.19-3.47,2.04-2.05,4.49-2.2,7.12-1.53.97.25,1.97.24,2.17-.91.21-1.21-.84-1.51-1.78-1.56a36.87267,36.87267,0,0,0-4.7-.06c-3.51.26-5.56,2.4-5.73,5.96-.11,2.31-.13,4.63-.06,6.94a6.40107,6.40107,0,0,0,4.35,6.25,6.86705,6.86705,0,0,0,8.06-2.59,9.16627,9.16627,0,0,0,.52-2.64C468.26,400.62,466.49,398.38,462.73,398.02Zm2.04,7.31a4.64136,4.64136,0,0,1-5.19,1.71c-2.49-1.41-1.88-3.8-1.87-5.98a1.2048,1.2048,0,0,1,1.35-1.18c1.8-.01,3.66-.28,5.21,1.03C465.37,402.27,465.96,403.71,464.77,405.33Zm-19.28-7.74c-.74-.01-1.49-.01-2.23.03-1.15.07-1.44-.57-1.34-1.56a2.95122,2.95122,0,0,1,2.09-2.76,7.86933,7.86933,0,0,1,5.35-.11c1.03.37,1.93.04,2.16-1,.26-1.15-.69-1.64-1.65-1.71-1.65-.11-3.31-.12-4.96-.07a5.73031,5.73031,0,0,0-5.68,4.32c-.57,1.71-.21,3.46-.34,4.82,0,1.6-.06,2.85.01,4.09a6.499,6.499,0,0,0,7.03,6.44c4.19-.14,6.51-2.58,6.48-6.82C452.37,399.62,449.93,397.6,445.49,397.59Zm3.27,9.29c-1.96,1.16-4.38,1.19-5.69.08-1.33-1.13-2.1-4.66-1.39-6.35a2.05538,2.05538,0,0,1,1.73-1.24c2.47-.34,4.75-.03,6.34,2.2C449.92,403.44,450.11,405.3,448.76,406.88Zm-14.09,1.13c-1.98-.09-3.96-.02-5.93-.04-2.88-.04-3.03-.29-1.83-2.98a12.76439,12.76439,0,0,1,4.32-3.64,13.26,13.26,0,0,0,3.42-2.42c2.53-2.73,1.77-6.85-1.72-8.09a8.90944,8.90944,0,0,0-6.99.29c-.65.32-1.81.39-1.32,1.66.46,1.15,1.3.73,2.08.46a9.42289,9.42289,0,0,1,3.11-.73,3.57341,3.57341,0,0,1,3.68,2.41c.57,1.56-.74,2.43-1.71,3.27a22.46684,22.46684,0,0,1-2.33,1.4c-1.75,1.2-3.68,2.22-4.61,4.32a16.19149,16.19149,0,0,0-1.15,2.99c-.46,1.96.21,2.77,2.22,2.79,2.88.04,5.77.02,8.66.01.56,0,1.31.12,1.42-.62C436.12,408.21,435.35,408.04,434.67,408.01ZM419.53,400.9a2.93848,2.93848,0,0,1-.2-2.96c1.19-2.87.3-5.78-1.95-6.95-1.32-.69-2.77-.22-4.14-.43-4.15-.65-6.21,4.27-4.7,7.11a2.52346,2.52346,0,0,1,.32,2.58c-1.91,3.35-1.51,6.39,1.12,9.18,1.49.06,2.96.18,4.44.18C419.73,409.6,422.14,405.55,419.53,400.9ZM414.16,392.42c2.27-.06,3.16,1.1,3.13,3.17-.03,2.15-1.07,3.24-3.24,2.87-2.26.23-3.34-.69-3.31-2.95C410.78,393.11,411.53,392.48,414.16,392.42Zm-.27,15.21c-2.99.01-3.76-.65-3.79-3.27-.04-2.61,1.04-3.66,3.79-3.69,2.92-.03,4.01.89,4.05,3.41C417.98,406.91,417.19,407.61,413.89,407.63ZM394.4,392.4c-3.28-.01-3.31-.01-3.28,2.98.06,5.28-.67,5.05,2.61,5.1,4.45.06,5.31-.6,5.36005-3.95C399.13,393.25,398.18,392.41,394.4,392.4Zm0,0c-3.28-.01-3.31-.01-3.28,2.98.06,5.28-.67,5.05,2.61,5.1,4.45.06,5.31-.6,5.36005-3.95C399.13,393.25,398.18,392.41,394.4,392.4Zm25.13,8.5a2.93848,2.93848,0,0,1-.2-2.96c1.19-2.87.3-5.78-1.95-6.95-1.32-.69-2.77-.22-4.14-.43-4.15-.65-6.21,4.27-4.7,7.11a2.52346,2.52346,0,0,1,.32,2.58c-1.91,3.35-1.51,6.39,1.12,9.18,1.49.06,2.96.18,4.44.18C419.73,409.6,422.14,405.55,419.53,400.9ZM414.16,392.42c2.27-.06,3.16,1.1,3.13,3.17-.03,2.15-1.07,3.24-3.24,2.87-2.26.23-3.34-.69-3.31-2.95C410.78,393.11,411.53,392.48,414.16,392.42Zm-.27,15.21c-2.99.01-3.76-.65-3.79-3.27-.04-2.61,1.04-3.66,3.79-3.69,2.92-.03,4.01.89,4.05,3.41C417.98,406.91,417.19,407.61,413.89,407.63Zm20.78.38c-1.98-.09-3.96-.02-5.93-.04-2.88-.04-3.03-.29-1.83-2.98a12.76439,12.76439,0,0,1,4.32-3.64,13.26,13.26,0,0,0,3.42-2.42c2.53-2.73,1.77-6.85-1.72-8.09a8.90944,8.90944,0,0,0-6.99.29c-.65.32-1.81.39-1.32,1.66.46,1.15,1.3.73,2.08.46a9.42289,9.42289,0,0,1,3.11-.73,3.57341,3.57341,0,0,1,3.68,2.41c.57,1.56-.74,2.43-1.71,3.27a22.46684,22.46684,0,0,1-2.33,1.4c-1.75,1.2-3.68,2.22-4.61,4.32a16.19149,16.19149,0,0,0-1.15,2.99c-.46,1.96.21,2.77,2.22,2.79,2.88.04,5.77.02,8.66.01.56,0,1.31.12,1.42-.62C436.12,408.21,435.35,408.04,434.67,408.01Zm10.82-10.42c-.74-.01-1.49-.01-2.23.03-1.15.07-1.44-.57-1.34-1.56a2.95122,2.95122,0,0,1,2.09-2.76,7.86933,7.86933,0,0,1,5.35-.11c1.03.37,1.93.04,2.16-1,.26-1.15-.69-1.64-1.65-1.71-1.65-.11-3.31-.12-4.96-.07a5.73031,5.73031,0,0,0-5.68,4.32c-.57,1.71-.21,3.46-.34,4.82,0,1.6-.06,2.85.01,4.09a6.499,6.499,0,0,0,7.03,6.44c4.19-.14,6.51-2.58,6.48-6.82C452.37,399.62,449.93,397.6,445.49,397.59Zm3.27,9.29c-1.96,1.16-4.38,1.19-5.69.08-1.33-1.13-2.1-4.66-1.39-6.35a2.05538,2.05538,0,0,1,1.73-1.24c2.47-.34,4.75-.03,6.34,2.2C449.92,403.44,450.11,405.3,448.76,406.88Zm13.97-8.86c-.9-.08-1.81-.01-2.72-.02-2.85-.04-3.17-.55-2.19-3.47,2.04-2.05,4.49-2.2,7.12-1.53.97.25,1.97.24,2.17-.91.21-1.21-.84-1.51-1.78-1.56a36.87267,36.87267,0,0,0-4.7-.06c-3.51.26-5.56,2.4-5.73,5.96-.11,2.31-.13,4.63-.06,6.94a6.40107,6.40107,0,0,0,4.35,6.25,6.86705,6.86705,0,0,0,8.06-2.59,9.16627,9.16627,0,0,0,.52-2.64C468.26,400.62,466.49,398.38,462.73,398.02Zm2.04,7.31a4.64136,4.64136,0,0,1-5.19,1.71c-2.49-1.41-1.88-3.8-1.87-5.98a1.2048,1.2048,0,0,1,1.35-1.18c1.8-.01,3.66-.28,5.21,1.03C465.37,402.27,465.96,403.71,464.77,405.33Zm-2.04-7.31c-.9-.08-1.81-.01-2.72-.02-2.85-.04-3.17-.55-2.19-3.47,2.04-2.05,4.49-2.2,7.12-1.53.97.25,1.97.24,2.17-.91.21-1.21-.84-1.51-1.78-1.56a36.87267,36.87267,0,0,0-4.7-.06c-3.51.26-5.56,2.4-5.73,5.96-.11,2.31-.13,4.63-.06,6.94a6.40107,6.40107,0,0,0,4.35,6.25,6.86705,6.86705,0,0,0,8.06-2.59,9.16627,9.16627,0,0,0,.52-2.64C468.26,400.62,466.49,398.38,462.73,398.02Zm2.04,7.31a4.64136,4.64136,0,0,1-5.19,1.71c-2.49-1.41-1.88-3.8-1.87-5.98a1.2048,1.2048,0,0,1,1.35-1.18c1.8-.01,3.66-.28,5.21,1.03C465.37,402.27,465.96,403.71,464.77,405.33Zm-19.28-7.74c-.74-.01-1.49-.01-2.23.03-1.15.07-1.44-.57-1.34-1.56a2.95122,2.95122,0,0,1,2.09-2.76,7.86933,7.86933,0,0,1,5.35-.11c1.03.37,1.93.04,2.16-1,.26-1.15-.69-1.64-1.65-1.71-1.65-.11-3.31-.12-4.96-.07a5.73031,5.73031,0,0,0-5.68,4.32c-.57,1.71-.21,3.46-.34,4.82,0,1.6-.06,2.85.01,4.09a6.499,6.499,0,0,0,7.03,6.44c4.19-.14,6.51-2.58,6.48-6.82C452.37,399.62,449.93,397.6,445.49,397.59Zm3.27,9.29c-1.96,1.16-4.38,1.19-5.69.08-1.33-1.13-2.1-4.66-1.39-6.35a2.05538,2.05538,0,0,1,1.73-1.24c2.47-.34,4.75-.03,6.34,2.2C449.92,403.44,450.11,405.3,448.76,406.88Zm-17.53-5.53a13.26,13.26,0,0,0,3.42-2.42c2.53-2.73,1.77-6.85-1.72-8.09a8.90944,8.90944,0,0,0-6.99.29c-.65.32-1.81.39-1.32,1.66.46,1.15,1.3.73,2.08.46a9.42289,9.42289,0,0,1,3.11-.73,3.57341,3.57341,0,0,1,3.68,2.41c.57,1.56-.74,2.43-1.71,3.27a22.46684,22.46684,0,0,1-2.33,1.4c-1.75,1.2-3.68,2.22-4.61,4.32a16.19149,16.19149,0,0,0-1.15,2.99c-.46,1.96.21,2.77,2.22,2.79,2.88.04,5.77.02,8.66.01.56,0,1.31.12,1.42-.62.13-.88-.64-1.05-1.32-1.08-1.98-.09-3.96-.02-5.93-.04-2.88-.04-3.03-.29-1.83-2.98A12.76439,12.76439,0,0,1,431.23,401.35Zm-11.9-3.41c1.19-2.87.3-5.78-1.95-6.95-1.32-.69-2.77-.22-4.14-.43-4.15-.65-6.21,4.27-4.7,7.11a2.52346,2.52346,0,0,1,.32,2.58c-1.91,3.35-1.51,6.39,1.12,9.18,1.49.06,2.96.18,4.44.18,5.31-.01,7.72-4.06,5.11005-8.71A2.93848,2.93848,0,0,1,419.33,397.94ZM414.16,392.42c2.27-.06,3.16,1.1,3.13,3.17-.03,2.15-1.07,3.24-3.24,2.87-2.26.23-3.34-.69-3.31-2.95C410.78,393.11,411.53,392.48,414.16,392.42Zm-.27,15.21c-2.99.01-3.76-.65-3.79-3.27-.04-2.61,1.04-3.66,3.79-3.69,2.92-.03,4.01.89,4.05,3.41C417.98,406.91,417.19,407.61,413.89,407.63ZM394.4,392.4c-3.28-.01-3.31-.01-3.28,2.98.06,5.28-.67,5.05,2.61,5.1,4.45.06,5.31-.6,5.36005-3.95C399.13,393.25,398.18,392.41,394.4,392.4Zm81.21-1.88a7.92779,7.92779,0,0,0-7.88-7.88q-54.645-.045-109.27-.03a8.34581,8.34581,0,0,0-8.23,8.25q-.045,9.09.01,18.18c.03,4.99,3.44,8.35,8.44,8.35q27.135.01493,54.26,0v.03h54.02c5.69-.01,8.69-3,8.7-8.71Q475.675,399.605,475.61,390.52Zm-115.6,7.95c.55,1.27,1.88.74,2.9.78,1.33.06,2.66-.03,3.98-.03.59.01,1.24.07,1.25.87,0,.75-.58.96-1.2.97-1.24.03-2.49-.08-3.73.04-1.25.12-3.02-.74-3.41,1.45a4.58655,4.58655,0,0,0,2.69,4.85,17.066,17.066,0,0,0,4.68.52c1,.03,2.82-.72,2.76,1.04-.06,1.62-1.84.77-2.87.97a6.414,6.414,0,0,1-1.24.01c-6.26-.03-8.59-2.35-8.59-8.57v-1.24h.01c0-1.08-.05-2.17.01-3.24a6.53351,6.53351,0,0,1,6.76-6.5c1.57-.03,3.15-.02,4.73,0,.58.01,1.26.01,1.32.79.06.83-.47,1.18-1.26,1.19-1.49.01-2.98.05-4.48.04a4.57246,4.57246,0,0,0-4.31,6.06Zm25.67,6.94a4.65333,4.65333,0,0,1-4.24,4.47c-2.31.16-4.63.06-6.95.05-.69,0-1.41-.15-1.35-1.06.06-.87.77-.97,1.46-.98,1.74-.01,3.48.06,5.22-.01,1.53-.06,3.05-.29,3.27-2.29.22-2.02.09-3.76-2.33-4.55-1.72-.56-3.66-.33-5.2-1.5-2.26-1.63-3.82-3.54-2.53-6.54a3.26061,3.26061,0,0,1,3.4-2.61c1.9-.03,3.79-.04,5.69-.01.69.02,1.68-.1,1.59,1.01-.08.95-.93,1.03-1.7,1.03-.82.01-1.65.01-2.47.01-4.48,0-4.65.17-4.42,4.58.15.15.3.3.44.45,1.91,1.68,4.5,1.07,6.63,1.98Q386.195,400.77494,385.68,405.41Zm10.19-2.97c-4.71.1-4.71.1-4.74,4.73,0,.33,0,.66-.01.99-.01.76-.01,1.61-1.03,1.67-1.07.05-1.38-.72-1.39-1.65-.01-2.64,0-5.29,0-7.94,0-2.4.03-4.8-.01-7.2-.03-1.82.65-2.8,2.63-2.68,1.48.1,2.98-.02,4.46,0,3.82.05,5.96,2.18,6.04,6C401.89,400.11,399.7,402.35,395.87,402.44Zm76.12,5.48c-.13,4.09-2.35,6.13-6.51,6.14-10.2.04-20.4.01-30.6.01v.06q-15.3,0-30.6,0c-.72,0-1.66.33-2.1-.36-.57-.89.47-1.25.94-1.75a5.10725,5.10725,0,0,0,1.04-3.73c.04-4.9.06-9.79.12006-14.69.07-5.22,2.04-7.21,7.2-7.21q27.12-.03,54.23-.04c4.27,0,6.29,1.81,6.39,6.13C472.21,397.62,472.16,402.78,471.99,407.92Zm-9.26-9.9c-.9-.08-1.81-.01-2.72-.02-2.85-.04-3.17-.55-2.19-3.47,2.04-2.05,4.49-2.2,7.12-1.53.97.25,1.97.24,2.17-.91.21-1.21-.84-1.51-1.78-1.56a36.87267,36.87267,0,0,0-4.7-.06c-3.51.26-5.56,2.4-5.73,5.96-.11,2.31-.13,4.63-.06,6.94a6.40107,6.40107,0,0,0,4.35,6.25,6.86705,6.86705,0,0,0,8.06-2.59,9.16627,9.16627,0,0,0,.52-2.64C468.26,400.62,466.49,398.38,462.73,398.02Zm2.04,7.31a4.64136,4.64136,0,0,1-5.19,1.71c-2.49-1.41-1.88-3.8-1.87-5.98a1.2048,1.2048,0,0,1,1.35-1.18c1.8-.01,3.66-.28,5.21,1.03C465.37,402.27,465.96,403.71,464.77,405.33Zm-19.28-7.74c-.74-.01-1.49-.01-2.23.03-1.15.07-1.44-.57-1.34-1.56a2.95122,2.95122,0,0,1,2.09-2.76,7.86933,7.86933,0,0,1,5.35-.11c1.03.37,1.93.04,2.16-1,.26-1.15-.69-1.64-1.65-1.71-1.65-.11-3.31-.12-4.96-.07a5.73031,5.73031,0,0,0-5.68,4.32c-.57,1.71-.21,3.46-.34,4.82,0,1.6-.06,2.85.01,4.09a6.499,6.499,0,0,0,7.03,6.44c4.19-.14,6.51-2.58,6.48-6.82C452.37,399.62,449.93,397.6,445.49,397.59Zm3.27,9.29c-1.96,1.16-4.38,1.19-5.69.08-1.33-1.13-2.1-4.66-1.39-6.35a2.05538,2.05538,0,0,1,1.73-1.24c2.47-.34,4.75-.03,6.34,2.2C449.92,403.44,450.11,405.3,448.76,406.88Zm-17.53-5.53a13.26,13.26,0,0,0,3.42-2.42c2.53-2.73,1.77-6.85-1.72-8.09a8.90944,8.90944,0,0,0-6.99.29c-.65.32-1.81.39-1.32,1.66.46,1.15,1.3.73,2.08.46a9.42289,9.42289,0,0,1,3.11-.73,3.57341,3.57341,0,0,1,3.68,2.41c.57,1.56-.74,2.43-1.71,3.27a22.46684,22.46684,0,0,1-2.33,1.4c-1.75,1.2-3.68,2.22-4.61,4.32a16.19149,16.19149,0,0,0-1.15,2.99c-.46,1.96.21,2.77,2.22,2.79,2.88.04,5.77.02,8.66.01.56,0,1.31.12,1.42-.62.13-.88-.64-1.05-1.32-1.08-1.98-.09-3.96-.02-5.93-.04-2.88-.04-3.03-.29-1.83-2.98A12.76439,12.76439,0,0,1,431.23,401.35Zm-11.9-3.41c1.19-2.87.3-5.78-1.95-6.95-1.32-.69-2.77-.22-4.14-.43-4.15-.65-6.21,4.27-4.7,7.11a2.52346,2.52346,0,0,1,.32,2.58c-1.91,3.35-1.51,6.39,1.12,9.18,1.49.06,2.96.18,4.44.18,5.31-.01,7.72-4.06,5.11005-8.71A2.93848,2.93848,0,0,1,419.33,397.94ZM414.16,392.42c2.27-.06,3.16,1.1,3.13,3.17-.03,2.15-1.07,3.24-3.24,2.87-2.26.23-3.34-.69-3.31-2.95C410.78,393.11,411.53,392.48,414.16,392.42Zm-.27,15.21c-2.99.01-3.76-.65-3.79-3.27-.04-2.61,1.04-3.66,3.79-3.69,2.92-.03,4.01.89,4.05,3.41C417.98,406.91,417.19,407.61,413.89,407.63ZM394.4,392.4c-3.28-.01-3.31-.01-3.28,2.98.06,5.28-.67,5.05,2.61,5.1,4.45.06,5.31-.6,5.36005-3.95C399.13,393.25,398.18,392.41,394.4,392.4Zm0,0c-3.28-.01-3.31-.01-3.28,2.98.06,5.28-.67,5.05,2.61,5.1,4.45.06,5.31-.6,5.36005-3.95C399.13,393.25,398.18,392.41,394.4,392.4Zm25.13,8.5a2.93848,2.93848,0,0,1-.2-2.96c1.19-2.87.3-5.78-1.95-6.95-1.32-.69-2.77-.22-4.14-.43-4.15-.65-6.21,4.27-4.7,7.11a2.52346,2.52346,0,0,1,.32,2.58c-1.91,3.35-1.51,6.39,1.12,9.18,1.49.06,2.96.18,4.44.18C419.73,409.6,422.14,405.55,419.53,400.9ZM414.16,392.42c2.27-.06,3.16,1.1,3.13,3.17-.03,2.15-1.07,3.24-3.24,2.87-2.26.23-3.34-.69-3.31-2.95C410.78,393.11,411.53,392.48,414.16,392.42Zm-.27,15.21c-2.99.01-3.76-.65-3.79-3.27-.04-2.61,1.04-3.66,3.79-3.69,2.92-.03,4.01.89,4.05,3.41C417.98,406.91,417.19,407.61,413.89,407.63Zm20.78.38c-1.98-.09-3.96-.02-5.93-.04-2.88-.04-3.03-.29-1.83-2.98a12.76439,12.76439,0,0,1,4.32-3.64,13.26,13.26,0,0,0,3.42-2.42c2.53-2.73,1.77-6.85-1.72-8.09a8.90944,8.90944,0,0,0-6.99.29c-.65.32-1.81.39-1.32,1.66.46,1.15,1.3.73,2.08.46a9.42289,9.42289,0,0,1,3.11-.73,3.57341,3.57341,0,0,1,3.68,2.41c.57,1.56-.74,2.43-1.71,3.27a22.46684,22.46684,0,0,1-2.33,1.4c-1.75,1.2-3.68,2.22-4.61,4.32a16.19149,16.19149,0,0,0-1.15,2.99c-.46,1.96.21,2.77,2.22,2.79,2.88.04,5.77.02,8.66.01.56,0,1.31.12,1.42-.62C436.12,408.21,435.35,408.04,434.67,408.01Zm10.82-10.42c-.74-.01-1.49-.01-2.23.03-1.15.07-1.44-.57-1.34-1.56a2.95122,2.95122,0,0,1,2.09-2.76,7.86933,7.86933,0,0,1,5.35-.11c1.03.37,1.93.04,2.16-1,.26-1.15-.69-1.64-1.65-1.71-1.65-.11-3.31-.12-4.96-.07a5.73031,5.73031,0,0,0-5.68,4.32c-.57,1.71-.21,3.46-.34,4.82,0,1.6-.06,2.85.01,4.09a6.499,6.499,0,0,0,7.03,6.44c4.19-.14,6.51-2.58,6.48-6.82C452.37,399.62,449.93,397.6,445.49,397.59Zm3.27,9.29c-1.96,1.16-4.38,1.19-5.69.08-1.33-1.13-2.1-4.66-1.39-6.35a2.05538,2.05538,0,0,1,1.73-1.24c2.47-.34,4.75-.03,6.34,2.2C449.92,403.44,450.11,405.3,448.76,406.88Zm13.97-8.86c-.9-.08-1.81-.01-2.72-.02-2.85-.04-3.17-.55-2.19-3.47,2.04-2.05,4.49-2.2,7.12-1.53.97.25,1.97.24,2.17-.91.21-1.21-.84-1.51-1.78-1.56a36.87267,36.87267,0,0,0-4.7-.06c-3.51.26-5.56,2.4-5.73,5.96-.11,2.31-.13,4.63-.06,6.94a6.40107,6.40107,0,0,0,4.35,6.25,6.86705,6.86705,0,0,0,8.06-2.59,9.16627,9.16627,0,0,0,.52-2.64C468.26,400.62,466.49,398.38,462.73,398.02Zm2.04,7.31a4.64136,4.64136,0,0,1-5.19,1.71c-2.49-1.41-1.88-3.8-1.87-5.98a1.2048,1.2048,0,0,1,1.35-1.18c1.8-.01,3.66-.28,5.21,1.03C465.37,402.27,465.96,403.71,464.77,405.33Zm-2.04-7.31c-.9-.08-1.81-.01-2.72-.02-2.85-.04-3.17-.55-2.19-3.47,2.04-2.05,4.49-2.2,7.12-1.53.97.25,1.97.24,2.17-.91.21-1.21-.84-1.51-1.78-1.56a36.87267,36.87267,0,0,0-4.7-.06c-3.51.26-5.56,2.4-5.73,5.96-.11,2.31-.13,4.63-.06,6.94a6.40107,6.40107,0,0,0,4.35,6.25,6.86705,6.86705,0,0,0,8.06-2.59,9.16627,9.16627,0,0,0,.52-2.64C468.26,400.62,466.49,398.38,462.73,398.02Zm2.04,7.31a4.64136,4.64136,0,0,1-5.19,1.71c-2.49-1.41-1.88-3.8-1.87-5.98a1.2048,1.2048,0,0,1,1.35-1.18c1.8-.01,3.66-.28,5.21,1.03C465.37,402.27,465.96,403.71,464.77,405.33Zm-19.28-7.74c-.74-.01-1.49-.01-2.23.03-1.15.07-1.44-.57-1.34-1.56a2.95122,2.95122,0,0,1,2.09-2.76,7.86933,7.86933,0,0,1,5.35-.11c1.03.37,1.93.04,2.16-1,.26-1.15-.69-1.64-1.65-1.71-1.65-.11-3.31-.12-4.96-.07a5.73031,5.73031,0,0,0-5.68,4.32c-.57,1.71-.21,3.46-.34,4.82,0,1.6-.06,2.85.01,4.09a6.499,6.499,0,0,0,7.03,6.44c4.19-.14,6.51-2.58,6.48-6.82C452.37,399.62,449.93,397.6,445.49,397.59Zm3.27,9.29c-1.96,1.16-4.38,1.19-5.69.08-1.33-1.13-2.1-4.66-1.39-6.35a2.05538,2.05538,0,0,1,1.73-1.24c2.47-.34,4.75-.03,6.34,2.2C449.92,403.44,450.11,405.3,448.76,406.88Zm-14.09,1.13c-1.98-.09-3.96-.02-5.93-.04-2.88-.04-3.03-.29-1.83-2.98a12.76439,12.76439,0,0,1,4.32-3.64,13.26,13.26,0,0,0,3.42-2.42c2.53-2.73,1.77-6.85-1.72-8.09a8.90944,8.90944,0,0,0-6.99.29c-.65.32-1.81.39-1.32,1.66.46,1.15,1.3.73,2.08.46a9.42289,9.42289,0,0,1,3.11-.73,3.57341,3.57341,0,0,1,3.68,2.41c.57,1.56-.74,2.43-1.71,3.27a22.46684,22.46684,0,0,1-2.33,1.4c-1.75,1.2-3.68,2.22-4.61,4.32a16.19149,16.19149,0,0,0-1.15,2.99c-.46,1.96.21,2.77,2.22,2.79,2.88.04,5.77.02,8.66.01.56,0,1.31.12,1.42-.62C436.12,408.21,435.35,408.04,434.67,408.01ZM419.53,400.9a2.93848,2.93848,0,0,1-.2-2.96c1.19-2.87.3-5.78-1.95-6.95-1.32-.69-2.77-.22-4.14-.43-4.15-.65-6.21,4.27-4.7,7.11a2.52346,2.52346,0,0,1,.32,2.58c-1.91,3.35-1.51,6.39,1.12,9.18,1.49.06,2.96.18,4.44.18C419.73,409.6,422.14,405.55,419.53,400.9ZM414.16,392.42c2.27-.06,3.16,1.1,3.13,3.17-.03,2.15-1.07,3.24-3.24,2.87-2.26.23-3.34-.69-3.31-2.95C410.78,393.11,411.53,392.48,414.16,392.42Zm-.27,15.21c-2.99.01-3.76-.65-3.79-3.27-.04-2.61,1.04-3.66,3.79-3.69,2.92-.03,4.01.89,4.05,3.41C417.98,406.91,417.19,407.61,413.89,407.63ZM394.4,392.4c-3.28-.01-3.31-.01-3.28,2.98.06,5.28-.67,5.05,2.61,5.1,4.45.06,5.31-.6,5.36005-3.95C399.13,393.25,398.18,392.41,394.4,392.4Zm0,0c-3.28-.01-3.31-.01-3.28,2.98.06,5.28-.67,5.05,2.61,5.1,4.45.06,5.31-.6,5.36005-3.95C399.13,393.25,398.18,392.41,394.4,392.4Zm25.13,8.5a2.93848,2.93848,0,0,1-.2-2.96c1.19-2.87.3-5.78-1.95-6.95-1.32-.69-2.77-.22-4.14-.43-4.15-.65-6.21,4.27-4.7,7.11a2.52346,2.52346,0,0,1,.32,2.58c-1.91,3.35-1.51,6.39,1.12,9.18,1.49.06,2.96.18,4.44.18C419.73,409.6,422.14,405.55,419.53,400.9ZM414.16,392.42c2.27-.06,3.16,1.1,3.13,3.17-.03,2.15-1.07,3.24-3.24,2.87-2.26.23-3.34-.69-3.31-2.95C410.78,393.11,411.53,392.48,414.16,392.42Zm-.27,15.21c-2.99.01-3.76-.65-3.79-3.27-.04-2.61,1.04-3.66,3.79-3.69,2.92-.03,4.01.89,4.05,3.41C417.98,406.91,417.19,407.61,413.89,407.63Zm20.78.38c-1.98-.09-3.96-.02-5.93-.04-2.88-.04-3.03-.29-1.83-2.98a12.76439,12.76439,0,0,1,4.32-3.64,13.26,13.26,0,0,0,3.42-2.42c2.53-2.73,1.77-6.85-1.72-8.09a8.90944,8.90944,0,0,0-6.99.29c-.65.32-1.81.39-1.32,1.66.46,1.15,1.3.73,2.08.46a9.42289,9.42289,0,0,1,3.11-.73,3.57341,3.57341,0,0,1,3.68,2.41c.57,1.56-.74,2.43-1.71,3.27a22.46684,22.46684,0,0,1-2.33,1.4c-1.75,1.2-3.68,2.22-4.61,4.32a16.19149,16.19149,0,0,0-1.15,2.99c-.46,1.96.21,2.77,2.22,2.79,2.88.04,5.77.02,8.66.01.56,0,1.31.12,1.42-.62C436.12,408.21,435.35,408.04,434.67,408.01Zm10.82-10.42c-.74-.01-1.49-.01-2.23.03-1.15.07-1.44-.57-1.34-1.56a2.95122,2.95122,0,0,1,2.09-2.76,7.86933,7.86933,0,0,1,5.35-.11c1.03.37,1.93.04,2.16-1,.26-1.15-.69-1.64-1.65-1.71-1.65-.11-3.31-.12-4.96-.07a5.73031,5.73031,0,0,0-5.68,4.32c-.57,1.71-.21,3.46-.34,4.82,0,1.6-.06,2.85.01,4.09a6.499,6.499,0,0,0,7.03,6.44c4.19-.14,6.51-2.58,6.48-6.82C452.37,399.62,449.93,397.6,445.49,397.59Zm3.27,9.29c-1.96,1.16-4.38,1.19-5.69.08-1.33-1.13-2.1-4.66-1.39-6.35a2.05538,2.05538,0,0,1,1.73-1.24c2.47-.34,4.75-.03,6.34,2.2C449.92,403.44,450.11,405.3,448.76,406.88Zm13.97-8.86c-.9-.08-1.81-.01-2.72-.02-2.85-.04-3.17-.55-2.19-3.47,2.04-2.05,4.49-2.2,7.12-1.53.97.25,1.97.24,2.17-.91.21-1.21-.84-1.51-1.78-1.56a36.87267,36.87267,0,0,0-4.7-.06c-3.51.26-5.56,2.4-5.73,5.96-.11,2.31-.13,4.63-.06,6.94a6.40107,6.40107,0,0,0,4.35,6.25,6.86705,6.86705,0,0,0,8.06-2.59,9.16627,9.16627,0,0,0,.52-2.64C468.26,400.62,466.49,398.38,462.73,398.02Zm2.04,7.31a4.64136,4.64136,0,0,1-5.19,1.71c-2.49-1.41-1.88-3.8-1.87-5.98a1.2048,1.2048,0,0,1,1.35-1.18c1.8-.01,3.66-.28,5.21,1.03C465.37,402.27,465.96,403.71,464.77,405.33Zm-2.04-7.31c-.9-.08-1.81-.01-2.72-.02-2.85-.04-3.17-.55-2.19-3.47,2.04-2.05,4.49-2.2,7.12-1.53.97.25,1.97.24,2.17-.91.21-1.21-.84-1.51-1.78-1.56a36.87267,36.87267,0,0,0-4.7-.06c-3.51.26-5.56,2.4-5.73,5.96-.11,2.31-.13,4.63-.06,6.94a6.40107,6.40107,0,0,0,4.35,6.25,6.86705,6.86705,0,0,0,8.06-2.59,9.16627,9.16627,0,0,0,.52-2.64C468.26,400.62,466.49,398.38,462.73,398.02Zm2.04,7.31a4.64136,4.64136,0,0,1-5.19,1.71c-2.49-1.41-1.88-3.8-1.87-5.98a1.2048,1.2048,0,0,1,1.35-1.18c1.8-.01,3.66-.28,5.21,1.03C465.37,402.27,465.96,403.71,464.77,405.33Zm-19.28-7.74c-.74-.01-1.49-.01-2.23.03-1.15.07-1.44-.57-1.34-1.56a2.95122,2.95122,0,0,1,2.09-2.76,7.86933,7.86933,0,0,1,5.35-.11c1.03.37,1.93.04,2.16-1,.26-1.15-.69-1.64-1.65-1.71-1.65-.11-3.31-.12-4.96-.07a5.73031,5.73031,0,0,0-5.68,4.32c-.57,1.71-.21,3.46-.34,4.82,0,1.6-.06,2.85.01,4.09a6.499,6.499,0,0,0,7.03,6.44c4.19-.14,6.51-2.58,6.48-6.82C452.37,399.62,449.93,397.6,445.49,397.59Zm3.27,9.29c-1.96,1.16-4.38,1.19-5.69.08-1.33-1.13-2.1-4.66-1.39-6.35a2.05538,2.05538,0,0,1,1.73-1.24c2.47-.34,4.75-.03,6.34,2.2C449.92,403.44,450.11,405.3,448.76,406.88Zm-14.09,1.13c-1.98-.09-3.96-.02-5.93-.04-2.88-.04-3.03-.29-1.83-2.98a12.76439,12.76439,0,0,1,4.32-3.64,13.26,13.26,0,0,0,3.42-2.42c2.53-2.73,1.77-6.85-1.72-8.09a8.90944,8.90944,0,0,0-6.99.29c-.65.32-1.81.39-1.32,1.66.46,1.15,1.3.73,2.08.46a9.42289,9.42289,0,0,1,3.11-.73,3.57341,3.57341,0,0,1,3.68,2.41c.57,1.56-.74,2.43-1.71,3.27a22.46684,22.46684,0,0,1-2.33,1.4c-1.75,1.2-3.68,2.22-4.61,4.32a16.19149,16.19149,0,0,0-1.15,2.99c-.46,1.96.21,2.77,2.22,2.79,2.88.04,5.77.02,8.66.01.56,0,1.31.12,1.42-.62C436.12,408.21,435.35,408.04,434.67,408.01ZM419.53,400.9a2.93848,2.93848,0,0,1-.2-2.96c1.19-2.87.3-5.78-1.95-6.95-1.32-.69-2.77-.22-4.14-.43-4.15-.65-6.21,4.27-4.7,7.11a2.52346,2.52346,0,0,1,.32,2.58c-1.91,3.35-1.51,6.39,1.12,9.18,1.49.06,2.96.18,4.44.18C419.73,409.6,422.14,405.55,419.53,400.9ZM414.16,392.42c2.27-.06,3.16,1.1,3.13,3.17-.03,2.15-1.07,3.24-3.24,2.87-2.26.23-3.34-.69-3.31-2.95C410.78,393.11,411.53,392.48,414.16,392.42Zm-.27,15.21c-2.99.01-3.76-.65-3.79-3.27-.04-2.61,1.04-3.66,3.79-3.69,2.92-.03,4.01.89,4.05,3.41C417.98,406.91,417.19,407.61,413.89,407.63ZM394.4,392.4c-3.28-.01-3.31-.01-3.28,2.98.06,5.28-.67,5.05,2.61,5.1,4.45.06,5.31-.6,5.36005-3.95C399.13,393.25,398.18,392.41,394.4,392.4Z" transform="translate(-350.21189 -277.86956)"/><path class="cls-1" d="M421.00554,354.52649c.38258-2.01349.7904-4.02256,1.14354-6.0412,1.8658-10.66561-1.44737-19.67333-8.79977-27.37032a7.96648,7.96648,0,0,0-1.18515-.86042c-5.19216-5.29584-11.71216-7.51184-18.90994-8.05372-1.42408-.10722-2.92214.20864-3.19758,2.0302-.29944,1.98031,1.00858,2.63954,2.64766,2.86234,4.79311.65152,9.40879,1.77838,13.4515,4.63007a26.31381,26.31381,0,0,1,8.64426,33.51216c-.80137,1.64667-1.849,2.29911-3.76282,1.78605-2.53217-.67883-5.18708-.72547-7.30517-2.746-1.45519-1.38812-1.69752-2.417-.6121-4.142,4.34262-6.9016,1.11424-15.56023-5.47913-18.85742a15.36346,15.36346,0,0,0-5.93929-1.60092c-7.618-.5063-13.80537-6.17944-14.17415-13.45432-.40492-7.98761,2.95418-13.88845,11.32277-16.16613,4.61434-1.2559,9.44281-.28061,14.00158,1.03568,14.19677,4.09917,24.08446,13.10585,29.4916,26.85253,2.9806,7.57764,3.30136,15.494,2.07737,23.49782-.26124,1.70829-1.20832,2.53746-2.8204,3.35094C427.90106,356.65854,424.49441,356.24613,421.00554,354.52649Z" transform="translate(-350.21189 -277.86956)"/><path class="cls-1" d="M443.89833,344.0405c-3.73123-.03046-3.77526-.02856-3.93163-3.65962-.87666-20.35713-15.927-38.67028-34.95122-43.82447a40.192,40.192,0,0,0-11.47093-1.81687c-1.99154.04708-2.77028-.61927-2.77758-2.71588-.02109-6.06522,5.41032-10.34855,11.97854-9.00653,16.72845,3.418,30.09671,12.07589,39.67038,26.27935a57.75981,57.75981,0,0,1,9.5866,25.27608C452.49826,338.48883,447.68391,344.0714,443.89833,344.0405Z" transform="translate(-350.21189 -277.86956)"/><path class="cls-1" d="M391.01551,352.63707c7.83739,5.55626,16.47959,8.69021,26.15963,8.63637a42.892,42.892,0,0,0,28.61054-10.79674,5.9996,5.9996,0,0,1,1.77478-1.30761c.95035-.31721,1.49959.53478,1.96283,1.19953.66573.95533-.11691,1.52392-.72019,2.08035a44.46825,44.46825,0,0,1-20.54539,10.9955,47.20734,47.20734,0,0,1-27.62135-1.62871c-13.05779-4.94352-22.32905-13.95277-27.24149-26.85611-6.57357-17.26658-3.64678-33.35157,7.81656-47.852.41019-.51885.91165-.96437,1.34549-1.46579.82577-.9544,1.58372-.97294,2.498-.04221a1.54823,1.54823,0,0,1,.05606,2.5379,38.76178,38.76178,0,0,0-7.1739,10.65217c-6.20885,13.271-5.88666,26.41828.82764,39.42645a6.4503,6.4503,0,0,1,.31766.9356C382.19737,344.41153,386.54646,348.57746,391.01551,352.63707Z" transform="translate(-350.21189 -277.86956)"/><path class="cls-1" d="M414.92147,277.86956c5.03917.0585,9.93623,1.13158,14.85029,2.08333l2.549.94517a38.25061,38.25061,0,0,1,15.47114,11.42719l-.00015-.00021a40.21675,40.21675,0,0,1,6.963,12.47014l-.0003-.00122a42.99829,42.99829,0,0,1,2.277,13.80153c-.0091,1.427-.35369,2.45776-1.83993,2.76074-1.56486.319-1.63369-1.0136-2.01994-1.95871-.43526-1.065-.99825-2.074-1.37362-3.16467-7.51084-16.24344-19.49591-27.80086-36.07814-34.57219-.86695-.354-2.18868-.48843-2.32317-1.58666A1.8169,1.8169,0,0,1,414.92147,277.86956Z" transform="translate(-350.21189 -277.86956)"/><path class="cls-1" d="M397.01815,347.17846c-1.86733,1.36782-3.67846,2.72105-6.25682,2.44289a6.25622,6.25622,0,0,1,.8698-12.47452,5.85017,5.85017,0,0,1,5.95168,5.90544,20.25194,20.25194,0,0,1-.5672,4.13168Z" transform="translate(-350.21189 -277.86956)"/><path class="cls-1" d="M462.73,398.02c-.9-.08-1.81-.01-2.72-.02-2.85-.04-3.17-.55-2.19-3.47,2.04-2.05,4.49-2.2,7.12-1.53.97.25,1.97.24,2.17-.91.21-1.21-.84-1.51-1.78-1.56a36.87267,36.87267,0,0,0-4.7-.06c-3.51.26-5.56,2.4-5.73,5.96-.11,2.31-.13,4.63-.06,6.94a6.40107,6.40107,0,0,0,4.35,6.25,6.86705,6.86705,0,0,0,8.06-2.59,9.16627,9.16627,0,0,0,.52-2.64C468.26,400.62,466.49,398.38,462.73,398.02Zm2.04,7.31a4.64136,4.64136,0,0,1-5.19,1.71c-2.49-1.41-1.88-3.8-1.87-5.98a1.2048,1.2048,0,0,1,1.35-1.18c1.8-.01,3.66-.28,5.21,1.03C465.37,402.27,465.96,403.71,464.77,405.33Z" transform="translate(-350.21189 -277.86956)"/><path class="cls-1" d="M399.09,396.53c-.05,3.35-.91,4.01-5.36005,3.95-3.28-.05-2.55.18-2.61-5.1-.03-2.99,0-2.99,3.28-2.98C398.18,392.41,399.13,393.25,399.09,396.53Z" transform="translate(-350.21189 -277.86956)"/><path class="cls-1" d="M435.99,409.09c-.11.74-.86.62-1.42.62-2.89.01-5.78.03-8.66-.01-2.01-.02-2.68-.83-2.22-2.79a16.19149,16.19149,0,0,1,1.15-2.99c.93-2.1,2.86-3.12,4.61-4.32a22.46684,22.46684,0,0,0,2.33-1.4c.97-.84,2.28-1.71,1.71-3.27a3.57341,3.57341,0,0,0-3.68-2.41,9.42289,9.42289,0,0,0-3.11.73c-.78.27-1.62.69-2.08-.46-.49-1.27.67-1.34,1.32-1.66a8.90944,8.90944,0,0,1,6.99-.29c3.49,1.24,4.25,5.36,1.72,8.09a13.26,13.26,0,0,1-3.42,2.42,12.76439,12.76439,0,0,0-4.32,3.64c-1.2,2.69-1.05,2.94,1.83,2.98,1.97.02,3.95-.05,5.93.04C435.35,408.04,436.12,408.21,435.99,409.09Z" transform="translate(-350.21189 -277.86956)"/><path class="cls-1" d="M445.49,397.59c-.74-.01-1.49-.01-2.23.03-1.15.07-1.44-.57-1.34-1.56a2.95122,2.95122,0,0,1,2.09-2.76,7.86933,7.86933,0,0,1,5.35-.11c1.03.37,1.93.04,2.16-1,.26-1.15-.69-1.64-1.65-1.71-1.65-.11-3.31-.12-4.96-.07a5.73031,5.73031,0,0,0-5.68,4.32c-.57,1.71-.21,3.46-.34,4.82,0,1.6-.06,2.85.01,4.09a6.499,6.499,0,0,0,7.03,6.44c4.19-.14,6.51-2.58,6.48-6.82C452.37,399.62,449.93,397.6,445.49,397.59Zm3.27,9.29c-1.96,1.16-4.38,1.19-5.69.08-1.33-1.13-2.1-4.66-1.39-6.35a2.05538,2.05538,0,0,1,1.73-1.24c2.47-.34,4.75-.03,6.34,2.2C449.92,403.44,450.11,405.3,448.76,406.88Z" transform="translate(-350.21189 -277.86956)"/><path class="cls-1" d="M419.53,400.9a2.93848,2.93848,0,0,1-.2-2.96c1.19-2.87.3-5.78-1.95-6.95-1.32-.69-2.77-.22-4.14-.43-4.15-.65-6.21,4.27-4.7,7.11a2.52346,2.52346,0,0,1,.32,2.58c-1.91,3.35-1.51,6.39,1.12,9.18,1.49.06,2.96.18,4.44.18C419.73,409.6,422.14,405.55,419.53,400.9ZM414.16,392.42c2.27-.06,3.16,1.1,3.13,3.17-.03,2.15-1.07,3.24-3.24,2.87-2.26.23-3.34-.69-3.31-2.95C410.78,393.11,411.53,392.48,414.16,392.42Zm-.27,15.21c-2.99.01-3.76-.65-3.79-3.27-.04-2.61,1.04-3.66,3.79-3.69,2.92-.03,4.01.89,4.05,3.41C417.98,406.91,417.19,407.61,413.89,407.63Z" transform="translate(-350.21189 -277.86956)"/></g></g></svg>