<svg id="Layer_1" data-name="Layer 1" xmlns="http://www.w3.org/2000/svg" viewBox="0 0 261.30285 260.94928"><defs><style>.cls-1{fill:#84b637;}.cls-2{fill:#939598;}</style></defs><g id="gK6BC2"><path class="cls-1" d="M477.39,131.16c.02-4.37-1.06-5.65-5.51-5.61-24.82.22-49.65.11-74.47.11-10.32995,0-20.66.08-30.98-.06-3.16-.04-4.55.82-4.3,4.24.32,4.11.15,8.26.19,12.39v.09c.18.18.36.35.54.53,4.52,1.57,9.24.34,13.86,1.08,21.13,3.37,38.2,13.98,52.94,28.98,2.38,2.42,2.46,4.22.04,6.68-7.61,7.73-15.59,15.01-24.69,20.96-12.39,8.1-25.53,13.67-40.8,12.07a2.66453,2.66453,0,0,0-1.87.46.83888.83888,0,0,0-.12006.08c-.02.01-.03.03-.05.04a.33869.33869,0,0,0-.06.06,1.14209,1.14209,0,0,0-.17.15,6.50469,6.50469,0,0,0-.93,3.74v.01c-.05,1.73.04,3.49-1.01,4.93a4.64044,4.64044,0,0,1-.78.83c.01.1.02.21.04.31v.04c.37,3.17.76,6.35,1.14,9.51.62.16,1.24.33,1.85.48a85.51245,85.51245,0,0,1-.11,8.92c-.48,4.16.98,5.31,5.18,5.29q52.47-.255,104.95.01c4.36.02,5.12-1.44,5.1-5.41Q477.16,186.615,477.39,131.16ZM363.29,231.55c1.38-5.96,1.38-5.9,7.6-6.01a87.02879,87.02879,0,0,0,42.27-12.01,164.68677,164.68677,0,0,0,24.85-17.52c2.19-1.87,4.44-3.77,7.57-1.89,3.7,2.24,7.7,3.95,11.3,6.37,3.29,2.22,3.4,3.14.07,5.32a107.93607,107.93607,0,0,1-17.1,9.24c-23.33,9.87-47.31,16.83-72.91,16.87a6.93208,6.93208,0,0,0-4.35,1A3.87225,3.87225,0,0,0,363.29,231.55Z" transform="translate(-259.53059 -125.54909)"/><path class="cls-1" d="M362.32,142.32h-.01c-.02-.03-.05-.06-.07-.09Z" transform="translate(-259.53059 -125.54909)"/><path class="cls-1" d="M363.13,150.33a6.18594,6.18594,0,0,1-.65.89l-.12.12a.13779.13779,0,0,1-.04.03.30521.30521,0,0,1-.08.08c-1.64,1.57-3.98,1.61-6.11,1.95-14.99,2.42005-27.32,9.74-38,20.27-3.14,3.09-3.69,6.08-1.76,10.22,5.81,12.45,13.68,23.07,25.25,30.73a45.84435,45.84435,0,0,0,12.64,5.75c.11.05.21.09.32.13.37.16.74.29,1.12.42h.01a5.9552,5.9552,0,0,1,3.55,2.31.2175.2175,0,0,1,.03.05c3.06,2.85,2.38,6.13,1.11,9.5v.01c-19.59-1.93-35.1-11.49-47.99-25.81a102.821,102.821,0,0,1-17.35-27.23c-.86-1.94-1.47-3.59.54-5.31,18.62-15.92,38.93-28.42,63.74005-31.99a28.0019,28.0019,0,0,1,2.9-.13h.07C364.22,144.82,363.84,147.55,363.13,150.33Z" transform="translate(-259.53059 -125.54909)"/><path class="cls-2" d="M443.89,287.4c-1.66-11.72-7.65-17.49-19.47-18.18-7.13995-.42-14.32995-.06-21.48-.26-2.5-.07-3.07.85-3.02,3.16.13,6.49.04,12.99.04,19.48,0,6.66.03,13.33-.01,19.99-.02,1.86.13,3.24,2.59,3.16,8.65-.28,17.34.53,25.96-.54,8.15-1.01,12.92-5.48,14.75-13.41A36.428,36.428,0,0,0,443.89,287.4Zm-12.69,7.79c-1.22,7.14-10.29,12.21-17,9.57-1.74-.69-1.34-2.06-1.35-3.31-.02-5.8.19-11.61-.07-17.39-.18-3.89.53-6.21,4.59-5.09C428.13,279.17,432.95,285.01,431.2,295.19Z" transform="translate(-259.53059 -125.54909)"/><path class="cls-2" d="M277.87594,291.61377c-.00117-6.32.09995-12.64229-.05011-18.95869-.06145-2.5865.29977-3.92949,3.42113-3.82876,8.14384.26281,16.31174-.08636,24.446.30644,11.54355.55744,17.40809,6.33881,17.99062,17.82014.42085,8.2955.12713,16.62567.25036,24.93891.03207,2.16394-.78431,2.7532-2.91485,2.89263-9.9251.64958-9.89605.72526-9.92958-9.32434-.01773-5.31888.16841-10.66352-.28484-15.94962-.59336-6.92015-3.48212-9.32662-10.3234-9.50641-9.48051-.24917-9.48088-.24915-9.48042,9.09233.00035,7.31783-.10736,14.63814.05849,21.95224.06288,2.77354-.70777,3.704-3.6126,3.75292-9.57226.16138-9.57007.28836-9.56968-9.21738Q277.87733,298.599,277.87594,291.61377Z" transform="translate(-259.53059 -125.54909)"/><path class="cls-2" d="M520.03,310.34c-4.71-11-8.96-22.19-13.37006-33.31-3.17-8.01-3.15-8.01-11.84-8.01-8.68,0-8.67,0-11.82,8.01-4.08,10.36-8.2,20.71-12.28,31.06-2.6,6.62-2.58,6.73,4.74,6.56,2.06-.05,5.47,1.53,5.95-1.74,1.05-7.19,5.99-6.58,11.02-6.39a55.90028,55.90028,0,0,0,7.98-.04c3.37006-.36,5.46.6,5.92005,4.18.47,3.54,2.62,4.61,5.97,4.1a16.46514,16.46514,0,0,1,4.49-.01C520.59,315.2,521.81,314.5,520.03,310.34Zm-18.84-11.96c-14.94,1.46-14.95,1.46-9.87-12.34.91-2.47,1.89-4.91,3.28-8.53,2.7,7.5,5.05,14.01,7.38,20.48A3.82331,3.82331,0,0,1,501.19,298.38Z" transform="translate(-259.53059 -125.54909)"/><path class="cls-2" d="M325.82348,269.45134a14.01843,14.01843,0,0,1,1.89054-.4096c11.92944-.52315,11.913-.51555,15.11433,10.88036,2.19921,7.82871,4.45246,15.64228,7.03655,24.70794,1.60461-5.15415,2.916-9.24113,4.14754-13.352,1.8117-6.04732,3.71656-12.07326,5.28229-18.185.78295-3.05617,2.08733-4.23505,5.41989-4.17174,9.15442.17394,9.18331.005,6.32488,8.88663-3.56255,11.06936-7.25631,22.09746-10.7046,33.202-.887,2.85634-2.23765,4.04019-5.286,3.76107-4.76982-.43675-10.49383,1.71618-14.10858-.80393-3.4481-2.40389-3.39245-8.3558-4.83993-12.75755C332.63562,290.673,329.2645,280.10562,325.82348,269.45134Z" transform="translate(-259.53059 -125.54909)"/><path class="cls-2" d="M504.52828,368.50762c0-9.9729.11746-19.948-.06889-29.91739-.05876-3.14318.60632-4.30841,4.05522-4.35971,3.66182-.0545,3.95755,1.51823,3.93424,4.45615-.11234,14.13834-.01318,28.27825-.10221,42.41689-.01013,1.60995,1.15047,4.1795-1.3284,4.64553-2.59434.48775-5.38331.95109-7.40681-2.27328-6.27459-9.99843-12.86063-19.80218-19.38776-29.64042-.56647-.85386-.66322-2.30225-2.54342-2.358,0,10.10694-.10947,20.16887.065,30.22585.05415,3.123-.59083,4.31781-4.06276,4.37735-3.76131.06456-3.90815-1.66729-3.88924-4.52719.09364-14.13864.00708-28.27841.09373-42.41714.00982-1.6036-1.14635-4.17537,1.40778-4.59337,2.60338-.426,5.38063-.92608,7.413,2.30872,6.45668,10.27655,13.25534,20.33839,19.92348,30.48211.32981.50169.67521.99313,1.01332,1.48935Z" transform="translate(-259.53059 -125.54909)"/><path class="cls-2" d="M462.2,360.21h-.06c0-3.49.28-7.01-.05-10.46-.86005-9.02-7.89-15.35-17.05-15.66-10.1-.34-17.59,5.24-19.01,14.54a79.30978,79.30978,0,0,0-.09,22.35c1.26,9.54,9.19,15.77,18.94,15.35,9.5-.41,16.56-7.12,17.29-16.66C462.41,366.53,462.2,363.36,462.2,360.21Zm-8.22,10.17a9.61449,9.61449,0,0,1-9.88995,8.66c-5.28.07-9.24-2.96-10.1-8.38a66.24432,66.24432,0,0,1,.04-21.31c.87994-5.29,5.04-8.37,10.26-8.21a9.62882,9.62882,0,0,1,9.64,8.39c.54,3.43.5,6.94.72,10.28C454.44,363.44,454.48,366.95,453.98,370.38Z" transform="translate(-259.53059 -125.54909)"/><path class="cls-2" d="M301.31809,359.72081c-.00094-7.32618.09-14.65414-.05-21.97764-.0493-2.57992.71021-3.47218,3.38324-3.42634q13.23774.22706,26.48111-.00506c2.93084-.05594,3.18679,1.32895,3.17187,3.6495-.01458,2.26291-.136,3.78584-3.11841,3.68611-5.9896-.20032-11.99355.04712-17.98525-.11831-2.80355-.07741-4.08591.36978-4.08872,3.72155-.0093,11.10946-.17085,11.10943,11.12777,11.10918,1.99873,0,4.00127.07665,5.99521-.02138,2.53266-.1245,4.32444-.11718,4.34445,3.49323.01977,3.569-1.66959,3.604-4.25112,3.5398-4.66087-.1159-9.32939.06032-13.98916-.07595-2.35283-.0688-3.07448.71107-3.20131,3.1158-.648,12.28488-.72528,12.2811,11.42082,12.28058,3.16466-.00012,6.33277.088,9.49286-.033,2.57558-.09861,4.39836-.08979,4.3338,3.5279-.05766,3.23108-1.16856,3.87234-4.09857,3.81182-8.32449-.17192-16.66-.23011-24.98052.02141-3.47919.10517-4.14454-1.1878-4.0543-4.32256C301.46252,374.37733,301.31907,367.047,301.31809,359.72081Z" transform="translate(-259.53059 -125.54909)"/><path class="cls-2" d="M399.64931,333.91128a21.4151,21.4151,0,0,1,12.77029,3.75659c.97492.70017,3.58815,1.39084,1.72964,3.09136-1.45172,1.32829-2.21157,5.26354-5.71874,2.72922-3.29167-2.37859-7.08893-2.8629-10.97326-2.42059-4.235.48229-7.23892,2.61154-7.58887,7.19394-.35226,4.61277,2.706,6.54591,6.57567,7.41314,3.24362.72692,6.6084.916,9.84928,1.65237,6.30651,1.43289,9.89428,5.48847,10.65828,11.66815.77937,6.30405-1.81012,11.94493-7.33591,14.6265-9.11912,4.42538-18.07812,3.70724-26.5267-1.89773-1.05307-.69866-3.79786-1.6711-1.35835-3.55106,1.56488-1.20592,2.16534-5.28507,5.68136-2.47372,4.192,3.35189,9.15847,3.80963,14.23763,3.15441,4.88252-.62988,7.716-3.61434,7.56284-7.74964-.17449-4.70881-3.102-6.66279-7.43061-7.166-2.48063-.28837-4.96475-.60816-7.41585-1.0777-7.83035-1.50006-11.93075-5.89478-12.18813-12.93617-.28743-7.86343,3.83756-13.38795,11.55414-15.25519A51.98553,51.98553,0,0,1,399.64931,333.91128Z" transform="translate(-259.53059 -125.54909)"/><path class="cls-2" d="M354.2787,363.64838c.00351-6.3262-.11215-12.65554.0616-18.977.06749-2.45618-.73715-3.27256-3.105-3.12165-2.32222.148-4.66889-.0836-6.99038.07006-2.67074.17677-4.25469-.0912-4.21872-3.58192.03444-3.34482,1.35274-3.763,4.17014-3.7213,9.49043.14033,18.9861.1575,28.47561-.01144,2.90255-.05167,3.65328.90608,3.6685,3.70206.0155,2.848-.84775,3.62181-3.68769,3.65926-10.46729.13807-10.46647.252-10.46558,10.61442.00088,9.9887-.13278,19.98036.08189,29.96448.07139,3.32011-1.29866,3.72591-4.1124,3.79663-3.05043.07668-4.07571-.77938-3.95249-3.91726C354.44571,375.9745,354.27519,369.80808,354.2787,363.64838Z" transform="translate(-259.53059 -125.54909)"/><path class="cls-2" d="M379.19514,291.68794c-.00155-6.31708.20009-12.64326-.0849-18.94747-.14694-3.24966,1.03657-3.7987,3.95535-3.79751,9.11287.00375,9.11247-.11766,9.11284,9.05833.00042,10.97176-.11036,21.9454.07389,32.91409.05251,3.12542-.94382,3.88484-3.95636,3.88213-9.09953-.00815-9.09956.12595-9.09929-9.1455Q379.1969,298.67,379.19514,291.68794Z" transform="translate(-259.53059 -125.54909)"/><path class="cls-2" d="M450.08593,291.23574c-.00146-6.3178.128-12.6395-.06251-18.95154-.0811-2.68631.83673-3.27993,3.39077-3.338,9.69511-.22046,9.69252-.321,9.69283,9.50429.00033,10.6405-.143,21.28408.08378,31.91977.0749,3.51331-.9492,4.5053-4.446,4.4389-8.65476-.16436-8.65793.011-8.65738-8.61019Q450.08785,298.71736,450.08593,291.23574Z" transform="translate(-259.53059 -125.54909)"/><path class="cls-2" d="M288.74785,354.45078c-.00334,5.155.02264,10.3101-.01,15.46491-.04011,6.342-2.5997,11.31948-8.34795,14.24657-6.23176,3.17335-12.49976,3.16627-18.46664-.73952-.99364-.6504-3.60168-1.42786-1.73868-3.09783,1.51305-1.35631,2.134-4.89428,5.68373-3.18546,9.147,4.4033,14.98648.781,15.07444-9.33146.08534-9.81034.10557-19.62339-.04381-29.43226-.04345-2.85374.44264-4.14494,3.74916-4.12847,3.28917.01644,4.35259.91468,4.17762,4.24364C288.54684,343.79753,288.75119,349.12951,288.74785,354.45078Z" transform="translate(-259.53059 -125.54909)"/><path class="cls-1" d="M413.64,174.74c-13.75-15.07-29.73-25.23-51.16-23.52-.05,0-.1.01-.15.01-.03,0-.06.01-.09.01v11c-13.08,1.02-24.04,6.76-33.87,15.14-1.88,1.6-1.8,3.09-.99,5.2a59.45373,59.45373,0,0,0,16.81,23.54c.04.03.07.07.11.1,5.62,3.14,11.06,6.76,17.81,7.04a.65672.65672,0,0,0,.14,0,.22133.22133,0,0,0,.08.01v-.06a.5699.5699,0,0,1,.01-.13,23.62068,23.62068,0,0,0,.01-2.79c-.41-3.63.18-5.35,4.69-4.27,5.06,1.21,10.25.21,15.14-1.75,13.24-5.31,22.89-15.03,31.78-25.73C415.26,176.98,414.79,176.01,413.64,174.74Zm-70.38,4.7a27.92107,27.92107,0,0,1,14.79-7.76c2.9-.53,4.37.32,4.2,3.6-.2,4.15-.05,8.32-.04,12.48,0,4.49-.13,8.99.04,13.47.13,3.27-1.15,3.23-3.48,2-8.44-4.45-13.31-11.77-16.71-20.36C341.42,181.25,342.29,180.38,343.26,179.44Zm20.1-15.27a3.9425,3.9425,0,0,0-.76-1.62,8.056,8.056,0,0,0,2.16.86,11.47492,11.47492,0,0,0,2.26.3c.13,0,.28,0,.42.01,1.34.01,2.7-.11,4.05-.12h.03a12.18475,12.18475,0,0,1,3.56.36c7.23,1.39,13.29,5.05,18.93,9.59,2.14,1.72,2.67,3.42.36,5.25-2.73,2.18-5.34,4.49-8.06,6.68-2.06,1.65-3.52,1.35-4.76-.95-3.84-7.12-9.39-12.31-17.22-14.85a7.17908,7.17908,0,0,1-.78-3.89c-.01-.01,0-.01,0-.01A9.44555,9.44555,0,0,0,363.36,164.17Z" transform="translate(-259.53059 -125.54909)"/></g></svg>