<svg id="Layer_1" data-name="Layer 1" xmlns="http://www.w3.org/2000/svg" viewBox="0 0 143.68447 210.19895"><defs><style>.cls-1{fill:#424242;}.cls-2{fill:#f6f6f6;}.cls-3{fill:#eaa03a;}.cls-4{fill:#f5f5f5;}.cls-5{fill:#644f2b;}.cls-6{fill:#6d522e;}</style></defs><g id="Zwblrh"><path class="cls-1" d="M460.7445,253.371c.86952.13318,1.52888.27206,2.19526.32922a3.61525,3.61525,0,0,1,3.55377,3.29413c.277,1.58086.56085,3.16311.75462,4.75532a8.54842,8.54842,0,0,0,2.86961,5.528c1.46788,1.31338,2.95083,2.60989,4.42053,3.92126a19.813,19.813,0,0,1,2.72185,2.769,4.39282,4.39282,0,0,1-.039,5.97294,13.56055,13.56055,0,0,1-3.23291,2.89409c-2.87888,1.94235-5.75146,3.89574-8.66974,5.77773a134.20359,134.20359,0,0,0-15.46613,11.74719,14.78206,14.78206,0,0,1-7.45861,3.92658,16.20272,16.20272,0,0,1-11.79511-2.17861,8.8325,8.8325,0,0,1-4.10737-5.4511,2.67153,2.67153,0,0,0-1.83777-2.033,45.336,45.336,0,0,0-11.67025-3.16352,58.24624,58.24624,0,0,0-16.73619.2179c-.45987.07263-.91047.20286-1.36985.27967a3.87572,3.87572,0,0,0-3.22216,2.59967c-1.95579,4.39967-5.11334,7.685-10.13857,8.53036a19.86419,19.86419,0,0,1-8.312-.65207,35.16169,35.16169,0,0,1-5.02787-1.61933,74.81953,74.81953,0,0,0-15.33211-4.46984,109.82175,109.82175,0,0,1-11.31178-2.80309,18.77418,18.77418,0,0,1-3.45537-1.39274,6.0907,6.0907,0,0,1-3.21515-6.78177,12.529,12.529,0,0,1,.56093-2.10055c1.25935-3.255,1.14963-6.59832.73269-9.97277-.20968-1.697-.38812-3.398-.56333-5.099-.04763-.46272-.04013-.93188-.04421-1.39821a4.94421,4.94421,0,0,1,3.64858-5.16352c1.86488-.64309,3.77411-1.11915,5.66706-1.65826,1.096-.31214,2.1917-.63132,3.269-1.00128a6.37505,6.37505,0,0,0,3.63286-3.00647,25.03693,25.03693,0,0,1,4.63558-6.20125,1.7033,1.7033,0,0,0,.48283-1.40125c-.01191-1.29621.00338-2.59264.00511-3.889a23.757,23.757,0,0,1,2.08064-9.65,157.973,157.973,0,0,1,9.88705-18.32377c3.49943-5.75735,7.18538-11.403,10.29419-17.39181,1.362-2.6237,2.59811-5.303,3.7621-8.02065a29.2688,29.2688,0,0,0,2.08081-13.24177,190.92439,190.92439,0,0,1-.18112-20.36665,22.9069,22.9069,0,0,1,20.44416-21.79012c9.16582-.89179,17.04588,1.85091,22.20294,10.119a28.32034,28.32034,0,0,1,3.77736,11.26765,59.406,59.406,0,0,1,.39995,9.15738c-.05561,3.73168-.09793,7.45916.11414,11.19425a26.01865,26.01865,0,0,0,3.86658,12.16448c2.548,4.21987,5.4374,8.21037,8.20567,12.282,4.8678,7.15962,9.739,14.31614,14.01536,21.8548,1.12589,1.98488,2.16441,4.01435,3.14041,6.07645a25.6252,25.6252,0,0,1,.94413,20.39086C461.55693,251.21825,461.16948,252.22962,460.7445,253.371Z" transform="translate(-334.72765 -135.53183)"/><path class="cls-2" d="M389.75062,326.31032a4.36076,4.36076,0,0,0-.18379,1.77374q-.01128,7.69377-.00547,15.38752-.00015.6214-.01791,1.24277c-.00583.21666-.08437.44871-.3024.48a7.55789,7.55789,0,0,1-2.47056-.01143c-.22224-.04154-.28951-.27166-.29733-.48521q-.01986-.54329-.01943-1.08728-.00161-10.64692-.00074-21.29384c0-.20724.01667-.41588-.00162-.62148-.06256-.704.19035-1.09571.95745-1.01736a1.7748,1.7748,0,0,0,.46549-.00268c1.39411-.23171,2.21923.36994,2.98889,1.56143,3.40059,5.26418,6.9141,10.45545,10.38761,15.67253.342.51363.68983,1.02328,1.07653,1.59635.48532-.4357.29906-.92951.30039-1.34661.01641-5.18094.01147-10.36193.01208-15.54293,0-.31085.02216-.62357-.00388-.93222-.0606-.71813.21849-1.0241.97177-1.014,2.54966.034,2.12783-.155,2.13337,2.01059.01759,6.89067.0065,13.78139.00627,20.67209,0,.36267-.02013.72632.00031,1.08775.03335.58984-.222.8671-.81624.82577a2.91684,2.91684,0,0,0-.31072.00374c-2.14669.08044-2.1465.08044-3.34794-1.725q-5.33778-8.021-10.67708-16.041C390.36952,327.164,390.12449,326.83707,389.75062,326.31032Z" transform="translate(-334.72765 -135.53183)"/><path class="cls-2" d="M422.48132,329.37934c.00023-2.53959.01922-5.07942-.01128-7.61865-.00927-.77335.20847-1.11486,1.04973-1.0953,2.5415.05915,2.151-.21023,2.16422,2.14869.02185,3.887.01615,7.77428.003,11.66138a26.46217,26.46217,0,0,0,.239,3.5642,4.953,4.953,0,0,0,4.3403,4.60445,10.23412,10.23412,0,0,0,4.317-.16571,4.52137,4.52137,0,0,0,3.49155-3.56515,15.93624,15.93624,0,0,0,.37709-3.85665q.00489-6.45264.00611-12.90529c.00224-1.45754.01277-1.46873,1.43335-1.47042,2.09471-.00249,1.86129-.10735,1.8641,1.81649.00585,4.04264-.01182,8.08534.00965,12.12787a26.299,26.299,0,0,1-.30256,4.02495,7.65756,7.65756,0,0,1-6.34764,6.76985,14.59145,14.59145,0,0,1-6.47524-.11044,7.28809,7.28809,0,0,1-5.80809-6.15817,22.05635,22.05635,0,0,1-.35179-4.33009C422.48478,333.00738,422.48106,331.19334,422.48132,329.37934Z" transform="translate(-334.72765 -135.53183)"/><path class="cls-2" d="M456.109,344.91025q3.04629-4.11387,6.0928-8.22761c.83253-1.12384,1.6349-2.27223,2.51346-3.35892a1.13865,1.13865,0,0,0,.019-1.6319c-2.24118-3.1093-4.4399-6.24933-6.642-9.38671a4.72188,4.72188,0,0,1-.93075-1.62146c1.07688,0,2.03826.02848,2.997-.00937.71257-.02813.97934.48367,1.3032.942,1.67368,2.36885,3.33813,4.74426,5.01747,7.10907.22825.32143.32774.7601.85376.95989.75861-1.01116,1.53009-2.03809,2.30017-3.0661,1.27332-1.69981,2.57037-3.38262,3.80516-5.11a1.73919,1.73919,0,0,1,1.68432-.84115c.70611.05007,1.41853.01075,2.22276.01075a2.99216,2.99216,0,0,1-.78265,1.45228c-2.21995,3.06089-4.46019,6.1071-6.67246,9.1735-.79694,1.10464-.93129.84467-.03069,2.11741q3.54523,5.01035,7.118,10.00118c.35741.502.70953,1.00774,1.16361,1.65315a11.31675,11.31675,0,0,1-3.57907.14547c-.5234-.01915-.698-.57712-.95856-.94326-1.86186-2.61654-3.70552-5.246-5.5566-7.87024-.26677-.3782-.54235-.75021-.79579-1.10015-.50718.025-.60541.42549-.80643.702-2.0102,2.765-4.03714,5.51832-6.0043,8.3137a1.95044,1.95044,0,0,1-1.93.9593c-.75432-.06108-1.51748-.01271-2.27674-.01271Z" transform="translate(-334.72765 -135.53183)"/><path class="cls-2" d="M335.43759,332.77411c-.00021-3.62777-.008-7.25556.00427-10.88329.004-1.17777.028-1.20423,1.22642-1.20725,2.45192-.00617,2.07152-.15753,2.07678,2.06292.01375,5.80437.0046,11.6088.00461,17.41321,0,.25912-.002.51828.001.77738.01706,1.45944.01744,1.47146,1.42647,1.4753,3.00583.0082,6.01178-.00713,9.01751.01257.494.00325,1.16821-.26263,1.44753.23509a3.6237,3.6237,0,0,1,.09434,2.277c-.02818.21183-.26445.30132-.482.31382-.25847.01485-.5178.01985-.77676.01993-4.24967.001-8.49934.00714-12.749-.00375-1.2646-.00322-1.28391-.02552-1.28743-1.29872C335.43117,340.237,335.43778,336.50552,335.43759,332.77411Z" transform="translate(-334.72765 -135.53183)"/><path class="cls-2" d="M369.61546,333.17747c-.00023,3.62739.0076,7.25482-.00471,10.88217-.004,1.17626-.02811,1.17662-1.21672,1.20934-.15534.00429-.31091.00179-.46636.00114-1.521-.0063-1.53369-.00638-1.53467-1.52842q-.00684-10.72672-.00082-21.45345c0-.25906.01605-.51845.008-.77715-.01806-.58289.24535-.86952.83916-.82744.05147.00365.10357-.00258.15536-.00256,2.65695.00017,2.20073-.16539,2.21513,2.08062C369.63211,326.2335,369.61571,329.70554,369.61546,333.17747Z" transform="translate(-334.72765 -135.53183)"/><path class="cls-2" d="M384.764,275.09408a13.40426,13.40426,0,0,0,3.57-3.74967c.9854-1.70513.977-2.40807-.26407-3.94375-.87815-1.08653-1.826-2.12171-2.797-3.12738-3.78263-3.91756-7.82408-7.56749-11.76553-11.32084-.52555-.50048-1.038-1.01491-1.57085-1.50745a10.46613,10.46613,0,0,1-3.28531-7.32465,30.746,30.746,0,0,1,2.07759-12.17266,110.00594,110.00594,0,0,1,10.30767-20.85833,65.92578,65.92578,0,0,0,5.182-9.37218,42.215,42.215,0,0,0,2.96537-12.96755c.01668-.24247-.06548-.511.16416-.73132.428.0412.50728.454.71266.71631a16.414,16.414,0,0,0,12.78524,6.36367,9.70511,9.70511,0,0,0,4.6-1.27822,57.49113,57.49113,0,0,0,11.21051-7.228c.30913-.24855.53294-.64053,1.10094-.67962.34654,1.49363.70106,2.99673,1.04365,4.50256a81.61477,81.61477,0,0,0,10.23531,24.88772,63.45785,63.45785,0,0,1,8.10287,21.22926,30.63322,30.63322,0,0,1-.46312,13.55788c-.27357,1.08669-.28918,1.10284-1.47038.82364a10.01442,10.01442,0,0,0-2.61348-.31737,4.52146,4.52146,0,0,0-4.32928,2.97463,8.83681,8.83681,0,0,0-.568,2.2533,85.2209,85.2209,0,0,0-.98906,13.47384,2.94838,2.94838,0,0,1-.76412,1.95841c-6.96946,8.94561-16.20363,12.53528-27.34808,11.48032a25.71333,25.71333,0,0,1-14.49772-6.17477A4.894,4.894,0,0,1,384.764,275.09408Z" transform="translate(-334.72765 -135.53183)"/><path class="cls-3" d="M391.10866,290.76663a7.72054,7.72054,0,0,1-1.49328,4.93181c-3.705,5.44681-7.51107,7.06716-14.29822,5.82534a26.3942,26.3942,0,0,1-5.52454-1.56685,88.02336,88.02336,0,0,0-17.711-5.17368,98.6323,98.6323,0,0,1-9.95344-2.46993,15.82613,15.82613,0,0,1-3.594-1.45285,4.86492,4.86492,0,0,1-2.32424-5.85172,43.51712,43.51712,0,0,0,1.37714-5.09346,22.306,22.306,0,0,0-.469-8.17391,18.99592,18.99592,0,0,1-.51966-4.15313c.04032-2.64532.97584-4.02353,3.39428-5.00979a35.02417,35.02417,0,0,1,4.77748-1.36c1.155-.28981,2.31261-.57267,3.45736-.89965a8.15089,8.15089,0,0,0,5.06613-4.07533,30.58809,30.58809,0,0,1,2.60888-4.0465,17.67561,17.67561,0,0,1,1.42626-1.639c1.86777-1.87415,4.96078-3.02631,8.06168-.27034a39.18989,39.18989,0,0,1,5.25866,6.11994c3.52845,4.75126,6.50526,9.85885,9.58824,14.89686a74.09675,74.09675,0,0,0,7.15831,10.14889,13.668,13.668,0,0,1,3.517,6.4813A19.13811,19.13811,0,0,1,391.10866,290.76663Z" transform="translate(-334.72765 -135.53183)"/><path class="cls-3" d="M446.94235,262.14307a23.6952,23.6952,0,0,0,4.28439-.36314c3.36688-.41788,5.56685-2.54569,7.474-5.10117a2.4868,2.4868,0,0,0,.32926-.52615,2.2685,2.2685,0,0,1,2.8227-1.48687c1.58426.25726,2.91983.74326,3.48684,2.39666a7.26673,7.26673,0,0,1,.36831,2.13721c.02112.67333.01261,1.34936.07156,2.01943a9.214,9.214,0,0,0,2.98114,6.60581c1.799,1.55888,3.50048,3.23308,5.32067,4.77394a18.71525,18.71525,0,0,1,1.80241,1.7105,3.53307,3.53307,0,0,1,.18852,4.92458,9.34714,9.34714,0,0,1-1.94136,1.77857c-2.99922,2.22326-6.12391,4.26336-9.26159,6.28034A124.331,124.331,0,0,0,448.919,299.40107c-4.18171,3.76023-8.89708,4.578-14.16468,3.16431a11.70535,11.70535,0,0,1-4.00378-2.0138,8.38271,8.38271,0,0,1-3.25-5.29776,22.32185,22.32185,0,0,1,.402-9.85378c.0626-.25128.12087-.50394.19368-.75229a53.31682,53.31682,0,0,0,1.95592-16.28151,77.18943,77.18943,0,0,1,.94192-12.07263c.05584-.41.14-.81732.232-1.22112a3.63782,3.63782,0,0,1,4.59062-3.05419c.91617.16154,1.8159.4225,2.71714.66072,1.14424.30252,1.1594.31737.84886,1.42942a10.72449,10.72449,0,0,0-.10408,5.07366,2.72134,2.72134,0,0,0,1.95025,2.19467A16.86869,16.86869,0,0,0,446.94235,262.14307Z" transform="translate(-334.72765 -135.53183)"/><path class="cls-3" d="M390.06087,186.81834a6.228,6.228,0,0,1,2.05131,1.033,15.40244,15.40244,0,0,0,13.57982,1.45556,34.00071,34.00071,0,0,0,10.31823-6.242c.06362-.05267.06442-.1812.12239-.36033-.66942-.16527-1.03686.352-1.45029.64034a46.68477,46.68477,0,0,1-7.0868,4.17662,15.93367,15.93367,0,0,1-16.90051-1.549c-.805-.56593-1.62893-1.11041-2.392-1.72915a2.68071,2.68071,0,0,1-.72505-3.8467,10.53529,10.53529,0,0,1,3.04137-3.28275,52.1045,52.1045,0,0,1,4.67881-3.06538,11.417,11.417,0,0,1,10.01691-1.0357c3.96283,1.37942,7.88643,2.87146,11.825,4.32029a9.21871,9.21871,0,0,1,.84609.39229c2.18436,1.06609,2.831,2.49023,2.17372,4.82094a6.467,6.467,0,0,1-2.23313,3.46305,66.89381,66.89381,0,0,1-10.69782,6.89332,10.56548,10.56548,0,0,1-7.69274.80915,15.32383,15.32383,0,0,1-8.041-4.73662A7.53381,7.53381,0,0,1,390.06087,186.81834Z" transform="translate(-334.72765 -135.53183)"/><path class="cls-2" d="M414.5316,175.22039a6.21765,6.21765,0,0,0,2.08047-6.57361,5.31606,5.31606,0,0,0-.94531-1.94282,3.79133,3.79133,0,0,0-6.15156-.1759,6.25787,6.25787,0,0,0-1.26237,5.26653c.05945.39485.37917.75827.12322,1.25133-.32679-.10675-.66208-.2078-.99149-.32531-2.104-.75055-2.1523-.75478-2.00887-3.04527.19153-3.05771.85281-5.94021,3.23546-8.16012,3.84223-3.57981,9.31856-2.51121,11.41137,2.31073a9.82827,9.82827,0,0,1-.22381,8.84711,25.597,25.597,0,0,1-1.99067,3.15077c-.27558.38048-.58649.57821-1.05147.35031A14.09444,14.09444,0,0,1,414.5316,175.22039Z" transform="translate(-334.72765 -135.53183)"/><path class="cls-4" d="M395.76848,172.57413a11.41771,11.41771,0,0,0-.288-3.66069,5.67267,5.67267,0,0,0-1.511-2.48847,2.573,2.573,0,0,0-4.1947.67811,6.62168,6.62168,0,0,0,.7724,7.263,6.89035,6.89035,0,0,0,.84413.70675c-.13122.45847-.40238.54521-.58209.72276-.56444.55768-.96513.3381-1.3685-.223a13.40354,13.40354,0,0,1-2.40952-6.78444,10.56138,10.56138,0,0,1,.5213-4.74221,4.30221,4.30221,0,0,1,7.86326-.99708,13.94822,13.94822,0,0,1,2.10337,7.97662C397.50741,172.12774,396.78164,172.364,395.76848,172.57413Z" transform="translate(-334.72765 -135.53183)"/><path class="cls-5" d="M402.59774,174.15694a2.05744,2.05744,0,0,1,2.321.5854.51093.51093,0,0,1,.03.70066.44773.44773,0,0,1-.56823.06678c-.63827-.31877-1.26366-.66335-1.89394-.99815Z" transform="translate(-334.72765 -135.53183)"/><path class="cls-6" d="M398.82346,174.25176a4.13824,4.13824,0,0,1-1.62225,1.29658.45588.45588,0,0,1-.55478-.12976.47717.47717,0,0,1,.00667-.692A1.91057,1.91057,0,0,1,398.82346,174.25176Z" transform="translate(-334.72765 -135.53183)"/></g></svg>