<svg id="Layer_1" data-name="Layer 1" xmlns="http://www.w3.org/2000/svg" viewBox="0 0 364.89137 72.46246"><defs><style>.cls-1{fill:#d1d3d4;}</style></defs><path class="cls-1" d="M267.77691,331.79711c14.47331-.1271,27.29186-11.03827,29.56635-25.17894.35894-2.23164-.28858-5.13387,3.65628-4.70142,4.38522.48072,2.29682,3.73354,2.0755,5.50716-2.133,17.09438-18.77349,30.76014-36.55694,30.28724a36.55474,36.55474,0,0,1-35.778-33.32994c-1.61625-17.06567,11.00825-34.12519,28.11974-37.37955,2.40976-.45831,6.48647-4.18027,7.9114.91178,1.53416,5.48238-3.83686,3.88736-6.295,4.48437-15.15986,3.68187-25.37681,17.43769-23.68656,32.36963A30.48056,30.48056,0,0,0,267.77691,331.79711Z" transform="translate(-230.60068 -265.2606)"/><path class="cls-1" d="M349.31894,306.3965c4.01226-6.66878,7.71771-12.51912,11.08215-18.55536,1.58068-2.83591,3.55837-4.368,6.74339-3.54681,3.20975.82751,1.70912,3.62677,1.75245,5.50661.19343,8.38884.10262,16.7838.15429,25.17632.01406,2.286.23471,4.31153-3.25488,4.30454-3.22322-.00645-4.21372-1.13162-4.08585-4.22045a61.51308,61.51308,0,0,0-1.08764-15.60181c-2.63105,4.32464-5.28776,8.63428-7.8855,12.97842-2.287,3.82446-4.558,4.22285-7.02967.15911a67.81894,67.81894,0,0,0-9.1523-12.52317c0,4.98414-.04549,9.96885.0197,14.95216.03132,2.3942-.03816,4.20415-3.38846,4.25879-3.43423.056-3.98833-1.46926-3.94512-4.35671.12858-8.59065-.01253-17.18509.09206-25.77637.0214-1.758-1.135-4.33459,1.96039-4.84456,2.45424-.40434,4.59824-.18987,6.12368,2.48677C341.04481,293.15844,345.00306,299.33836,349.31894,306.3965Z" transform="translate(-230.60068 -265.2606)"/><path class="cls-1" d="M576.62,283.71c-11.41-.17-19.82,7.44-19.83,17.93,0,10.23,8.21,17.95,19.19,18.04,10.96.09,19.36005-7.54,19.51-17.71C595.64,291.65,587.59,283.86,576.62,283.71Zm-.84,29.38c-6.65-.18-11.03-4.85-10.94-11.66.1-6.66,4.84-11.36,11.4-11.3a11.14445,11.14445,0,0,1,11.33,11.45C587.61,308.44,582.65,313.28,575.78,313.09Z" transform="translate(-230.60068 -265.2606)"/><path class="cls-1" d="M294.94642,302.0958c-.88211,10.34177-5.39628,18.62363-14.93881,23.57559-9.50858,4.93433-19.03457,4.3043-28.08906-1.34075-1.52125-.94842-4.63373-1.62292-2.60845-4.8092,1.92187-3.02359,3.61143-1.569,5.78906-.18128,8.2788,5.27578,17.44141,4.85386,25.35857-.914a20.903,20.903,0,0,0,7.51977-21.85408c-2.53305-9.07838-9.424-14.94778-18.8908-16.04883a19.14626,19.14626,0,0,0-13.72415,3.4791c-2.7118,1.96726-4.56753,1.356-5.9374-.91042-1.67655-2.77383,1.48224-3.225,2.856-4.07844,9.12078-5.66616,18.70733-6.04362,28.08443-.98818C289.76421,283.09235,294.30325,291.425,294.94642,302.0958Z" transform="translate(-230.60068 -265.2606)"/><path class="cls-1" d="M484.14684,300.49521c.40552-4.573-2.34308-11.69462.99921-15.20823,3.40975-3.58456,10.68455-.76618,16.25076-1.15,1.60388-.11058,3.22337-.05473,4.83361-.00708,2.0922.0619,4.48721-.68948,4.57065,2.94366.08051,3.50351-2.03386,3.18657-4.29515,3.16728-3.626-.031-7.2636.17044-10.87573-.05224-3.79017-.23367-3.43281,2.11915-3.61076,4.60928-.21488,3.007,1.07609,3.767,3.848,3.60646,3.2122-.186,6.448.05836,9.66626-.06713,2.53535-.09887,2.93351,1.23336,2.99467,3.32656.06471,2.21681-1.00869,2.67383-2.92966,2.62106-3.01954-.083-6.05744.163-9.06127-.0667-3.27785-.25062-4.50834.70073-4.59683,4.21452-.09649,3.83116,1.22433,4.84529,4.84,4.579,3.80647-.2803,7.65153-.01088,11.47814-.075,2.17731-.03646,3.328.61707,3.35195,3.04332.02368,2.4049-1.05558,3.11946-3.26137,3.10436-6.84933-.04687-13.70166-.12251-20.54774.0329-3.01433.06843-3.79777-1.18693-3.69948-3.92616C484.26624,310.61435,484.14684,306.0276,484.14684,300.49521Z" transform="translate(-230.60068 -265.2606)"/><path class="cls-1" d="M412.23,314.5c-3.86-8.94-8.04-17.74-11.92-26.67-1.2-2.78-2.74-4.29-5.78-3.52-3.14-.7-4.29,1.04-5.36005,3.51-3.87,8.93-8,17.76-11.94,26.66-.58,1.33-2.4,2.95-.79,4.2,1.04.81,3.07.41,4.66.46,2.47.09,2.55-2.08,3.4-3.55.84-1.45.65-3.91,2.98-3.99a99.64941,99.64941,0,0,1,14.46.14c2.71.3,2.38,3.78,3.59,5.72,1.79,2.88,4.91,2.16,7.05,1.4C415.32,317.89,412.79,315.79,412.23,314.5ZM394.34,306.01c-5.53.05-5.6-1.86005-3.48-5.69,1.43-2.57,1.77-5.67005,4.12-8.06a65.4069,65.4069,0,0,0,3.31,7.72C401.18,304.89,399.77,305.96,394.34,306.01Z" transform="translate(-230.60068 -265.2606)"/><path class="cls-1" d="M540.74389,319.92016a82.0118,82.0118,0,0,1-9.00725-.7109c-8.229-1.531-13.08491-6.59-14.04336-14.22781-1.08595-8.65412,2.16269-15.24713,9.38143-19.03934,6.76479-3.55375,17.54374-2.72213,22.33351,1.614,1.20794,1.09352,2.00725,2.03433.46982,3.31458-1.54582,1.28721-2.43027,3.18447-5.47541,1.59979-7.665-3.98888-14.823-2.29754-17.74761,3.65269-2.29112,4.66143-2.12724,9.366,1.23813,13.49032,3.471,4.25375,8.541,4.16678,13.36052,3.74173,3.46246-.30538,1.7538-3.41293,1.9489-5.28644.22889-2.19753-.3374-4.24477,3.25516-4.19818,3.32067.04308,4.31838,1.265,3.921,4.2436a13.30315,13.30315,0,0,0-.0104,1.79335C550.4037,319.73342,550.40381,319.73342,540.74389,319.92016Z" transform="translate(-230.60068 -265.2606)"/><path class="cls-1" d="M461.90519,284.10887c3.63225-.00216,7.26566.05228,10.89639-.02131,2.41577-.049,4.3321-.00428,4.25245,3.34193-.07155,3.00582-1.83089,3.34942-3.94886,2.96378-6.70862-1.22149-8.03428,1.94951-7.518,7.82339.50482,5.74408-.04933,11.57152.17186,17.35074.11881,3.104-1.30373,3.57852-3.95282,3.583-2.69338.00452-4.13081-.59366-4.054-3.63942.15586-6.18275-.31232-12.39817.14928-18.55078.38679-5.15594-.99016-7.45315-6.53952-6.61854-1.5248.22932-4.08474,1.13783-4.73589-1.14194-.66874-2.34125-1.3219-5.36372,3.17392-5.13227C453.8249,284.27463,457.86934,284.111,461.90519,284.10887Z" transform="translate(-230.60068 -265.2606)"/><path class="cls-1" d="M267.36178,282.97982c8.57131.00531,16.63587,6.43939,18.31974,14.65746.29573,1.44331,1.39805,3.37275-1.19349,3.7638-1.86332.28117-3.49406.59232-4.60253-2.23909-3.368-8.60314-8.9334-11.68729-16.0398-9.73783-5.97521,1.63914-9.117,5.60216-9.54909,11.64085a12.6018,12.6018,0,0,0,8.26893,12.64377,14.2533,14.2533,0,0,0,2.34377.59551c2.66177.52069,2.05583,2.58581,1.97287,4.26957-.1473,2.989-2.345,1.4494-3.58215,1.27785-9.03714-1.25308-15.63614-9.96336-14.94857-19.54533A18.86031,18.86031,0,0,1,267.36178,282.97982Z" transform="translate(-230.60068 -265.2606)"/><path class="cls-1" d="M420.40051,301.38758c.0017-4.577.12595-9.15843-.042-13.72938-.11183-3.043,1.37756-3.55468,4.0424-3.60354,2.84151-.0521,3.89314.79311,3.81888,3.70688-.1774,6.96054.13135,13.93555-.13479,20.89055-.13309,3.47793,1.06179,4.49771,4.42415,4.23148,3.39882-.26912,6.83744-.00989,10.25683-.07468,2.08924-.03958,3.36528.4025,3.45822,2.90429.10161,2.73471-1.13427,3.40861-3.58332,3.377-6.23663-.08055-12.47883-.15673-18.71107.02477-3.14353.09155-3.64308-1.40213-3.568-3.99744C420.49412,310.54425,420.39879,305.96456,420.40051,301.38758Z" transform="translate(-230.60068 -265.2606)"/><path class="cls-1" d="M267.032,295.69569c4.05924-.34,5.40254,2.5166,5.68856,5.48121.30572,3.1688-1.54233,6.11568-4.87574,6.28988-3.61063.18868-6.8205-1.70266-6.87-5.87779C260.93086,297.87625,263.29954,295.91637,267.032,295.69569Z" transform="translate(-230.60068 -265.2606)"/></svg>