<svg id="Layer_1" data-name="Layer 1" xmlns="http://www.w3.org/2000/svg" viewBox="0 0 229.97785 303.92722"><defs><style>.cls-1{fill:#3a658d;}.cls-2{fill:#3676b3;}.cls-3{fill:#fefefe;}</style></defs><g id="jxGemd"><path class="cls-1" d="M396.645,147.10492c8.93281-1.57653,17.86736-.1163,26.72128.493a345.58793,345.58793,0,0,1,89.13989,18.45136c8.642,2.97825,7.18526,2.23469,7.1933,10.23569.04989,49.63588-.16963,99.27318.17189,148.90678.07829,11.38166-3.20083,21.212-9.14342,30.525-8.70206,13.63762-19.89592,25.03394-31.995,35.61634-21.49937,18.80436-42.7603,37.90054-65.91411,54.70483-2.67674,1.94274-5.13691,4.73554-9.03763,4.22443a21.37764,21.37764,0,0,1-1.33443-8.38q-.00171-47.95032.02418-95.90063c.01377-8.09277.95342-9.08406,8.94254-10.08187a8.89688,8.89688,0,0,0,4.46929-1.37611c2.40925-1.87888,2.13747-4.57851,2.14392-7.15554.036-14.422.11975-28.84545-.04533-43.26526-.054-4.71637,1.356-8.02709,5.20056-11.04422,11.00029-8.6328,21.75346-17.58413,32.68385-26.31145,1.47837-1.18039,2.93178-2.517,5.02644-1.47365,1.85694.92491,1.88974,2.75992,2.01908,4.48131.173,2.30217.10937,4.61277.10963,6.92q.00622,56.02964.00252,112.05928c0,1.15376-.07929,2.31433.02016,3.45968.14285,1.64515-.7262,3.959,1.19761,4.66692,1.943.71507,2.76461-1.5954,3.90695-2.79518,3.88071-4.07593,7.33369-8.51952,10.99189-12.78522,11.06224-12.89943,15.78056-28.1143,15.89059-44.71188.262-39.51475.10011-79.03226.07133-118.54862-.00484-6.61181-1.27332-7.858-7.83389-7.91048-6.77954-.05422-13.56159.07838-20.339-.04416a14.47564,14.47564,0,0,0-10.86431,4.35126c-14.98033,14.37-30.05744,28.63879-44.92462,43.12735-1.74961,1.70506-3.25124,4.35886-6.51321,3.13413-2.56319-2.46107-2.13894-5.69839-2.14806-8.75411-.0674-22.55992-.12081-45.12065.0254-67.67972C402.54643,157.73009,402.98767,151.32638,396.645,147.10492Z" transform="translate(-289.89485 -146.39654)"/><path class="cls-2" d="M420.07063,337.83944c-3.19352,1.33814-6.54545.59216-9.82312.69135-5.37546.16269-5.6418.30049-5.64431,5.639q-.02339,49.87812-.02389,99.75627c-.00137,2.13211.38016,4.34056-.79825,6.33628-12.29624-7.61983-23.22547-17.05682-34.37908-26.16244-16.41188-13.3984-33.24223-26.31873-48.69829-40.84531A137.6755,137.6755,0,0,1,297.02306,354.708a46.49175,46.49175,0,0,1-7.128-24.96694q.24837-78.07308.03446-156.14744c-.00393-3.1762.42991-5.35651,3.95993-6.56584,33.33457-11.42,67.42942-18.81646,102.75542-19.92257,7.94817.59886,7.94907.59886,7.94918,8.65164q.00058,39.125.009,78.25c.001,2.00462-.24228,4.04715.60236,5.97237-.88679,3.146-2.8568,2.14788-4.429.90348a103.27092,103.27092,0,0,1-7.8487-6.78718c-10.65739-10.34146-21.88022-20.07907-32.44812-30.51462-3.89752-3.84872-8.25854-7.20018-12.09041-11.12908-2.36254-2.4224-5.3664-3.21466-8.67618-3.21589-6.7802-.00252-13.56074-.04074-20.34062.00724-6.623.04687-7.881,1.26726-7.89008,7.84727q-.059,42.83555-.0102,85.67118c.00956,14.26483-.0951,28.51063,1.29433,42.76306,1.604,16.4542,8.86418,29.93329,19.98525,41.67039,2.7782,2.93209,5.06465,6.30336,8.12113,8.97583.861.75283,1.75363,1.72019,3.02622,1.24164,1.29909-.48857,1.26754-1.80845,1.34489-2.94871.09764-1.43878.04747-2.88346.04755-4.32563q.00352-57.54681.00563-115.09363a49.41516,49.41516,0,0,1,.20179-6.91482c.53264-3.771,2.50156-4.63,5.661-2.54639,4.124,2.71977,7.40122,6.41973,11.08519,9.646,7.15608,6.26691,14.09771,12.77822,21.25543,19.04393a11.99491,11.99491,0,0,1,4.2222,9.88643c-.12086,14.27713-.073,28.55655-.0371,42.835.019,7.53561,1.04254,8.56181,8.43342,8.60619,6.05878.03637,12.118-.04438,18.17654.04719C416.47451,335.68105,418.68109,335.70012,420.07063,337.83944Z" transform="translate(-289.89485 -146.39654)"/><path class="cls-3" d="M420.07063,337.83944c-10.24169-.00918-20.48554-.139-30.72376.04514-3.12.05613-3.821-.971-3.79838-3.92505.1312-17.16122.05545-34.324.07646-51.48616.0023-1.89607-.073-3.52137-1.73907-5.00339-11.74267-10.4457-23.37865-21.01131-35.05736-31.529a12.17022,12.17022,0,0,0-1.53982-.91159v139.963c-6.4373-5.51606-11.13614-11.24782-16.36579-16.44107-16.26985-16.15659-21.44342-36.30217-21.45542-58.39332q-.03231-59.49-.15955-118.97969c-.00965-2.99282.766-3.95807,3.8298-3.90135,9.80589.18154,19.61809.13748,29.42588.018a8.10371,8.10371,0,0,1,6.12548,2.42049q26.17383,24.58159,52.53117,48.96715c.96145.88973,1.78315,3.66631,3.98653,1.29528,17.20824-16.43863,34.45644-32.83874,51.579-49.3689a9.29478,9.29478,0,0,1,7.237-2.83755c10.09925.15992,20.20326.12383,30.30389.01593,2.37771-.0254,3.2626.60005,3.25346,3.12143-.153,42.12713-.07429,84.25563-.38135,126.38139-.1293,17.7352-5.72867,33.61692-17.71479,47.11418-5.90379,6.64815-11.63838,13.43222-18.44128,20.36036V246.77311c-1.58623-.95856-2.15039.22557-2.84055.7828-11.78459,9.51492-23.50578,19.10892-35.34582,28.554a6.20485,6.20485,0,0,0-2.49611,5.5049c.07722,17.16874.05058,34.338.02775,51.50707C420.386,334.69455,420.18126,336.26694,420.07063,337.83944Z" transform="translate(-289.89485 -146.39654)"/></g></svg>