<svg id="Layer_1" data-name="Layer 1" xmlns="http://www.w3.org/2000/svg" viewBox="0 0 440.67507 522.44566"><defs><style>.cls-1{fill:#90c26f;}.cls-2{fill:#887355;}.cls-3{fill:#897355;}.cls-4{fill:#3f3222;}.cls-5{fill:#60934f;}.cls-6{fill:#6ca557;}.cls-7{fill:#7bad63;}.cls-8{fill:#8cb974;}.cls-9{fill:#b0b093;}.cls-10{fill:#ccc9b5;}</style></defs><g id="WUYpgn"><path class="cls-1" d="M544.82737,205.72783c1.08329,24.102-2.1019,47.88524-7.20923,71.27395-7.66855,35.118-22.88886,66.92394-44.79,95.57516a331.99846,331.99846,0,0,1-64.89691,64.45314C408.23013,451.79052,387.35773,464.752,364.468,474.19a8.22793,8.22793,0,0,1-7.0909-.17581c-41.77094-18.52542-77.79972-45.06942-108.68694-78.54891-21.18228-22.96008-38.73043-48.51836-50.96744-77.38933a235.89275,235.89275,0,0,1-9.87533-29.64246,290.55391,290.55391,0,0,1-9.43364-54.2535c-1.75614-22.36583-2.01018-44.83076.99579-67.21609,1.994-14.84965,4.79052-29.3926,10.093-43.52137,4.12878-11.00146,12.33037-17.3274,21.90739-22.72892A194.29644,194.29644,0,0,1,260.92513,81.534c24.09549-5.9178,48.591-8.34854,73.29028-10.339,22.38593-1.804,44.57568-.72743,66.7754.76285,27.38113,1.83814,54.4259,6.34815,80.42454,15.49435,15.06067,5.2983,29.7203,11.56965,42.24476,21.98,5.98723,4.97661,8.71377,11.73054,11.01827,18.58861,6.60833,19.66558,9.53094,40.02333,10.12434,60.72245C544.96492,194.40035,544.82737,200.066,544.82737,205.72783Z" transform="translate(-141.54678 -70.25053)"/><path class="cls-2" d="M486.8,497.3c-5.15-.07-10.3-.01-15.46,0-6.15.01-12.31.05-18.46-.02-2.05-.02-3.86.44-4.16,2.62-.4,2.84,2.4,2.02,3.54,2.11005,5.43.44,6.84,3.51,6.78,8.42-.16,13.81-.09,27.61-.07,41.42.01,4.45-.4,8.45-6.1,9.08a2.65577,2.65577,0,0,0-2.43,2.76c.03,1.96,1.67,1.81,2.93,1.81,10.65,0,21.35.63,31.92-.23,16.9-1.38,28.9-11.27,32.17-26.59C522.45,515.3,508.74,497.64,486.8,497.3Zm9.95,58.67c-6.84,5.25-14.37,5.38-22.23,3.09-3.16-.92-4.54-3.28-4.55-6.39-.07-15.46-.05-30.91-.1-46.36-.01-2.72,1.35-3.7,3.95-3.99,19.71-2.19,33.19,9.92,33.08,32.03C506.61,541.41,504.62,549.92,496.75,555.97Z" transform="translate(-141.54678 -70.25053)"/><path class="cls-3" d="M582.18,542.04c-.39-7.7-5.02-11.22-10.97-13.93-2.31-1.04-2.78-1.66-.57-3.16,6.07-4.12,8.48-9.69,6.35-16.83-1.85-6.21-7.82-10.22-15.98-10.63-5.15-.26-10.32-.05-15.48-.05v-.14c-5.33,0-10.66.01-15.99-.02-1.78,0-3.59.21-3.97,2.19-.52,2.68,1.97,2.35,3.36,2.47,4.87.43,6.22,3.03,6.13,7.68-.26,14.32-.22,28.65-.13,42.98.03,4.54-.79,7.95-6.27,8.15-1.8.07-3.36,1.14-3.22,3.11.15,2.22,2.19,1.61,3.54,1.63,8.83.13,17.66.26,26.49.19a34.05735,34.05735,0,0,0,16.2-4.42C579.32,557.1,582.64,550.96,582.18,542.04Zm-34.22-39.36c5.3-2.11,14.18.92,16.71,5.15,2.52,4.24,3.05,8.71.72,13.32-2.12,4.2-5.96,5.18-10.06,5.14-11.65-.1-9.45,1.66-9.61005-11.91a10.8864,10.8864,0,0,1,.03-2.49C546.5,508.79,543.66,504.39,547.96,502.68Zm18.23,54.95c-5.14,3.64-10.95,3.63-16.72,1.68-2.4-.82-3.51-2.96-3.66-5.49-.21-3.49-.39-6.98-.57-10.47h.12c0-2.34.19-4.69-.04-7-.4-4.17,1.28-5.92,5.45-5.34,3.13.44,6.36.45,9.4,1.23,5.52,1.4,9.73,4.7,10.79,10.56C571.99,548.43,571.32,553.99,566.19,557.63Z" transform="translate(-141.54678 -70.25053)"/><path class="cls-1" d="M187.40126,544.308c0,2.66528.129,5.33818-.02957,7.994-.25243,4.2273-.274,8.15936,5.32753,8.85125a1.71213,1.71213,0,0,1,1.53078,2.1586,1.90377,1.90377,0,0,1-2.13437,1.6527q-9.2397.094-18.47989.12962a1.9308,1.9308,0,0,1-2.09245-1.73973,2.008,2.008,0,0,1,2.07344-2.29791c4.79436-.407,5.2662-3.71086,5.2-7.47517-.10252-5.82466.01852-11.65951-.29191-17.47209-.22438-4.2013-1.85463-7.964-6.25543-9.34134-4.67939-1.46451-8.84451.266-12.62457,3.02648-1.38536,1.01171-1.33962,2.56385-1.33016,4.08707.04351,6.99583.17663,13.99379.04753,20.98681-.06087,3.29748.76024,5.52217,4.3889,5.98357,1.37135.17446,2.71559.70238,2.41184,2.505-.31107,1.84573-1.86129,1.59285-3.15972,1.60108-5.49138.035-10.98294.03247-16.47438.05895-1.3605.00653-2.94022.09294-3.21037-1.58527-.27-1.6773,1.17422-2.23109,2.55192-2.4534,3.94547-.63636,4.98064-3.20009,4.92767-6.8174-.09025-6.16053-.25807-12.34377.15851-18.48008.33075-4.87226-.99188-8.04348-5.99964-9.236-.94773-.22566-2.67617-.16281-2.34966-1.9065.22682-1.21139,1.598-.94056,2.49279-1.17624,3.53981-.93262,7.17426-1.571,10.62683-2.74887,2.74086-.93489,4.189-.83933,3.78662,2.5204-.444,3.70677,1.1874,3.14468,3.26072,1.56721a29.95328,29.95328,0,0,1,7.41976-4.05179c5.75713-2.22493,10.41523-1.35321,14.407,3.349,1.89476,2.232,2.99,2.655,5.54246.83438,5.81374-4.14675,12.187-7.724,19.4023-3.6494,6.84794,3.8672,7.6551,10.77948,7.57168,17.85653-.05889,4.99657.1283,10.00314-.131,14.98781-.19125,3.67589.66,6.19508,4.714,6.7662,1.33026.1874,2.80843.55342,2.56455,2.38005-.23347,1.74882-1.66518,1.775-3.05668,1.76743-5.49425-.02984-10.98867-.03015-16.48295-.05279-1.16351-.00476-2.45719.09978-2.74812-1.46292a2.03916,2.03916,0,0,1,1.871-2.4833c4.093-.8226,4.48064-3.71141,4.382-7.15968-.16183-5.65916.00876-11.32791-.15228-16.98713-.12208-4.29052-1.83069-7.74-6.08777-9.45362-4.73047-1.90413-8.79228-.07354-12.69661,2.36516-1.32544.82785-1.05629,2.24726-1.022,3.61218.092,3.66088.03136,7.3256.03136,10.9888Z" transform="translate(-141.54678 -70.25053)"/><path class="cls-1" d="M374.36,559.51c-4.47-.36005-8.96-.68-13.41-1.22-1.84-.23-3.77-1.04-3.66-3.34.09-2.01,1.88-2.55005,3.56-2.88.82-.16,1.66-.16,2.48-.27,10.95-1.4,17.25-8.7,16.73-19.71-.12-2.41-.11-3.51,2.87-3.58,4.51-.1,5.74-3.05,4.97-7.56-5.27,2.72-10.17,1.99-15.17.09-7.55-2.86-14.76-1.61-21.47,2.59-9.43,5.91-10.02,20.59-.7,26.07,4.51,2.65,3.28,3.52-.08,5.52-4.61,2.76-5.19,5.16-1.3,7.77,4.67,3.13,2.53,4.29-.52,6.58-9.29,6.99-7.91,15.88,2.68006,21.07,10.79,5.28,25.5-.32,32.18-8.73,3.4-4.29,5.5-9.21,3.27-14.85C384.57,561.44,379.78,559.95,374.36,559.51Zm-21.43-23.84c-.5-6.96,2.41-11.4,7.71-11.82,5.8-.46,10.12,3.78,10.73,10.57.08.82.01,1.65.01,2.48.04,6.16-2.4,9.96-6.76,10.65-5.1.81-9.46-2.49-11.09-8.46A18.01193,18.01193,0,0,1,352.93,535.67Zm22.08,48.45a15.12751,15.12751,0,0,1-8.99,2.52c-4.31-.05-7.52-.56-10.43-2.43-3.51-2.24-5.86005-5.25-4.75-9.48a9.87855,9.87855,0,0,1,9.29-7.72,34.84339,34.84339,0,0,1,12.78,1.29c3.4,1.03,6.09,2.69,6.54,6.55A8.97443,8.97443,0,0,1,375.01,584.12Z" transform="translate(-141.54678 -70.25053)"/><path class="cls-1" d="M301.64347,525.81957c2.84539-1.771,5.12264-3.466,7.62755-4.69834,9.81647-4.82918,18.96326-.13816,20.89643,10.7303,1.02581,5.76712.34888,11.62992.56835,17.44475.18292,4.84505-1.76163,10.83587,6.1083,11.80914,1.08.13358,1.34341,1.34686,1.15854,2.4379a1.96073,1.96073,0,0,1-1.97754,1.86214q-9.47985.06116-18.96025.0249a1.98424,1.98424,0,0,1-2.23216-2.10892,2.15823,2.15823,0,0,1,1.90636-2.51c4.40338-.40825,4.66759-3.41965,4.58569-6.81911-.14026-5.82289-.13712-11.64938-.29761-17.47159-.12055-4.37291-1.901-7.662-6.32854-9.14912-4.60024-1.545-8.52209-.0595-12.09634,2.68285-1.60935,1.23488-1.46537,3.23353-1.44691,5.08615.06639,6.65715.2163,13.31606.11573,19.971-.04744,3.1401.84918,5.14742,4.22263,5.54,1.54912.18026,3.00924.579,2.75514,2.70781-.24947,2.09006-1.71678,2.09226-3.2969,2.084-5.6556-.02966-11.31147-.00665-16.96715-.0296-1.30945-.00531-2.79953.15879-3.14022-1.65185-.36038-1.91536.84167-2.92078,2.44293-3.09433,3.80575-.41228,4.34627-2.93086,4.35887-6.02116.02578-6.32408-.12681-12.66354.27274-18.96632.28166-4.44326-.80469-7.4391-5.43026-8.57829-1.04671-.25771-2.517-.54476-2.51421-2.027.00342-1.83462,1.73442-1.77585,2.92594-2.09293,2.56828-.68359,5.20466-1.11491,7.76564-1.82156C300.82813,519.4601,300.81709,519.42007,301.64347,525.81957Z" transform="translate(-141.54678 -70.25053)"/><path class="cls-1" d="M255.23,519.5c-14.02.1-24.15,9.78-24.16,23.08-.01,14.21,8.33,23.27,21.51,23.36,14.15.09,24.17-9.91,24.18-24.12C276.77,528.6,267.9,519.41,255.23,519.5Zm11.05,32.32c-.88,4.46-3.08,7.76-7.56006,9.03-4.41,1.24-8.26-.24-11.45-3.27-5.07-4.81-6.44-11.06-6.47-17.75,0-.33-.01-.66,0-1,.15-8.27,3.26-13.22,8.99-14.31,6.29-1.19995,12.54,2.80005,15.32,10.09A30.66214,30.66214,0,0,1,266.28,551.82Z" transform="translate(-141.54678 -70.25053)"/><path class="cls-1" d="M417.66,519.54c-14.03.03-24.34,9.78-24.24,22.94.1,14.55,8.54,23.58,21.94,23.48,14.06-.1,23.8-10.2,23.7-24.57C438.98,528.36,430.31,519.51,417.66,519.54Zm11.52,28.68c-.61,7.58-3.51,11.81-8.82,12.89-5.48,1.12-11.87-2.55-14.69-8.81a29.09126,29.09126,0,0,1-1.87-18.97c2.18-9.24,11.8-12.1,18.92-5.72,4.34,3.88,6.56006,9.83,6.47,17.62C429.19,546.23,429.26,547.23,429.18,548.22Z" transform="translate(-141.54678 -70.25053)"/><path class="cls-4" d="M361.55626,99.681a376.44735,376.44735,0,0,1,86.71884,8.34031c18.0191,3.97142,35.49015,9.94288,51.50158,19.5526a15.88889,15.88889,0,0,1,7.2473,8.9874,170.41469,170.41469,0,0,1,8.07138,41.45364c1.11338,13.93305,2.064,27.80961,1.09123,41.853-2.4675,35.6194-8.96574,70.20286-25.33354,102.26967-8.24889,16.16084-18.85428,30.88366-30.59508,44.71366a306.88335,306.88335,0,0,1-93.94475,74.7085c-3.654,1.88844-6.46871,1.9408-10.13227.03063-52.83562-27.54894-94.952-66.35934-124.02933-118.6131-9.33029-16.7672-14.95446-35.10366-19.05373-53.8487-5.49675-25.13518-8.137-50.58833-6.90671-76.27892.89809-18.75288,3.05522-37.3717,8.94865-55.44462,2.52914-7.75582,8.67719-10.56142,14.75263-13.73387,18.12336-9.4636,37.65708-14.5492,57.663-18.1655A391.70092,391.70092,0,0,1,361.55626,99.681Z" transform="translate(-141.54678 -70.25053)"/><path class="cls-5" d="M362.07323,126.71194c1.82912.73051,1.97106,2.58673,2.59836,4.05793,4.10089,9.61732,12.05269,16.21811,18.844,23.63073,17.26211,18.84121,28.5761,40.80682,36.73889,64.84375a144.90722,144.90722,0,0,1,7.64884,49.79179c-.5057,26.70147-7.44105,51.56644-22.39005,74.05239-8.6317,12.98367-18.56417,24.62384-31.06136,34.01106a16.77154,16.77154,0,0,0-2.28741,2.58906c-5.79049-3.84816-8.30217-9.64017-9.44279-16.1771a50.24469,50.24469,0,0,1-.97779-5.36161c.09541-4.25269-.86687-8.41591-1.05952-12.64492,1.28021-5.43063,1-10.95155.943-16.45849a21.47451,21.47451,0,0,1,.3918-5.16517c.75572-4.442,1.47827-8.88491.7505-13.41694-.65082-14.94146-.2772-29.87968-.1532-44.81858q.11373-13.69787-.02941-27.39691a34.9172,34.9172,0,0,1-.029-5.67155c.2643-15.02168.13251-30.045.092-45.06839a18.07161,18.07161,0,0,0-.73158-4.87848c-.892-8.76708-.55056-17.56866-.33831-26.33808.2087-8.624-1.23293-17.19517-.45982-25.8109C361.23781,129.17327,361.1002,127.80292,362.07323,126.71194Z" transform="translate(-141.54678 -70.25053)"/><path class="cls-6" d="M354.90369,379.87227c-10.08284-6.92046-18.4431-15.64693-26.19821-25.00505C315.747,339.23,306.02629,321.83853,300.364,302.27637a139.14568,139.14568,0,0,1-3.79229-59.134c1.92289-13.48214,4.715-26.62718,9.50672-39.3551,5.02061,1.661,7.27907,4.96292,6.22418,10.31586a6.10993,6.10993,0,0,0,1.04106,4.25873c4.48,7.89086,9.49979,15.59286,8.14912,25.40368-.33923,2.46436,1.03585,4.4912,2.93714,6.04929,2.7634,2.26463,3.88285,5.17128,4.07977,8.7268a34.21808,34.21808,0,0,0,6.51353,19.07113c1.01214,1.35564,2.078,3.049,1.66659,4.59417-1.97479,7.41616,3.77045,12.24665,5.76049,18.31718,1.94053,5.91937,4.76242,11.57215,5.59448,17.835.10875.81848-.17538,1.85418.38,2.42134,4.48644,4.58111,4.92535,10.80609,6.405,16.47349,1.39995,5.362,3.52593,10.65695,3.42475,16.34345a19.05587,19.05587,0,0,0,1.02349,5.84382C361.51907,367.00663,359.82432,373.80278,354.90369,379.87227Z" transform="translate(-141.54678 -70.25053)"/><path class="cls-7" d="M354.90369,379.87227c.75865-3.89673,3.43943-7.16224,3.667-11.24143.08275-1.48276.93156-3.27289.368-4.38322-3.00414-5.91845-1.40563-12.63772-3.78754-18.92806a53.08252,53.08252,0,0,1-3.10638-12.84782c-.13129-1.31058.1056-3.07014-.63794-3.84041-4.84676-5.02092-3.70549-12.4-7.284-17.87216a5.34341,5.34341,0,0,1-.92457-2.2977c-.63733-7.03778-4.2461-12.7555-8.18408-18.27772-1.23479-1.73155-.683-3.142-.02438-4.64291a6.3498,6.3498,0,0,0-.79642-7.01676c-5.18767-5.93117-6.68815-13.10919-7.01451-20.55186-.141-3.216-1.20467-5.54865-3.63921-7.169-2.87517-1.91349-3.50441-4.4508-3.54811-7.678-.07606-5.61541,1.65762-11.86513-4.48125-15.80125,1.17724-6.0236-7.81907-9.3544-4.18541-16.32942.78477-1.50634-.59632-4.889-3.63692-4.92145-2.1359-.02285-1.41463-1.30389-1.60945-2.28635,4.64251-13.21982,10.54135-25.79686,18.98265-37.072.7021.89562,1.82891,1.19912,2.44235.43238.33984-.42481-1.42378-.57389-1.60053-1.52446a3.671,3.671,0,0,1,2.14462-2.91828c5.76016.20306,5.90094.308,5.57757,5.9659a9.00505,9.00505,0,0,0,1.22024,5.72934c.36467.5551.97552,1.201.87,1.75959-1.408,7.4536,4.11532,12.54271,6.32255,18.7513,1.33746,3.76211,2.85155,7.45775,1.96869,11.61588a4.96939,4.96939,0,0,0,1.065,3.75308c5.89258,8.77306,7.80128,19.3353,12.28506,28.46894,4.42066,9.005,3.79163,17.74447,4.94125,26.69522.05917.4607-.30423,1.39806.56069,1.4073-1.35723-2.50905-.67367-5.338-.88042-8.019-.43318-5.61715.021-11.256-.19113-16.88787-.06-1.5937-.4426-3.86043,2.22511-4.25172l.04394,73.99205c-.91877,3.9519.00851,8.05746-.99911,12.002q-.01291,2.49489-.02575,4.98982a155.37554,155.37554,0,0,0-.98334,17.00086c.37871,4.324,1.47525,8.59276.99737,12.98251-2.08335,6.94023-2.09263,14.32057-4.48952,21.19088-.49228,1.411.02191,3.51906-2.38749,3.71537A5.57292,5.57292,0,0,1,354.90369,379.87227Z" transform="translate(-141.54678 -70.25053)"/><path class="cls-8" d="M364.01207,237.69239c-1.88121,2.36965-.86382,5.13528-.91425,7.69849-.152,7.7239-.0548,15.45275-.48362,23.19765-1.07518-5.73523-3.48845-11.25645-1.722-17.33146.815-2.80279-.82257-5.14562-2.84776-7.05243-2.20006-2.07148-3.46649-4.59235-2.94373-7.58105.68142-3.89588-2.12464-6.56976-3.35921-9.66836-2.21251-5.5532-3.35652-11.79065-8.07155-16.14107-1.00848-.93055-1.83914-2.04039-1.52453-3.49749,1.76267-8.16348-1.50888-14.69108-6.60992-20.6444-.324-.37823-.98428-.89223-.89863-1.13566,2.22981-6.3375-3.40546-11.63125-2.36007-17.68881.47349-2.74381,1.36907-4.82906-2.82979-3.53984-1.10441.33911-1.21334-.81107-1.39943-1.60358a102.15343,102.15343,0,0,1,18.06017-21.04549c5.90305-5.28155,12.39394-10.09785,14.15582-18.58107,1.877.90916,1.534,2.40308,1.80947,3.634.321,5.85312.84894,11.70363.92033,17.55971.15616,12.80041.08037,25.60366.09935,38.40575.9614,9.23284.21444,18.49567.48474,27.741.21719,7.42788-.61121,14.87647.43669,22.28854Z" transform="translate(-141.54678 -70.25053)"/><path class="cls-9" d="M356.16817,383.56586c1.32055-6.0679,3.4916-11.92789,4.00737-18.20706.19405-2.3626-.35827-5.46175,2.8697-6.69895.72536,8.01316,4.06547,14.89292,9.11885,21.02941-4.50722,6.23016-3.96325,13.455-4.04353,20.55648q-.05322,4.708-.09639,9.41633a1.7361,1.7361,0,0,1-1.95077-1.76487c-.6608-5.84833-1.02346-11.70131.17782-16.76323a31.60963,31.60963,0,0,0-3.81048,18.58906c.14356,1.76506.11955,3.67565-1.444,5.04338-1.86092-2.143-.89943-4.71842-.93327-7.07187A79.5314,79.5314,0,0,0,356.16817,383.56586Z" transform="translate(-141.54678 -70.25053)"/><path class="cls-10" d="M360.99674,414.76641a50.04275,50.04275,0,0,0,.03731-7.44814c-.99-7.12447,1.53274-13.0608,5.71406-18.75151,1.14679,7.12318-1.002,14.24661,1.27609,21.09537a4.06306,4.06306,0,0,1,.13392.95564c-.21035,2.16841,1.37447,5.19861-.68707,6.29942C365.47994,417.98041,362.97324,416.16464,360.99674,414.76641Z" transform="translate(-141.54678 -70.25053)"/><path class="cls-8" d="M325.90293,165.62269a4.15988,4.15988,0,0,1,3.33318,1.83285c-1.24122-1.65-3.35121,4.69758-4.17507-.74077Z" transform="translate(-141.54678 -70.25053)"/><path class="cls-7" d="M364.01418,232.70684c-1.345-1.16259-.95212-2.74668-.95286-4.195q-.01163-22.917.031-45.83432c1.31739,1.18191.93547,2.76489.9366,4.22116Q364.04652,209.80279,364.01418,232.70684Z" transform="translate(-141.54678 -70.25053)"/><path class="cls-6" d="M362.04781,345.6771c-1.582-5.77745-.00613-11.37218.98355-17.00086C363.01693,334.36134,363.42728,340.071,362.04781,345.6771Z" transform="translate(-141.54678 -70.25053)"/><path class="cls-6" d="M363.0569,323.68642c.36114-3.99831-.91444-8.13286.99905-12.002A24.06406,24.06406,0,0,1,363.0569,323.68642Z" transform="translate(-141.54678 -70.25053)"/></g></svg>