<svg id="Layer_1" data-name="Layer 1" xmlns="http://www.w3.org/2000/svg" viewBox="0 0 242.95994 175.50177"><defs><style>.cls-1{fill:#7eaec6;}.cls-2{fill:#9bbfcf;}.cls-3{fill:#373a45;}.cls-4{fill:#6dadca;}.cls-5{fill:#62a8c8;}.cls-6{fill:#74a7c0;}.cls-7{fill:#8cb4c7;}.cls-8{fill:#76afca;}.cls-9{fill:#69a9c8;}.cls-10{fill:#99bed0;}.cls-11{fill:#75abc5;}.cls-12{fill:#86b0c4;}.cls-13{fill:#6ba2bd;}.cls-14{fill:#8db5c8;}.cls-15{fill:#94bacc;}.cls-16{fill:#96bbcd;}.cls-17{fill:#7fabc0;}.cls-18{fill:#81b8d1;}.cls-19{fill:#79acc6;}.cls-20{fill:#7fa8be;}.cls-21{fill:#7ca8be;}.cls-22{fill:#5492b2;}.cls-23{fill:#95bdd2;}.cls-24{fill:#9ec1d1;}.cls-25{fill:#97bccd;}.cls-26{fill:#9fc2d3;}.cls-27{fill:#a1c3d3;}.cls-28{fill:#9bc0d0;}.cls-29{fill:#97bcce;}.cls-30{fill:#73a2b9;}.cls-31{fill:#6798b2;}.cls-32{fill:#6b9bb5;}.cls-33{fill:#80abc0;}.cls-34{fill:#6b9cb5;}.cls-35{fill:#6597b1;}.cls-36{fill:#6b9bb4;}.cls-37{fill:#6094ae;}.cls-38{fill:#d1ebf5;}.cls-39{fill:#b9d7e7;}.cls-40{fill:#cce9f5;}.cls-41{fill:#c0e4f3;}.cls-42{fill:#b6dbea;}.cls-43{fill:#55c1ec;}.cls-44{fill:#72cbee;}.cls-45{fill:#a8daef;}.cls-46{fill:#7bcdee;}.cls-47{fill:#83cfee;}.cls-48{fill:#9dd7ee;}.cls-49{fill:#95d5ee;}.cls-50{fill:#6dc9ed;}.cls-51{fill:#a5daef;}.cls-52{fill:#55c1eb;}.cls-53{fill:#a4d9ef;}.cls-54{fill:#8dd2ee;}.cls-55{fill:#a8d9ed;}.cls-56{fill:#72c9eb;}.cls-57{fill:#86d1ef;}.cls-58{fill:#8dd1ed;}.cls-59{fill:#56c1ec;}.cls-60{fill:#6dc9ee;}.cls-61{fill:#90d3ee;}.cls-62{fill:#8ed4ef;}.cls-63{fill:#6ac8ee;}.cls-64{fill:#f6f6f6;}.cls-65{fill:#9cdbf4;}.cls-66{fill:#86bad2;}.cls-67{fill:#aadff4;}.cls-68{fill:#aee0f4;}.cls-69{fill:#b1e1f4;}.cls-70{fill:#5aa0c2;}.cls-71{fill:#569dbf;}.cls-72{fill:#5a9fc0;}.cls-73{fill:#95bed4;}.cls-74{fill:#d0ebf5;}.cls-75{fill:#cbe9f5;}.cls-76{fill:#bbe1f0;}.cls-77{fill:#c3e5f3;}.cls-78{fill:#dcf1f6;}.cls-79{fill:#dbf0f5;}.cls-80{fill:#8fbfd5;}.cls-81{fill:#b2e1f4;}.cls-82{fill:#b5e1f4;}.cls-83{fill:#b9e3f4;}.cls-84{fill:#bce3f3;}.cls-85{fill:#bce4f4;}.cls-86{fill:#5b9aba;}.cls-87{fill:#5996b6;}.cls-88{fill:#d6edf3;}.cls-89{fill:#d6edf5;}.cls-90{fill:#def1f8;}.cls-91{fill:#b8e3f4;}.cls-92{fill:#8cbbd2;}.cls-93{fill:#b5e2f4;}.cls-94{fill:#bde4f4;}.cls-95{fill:#bae3f3;}.cls-96{fill:#5893b1;}.cls-97{fill:#c0e6f4;}.cls-98{fill:#dbf0f6;}.cls-99{fill:#c0e6f5;}.cls-100{fill:#dbf0f9;}.cls-101{fill:#c9e9f3;}.cls-102{fill:#b5e2f0;}.cls-103{fill:#daf0f6;}.cls-104{fill:#91bcce;}.cls-105{fill:#9abfd0;}.cls-106{fill:#93bacc;}.cls-107{fill:#393d49;}.cls-108{fill:#3a3d48;}.cls-109{fill:#7fbbd6;}.cls-110{fill:#d1edf9;}.cls-111{fill:#65a2bf;}.cls-112{fill:#9dc3d3;}.cls-113{fill:#95bdcf;}.cls-114{fill:#84bdd1;}.cls-115{fill:#8eb6c9;}.cls-116{fill:#93bed0;}.cls-117{fill:#b4d1de;}.cls-118{fill:#cae9f3;}.cls-119{fill:#a6c7d6;}.cls-120{fill:#a5cadc;}.cls-121{fill:#98c6d7;}.cls-122{fill:#92bacd;}.cls-123{fill:#fcfcfd;}.cls-124{fill:#b7e3f0;}.cls-125{fill:#7ac2d7;}.cls-126{fill:#72b6cc;}.cls-127{fill:#5dacc4;}.cls-128{fill:#a2d3e2;}.cls-129{fill:#99d4e5;}.cls-130{fill:#c4dfeb;}.cls-131{fill:#cee5ee;}.cls-132{fill:#c7e3ed;}.cls-133{fill:#b8deea;}.cls-134{fill:#d6eaf2;}.cls-135{fill:#c7e5f1;}.cls-136{fill:#93c5d6;}.cls-137{fill:#c1ddea;}.cls-138{fill:#cae1eb;}.cls-139{fill:#cfe5ef;}.cls-140{fill:#bfdfed;}.cls-141{fill:#b9dbe7;}.cls-142{fill:#94c1d1;}.cls-143{fill:#88cddf;}.cls-144{fill:#43606f;}.cls-145{fill:#4f6673;}.cls-146{fill:#4e6472;}.cls-147{fill:#8ca4ae;}.cls-148{fill:#92a7b1;}.cls-149{fill:#96a8b0;}.cls-150{fill:#87bccf;}.cls-151{fill:#a7d7e7;}.cls-152{fill:#afdcea;}.cls-153{fill:#b9dce7;}.cls-154{fill:#4a616e;}.cls-155{fill:#486370;}.cls-156{fill:#4b626f;}.cls-157{fill:#ccdfe5;}.cls-158{fill:#496371;}</style></defs><g id="IEX5zu.tif"><path class="cls-1" d="M589.37285,271.97534q1.02492,1.96672,2.04986,3.93346v5.95975c-4.89241,6.84315-12.41777,7.78829-19.89219,8.84755a24.22448,24.22448,0,0,1,.40832-5.04354,4.93968,4.93968,0,0,1-4.611.95256c-1.67533-.469-3.47431-.38137-5.08874-1.12535-1.17055-3.15219-1.17055-3.15219,4.12572-4.63389,1.59036-.67847,4.18071.695,4.65635-2.27964.8321-1.83151,2.65695-1.04239,4.0052-1.52954a4.75135,4.75135,0,0,1,3.2844.38308c1.01916.87632,1.678,2.79344,3.47509,1.64643.94363-.60227-.1342-1.36394-.46487-2.01819-.29579-1.73522.9419-2.8019,1.76307-4.05267.63117-1.06307,2.05225,1.76121,2.73386-.6972C586.1661,271.06242,588.08381,271.38628,589.37285,271.97534Z" transform="translate(-348.46277 -212.33815)"/><path class="cls-2" d="M483.9497,212.33815l.98519,1.07528c-.22143,2.37687-2.27672,2.71031-3.908,3.10184-7.9785,1.91492-15.9419,1.98858-23.77037-.83093-1.06426-.38331-2.22683-.79328-2.15917-2.2934l.989-1.05279Z" transform="translate(-348.46277 -212.33815)"/><path class="cls-3" d="M410.6522,382.87964c-4.57719,4.56563-17.54725,6.46989-22.88158,3.60775-3.77386-2.02485-5.76464-7.46319-2.86533-10.58055,3.36093-3.61372,2.76406-7.46769,2.77885-11.46245.01651-4.46215.59654-8.64982-3.66148-12.46142-4.07254-3.64554-1.13424-10.75985,4.54051-11.83553,3.85169-.73011,7.91814-.47474,11.88439-.40918,2.66759.04409,2.6238,3.16175,5.04924,4.60539,3.15443-5.8348,9.06873-4.97583,14.52325-4.57856a151.00018,151.00018,0,0,0,17.75212-.19412c3.3211-.14773,5.21026.78689,6.32386,3.97421,1.01495,2.90492,2.54177,5.63165,4.2159,9.24091.93039-2.08366,1.49119-3.34688,2.05784-4.60747,4.01033-8.92153,6.82827-10.45808,16.61961-8.12841a21.70852,21.70852,0,0,0,8.38263.02495c5.87207-.78071,11.90775-.29851,17.874-.4279,2.58822-.05611,2.752,2.09,3.40535,3.62428,3.49288,8.20278,6.85586,16.46058,10.29863,24.68482a7.93054,7.93054,0,0,0,3.19743,3.97842c0-5.00423-.0253-10.00866.01451-15.01257.01294-1.62617-1.21332-2.14114-2.22573-2.98612-2.638-2.20175-3.79368-5.07557-2.77589-8.42174a7.53851,7.53851,0,0,1,7.35477-5.68914c7.11656-.20138,14.27257-.75336,21.35039.37719,8.9979,1.43725,14.55835,7.08681,15.2483,15.13811.64729,7.55356-3.99233,14.21029-12.0841,17.3544-.608.23622-1.19024.53853-1.96712.89363,2.49965,2.89982,3.60479,5.97227,1.88356,9.52556-1.89388,3.90961-5.40912,4.46537-9.22143,4.45944-10.10047-.01573-20.201.00219-30.30149-.01129-2.84463-.0038-5.68555-.12028-7.81756-2.40854-.79231-.85035-1.465-1.154-2.3885-.14322-2.53475,2.77415-5.941,2.55382-9.25854,2.55958-6.62447.01152-13.24991-.06581-19.87311.02586-3.77108.05218-7.18528-.55236-9.657-3.72812a12.68042,12.68042,0,0,1-9.80971,3.7511q-8.9359-.27219-17.88569.00218C416.48634,387.75172,412.4405,387.86932,410.6522,382.87964Z" transform="translate(-348.46277 -212.33815)"/><path class="cls-4" d="M442.22557,322.39253c-12.8281-3.511-23.57967-11.16111-34.99348-17.49118-1.27906-1.638-1.95982-3.37952-.9432-5.417a3.07849,3.07849,0,0,1,1.19077-.5128c2.20951.04135,4.12955,1.16591,6.22315,1.6612,1.8037,1.9428,4.20672,2.07777,6.618,2.18525.09268,3.71136,3.44778,2.89652,5.4835,3.92129,5.22126,5.33939,12.24027,6.9683,18.96965,9.203,1.65975.55116,3.73314.27143,4.72532,2.2388-.17157,2.96063-2.77945,2.78461-4.62975,3.58428A19.56193,19.56193,0,0,0,442.22557,322.39253Z" transform="translate(-348.46277 -212.33815)"/><path class="cls-5" d="M442.22557,322.39253l1.93618-.79387c3.68441-1.192,7.03047-3.38825,11.01379-3.70728a2.91285,2.91285,0,0,1,3.15173,1.92215c-2.10069,2.53307-5.45211,1.11287-7.71853,2.44266-.84726.19855-.06967.789-.37282.2,3.49155-1.28914,7.39312-.95085,10.75981-2.7143,7.49641-1.39358,14.804-.06249,22.64289,1.99034a2.783,2.783,0,0,0-2.36051-.69386,16.53469,16.53469,0,0,1-1.95967.01706c-.91762-.053-1.55792-.39506-1.54108-1.44794,1.43946-1.89637,3.42448-2.17752,5.59655-1.912,3.36947.319,5.91644,2.861,9.09829,3.37453-1.2349-.93591-3.88353-.10535-3.93115-2.87585,3.2364-3.00759,7.40213-2.89151,11.384-3.38826,3.96109,2.65566,3.96109,2.65566-.12377,6.60281A124.776,124.776,0,0,1,442.22557,322.39253Z" transform="translate(-348.46277 -212.33815)"/><path class="cls-6" d="M349.58186,274.87067l.08019-1.90142c2.54936,1.15521,5.05682-1.796,7.61773-.07763a4.82955,4.82955,0,0,1,.19558,2.7136c.14988,1.092-2.02038,1.98093-.25467,3.20246a6.52954,6.52954,0,0,0,4.3424.73207c2.0284-.31451,4.07826-.992,6.00858.34106a20.6748,20.6748,0,0,0,2.38164,1.23525c1.2041.51776,2.52762.68037,3.717,1.2412,2.33122,1.09922,2.27994,2.46352.4743,4.03513a5.52662,5.52662,0,0,0-.38767,1.79328c-.10771,1.229.50044,2.51232-.26607,3.69-7.47149-1.38961-15.42109-1.00592-21.9488-5.896A20.25035,20.25035,0,0,1,349.58186,274.87067Z" transform="translate(-348.46277 -212.33815)"/><path class="cls-7" d="M411.28732,228.1258c-.17893-2.34776,1.92228-2.37217,3.255-3.07556a103.48466,103.48466,0,0,1,29.67993-10.52989c1.83968.96782,3.90014,1.782,3.17368,4.538-1.81871,2.03127-4.49594,1.72319-6.79257,2.431-2.34577.72293-4.73487,1.334-7.12187,1.89981-5.10741,1.2107-8.56486,3.80478-8.736,9.48125-1.99969,1.21984-2.02928-.60192-2.51-1.65778-.42956-.94354-.17064-2.67659-1.92205-2.16193-1.54724.45467-1.49472,1.93756-1.373,3.31172.22621,2.55285,1.96571,4.98489.62714,7.665-3.21908.48527-3.28574-2.2803-3.47369-4.002-.36533-3.34653-1.6659-4.61583-4.95067-3.57207C409.32674,230.94638,409.221,229.49825,411.28732,228.1258Z" transform="translate(-348.46277 -212.33815)"/><path class="cls-8" d="M553.71149,295.16592c-11.4741,4.163-21.84462,10.62317-32.86489,15.73085-1.03945-1.08075-.57637-2.09979.33633-2.84051,1.18069-.95818,1.19-2.12094,1.00165-3.41149a2.52014,2.52014,0,0,1,2.16577-2.2673c1.35768.46349,2.87,1.28447,2.95059-1.26493.97573-1.74419,2.78907-2.0816,4.45016-2.67556,1.61958-.59994,2.79772-2.22754,4.75149-2.0597,1.11844.38147,2.53942,1.65364,2.6458-.91651.76463-1.65,3.09644-2.33769,2.81005-4.62441a2.822,2.822,0,0,1,.56533-1.17788,1.93194,1.93194,0,0,1,1.29-.13521c1.64629.86253,3.69508,3.34029,4.02339-1.017.32395-1.222.71389-2.33366,2.3058-1.28275.99658,1.0093,1.60207,2.30744,2.52,3.37864C553.64421,291.978,554.91339,293.29347,553.71149,295.16592Z" transform="translate(-348.46277 -212.33815)"/><path class="cls-9" d="M522.70288,304.46075c3.75134,3.40117-2.53022,3.91789-1.85646,6.43511a71.354,71.354,0,0,1-21.04494,10.51308c-.52256-.73236-2.34624-1.52042.248-1.992,3.04962-.55432,1.97507-2.20208.818-3.7739-.16039-2.381,2.03093-2.2472,3.31784-2.986,3.13409-1.79915,6.806-2.74169,9.10479-5.8372,2.20809-.88089,4.69571-1.23316,6.29476-3.29239A2.75538,2.75538,0,0,1,522.70288,304.46075Z" transform="translate(-348.46277 -212.33815)"/><path class="cls-10" d="M356.72041,273.04972c-2.38031,2.36843-4.73126,2.17692-7.05844-.08056,3.67587-6.2349,7.73913-12.08125,14.9101-14.81052.94984.85476-.043,2.33212,1.02872,3.15506a3.55259,3.55259,0,0,1,.3136,3.73673c-2.26349,1.70708-4.65821,3.28892-5.859,6.03061C359.07881,271.96283,358.28106,273.15389,356.72041,273.04972Z" transform="translate(-348.46277 -212.33815)"/><path class="cls-11" d="M400.39008,301.61207l-16.02775-6.72285c-.01569-.204-.03137-.408-.051-.61205.01552-1.36723-.96482-2.8761.5675-4.03274,1.5398-.3993,3.41277-.26369,3.85161-2.419a6.58647,6.58647,0,0,1,2.4129-3.21608,1.92133,1.92133,0,0,1,1.31226.0447c.97171,1.45566.43207,2.96588.16427,4.46763-.20167.71873-.99563,1.62938.09579,2.08849,1.33373.561,1.49375-.86665,2.031-1.59854a5.54565,5.54565,0,0,1,3.58726-3.18115,1.88542,1.88542,0,0,1,1.30283.45991c.72965,1.476.04736,2.71884-.64915,3.95942-.39258.79826-1.3979,1.52228-.47911,2.52113.95491,1.03814,2.07926.33032,3.14367.14926a1.33646,1.33646,0,0,1,1.15113.56027,3.07755,3.07755,0,0,1,.25718,1.98787,3.61346,3.61346,0,0,1-.58691,1.17509C400.831,298.24416,401.45379,300.33116,400.39008,301.61207Z" transform="translate(-348.46277 -212.33815)"/><path class="cls-12" d="M455.09735,213.39094c9.943,3.93791,19.88845,4.69159,29.83769.02217,2.06172-.06362,4.19206-.48421,5.9307,1.135-.27376,3.1225-2.703,3.81637-5.11894,4.53705a289.4863,289.4863,0,0,0-32.4484.1527c-2.62732-.81129-5.39627-1.45262-6.12484-4.72373C449.61577,212.74071,452.403,213.392,455.09735,213.39094Z" transform="translate(-348.46277 -212.33815)"/><path class="cls-13" d="M553.71149,295.16592c.09507-1.776-1.214-2.85889-2.065-4.16788.57143-1.161,1.7431-1.41811,2.79319-1.86339a13.83413,13.83413,0,0,1,1.97742-.52255,6.93841,6.93841,0,0,0,4.954-2.96852,1.66508,1.66508,0,0,1,1.26176-.05149c1.56171,1.96379,3.29919.73206,4.99558.26417,1.80091.052,3.62394.15167,4.48778-2.14029-.08235,2.41973,1.92358,4.86868-.58577,7.00025Q562.621,292.941,553.71149,295.16592Z" transform="translate(-348.46277 -212.33815)"/><path class="cls-14" d="M411.28732,228.1258c-.73381,1.32411-1.03826,2.64659.01517,3.96389.3739,3.6223,2.49992,7.02426,1.37138,10.83348-2.14594,1.00593-2.43994-.89275-3.0382-2.059-.74112-1.44473-.81874-3.14262-1.42493-4.85207-3.5551,1.29444-1.9036,5.0011-3.55455,7.02189-2.72254-.49575-3.95043-4.1717-7.27448-3.40237-1.899-1.47115-1.47146-2.93707.01011-4.39922C401.7686,232.36668,405.5292,228.30056,411.28732,228.1258Z" transform="translate(-348.46277 -212.33815)"/><path class="cls-15" d="M397.39182,235.23243c.11847,1.192-1.14092,2.36229-.05649,3.56953a2.7904,2.7904,0,0,1,.64992,2.8563c-2.38746,2.50835-5.95966,3.40488-8.25882,6.04168-2.44354.925-4.2667,3.606-7.39184,2.63082a4.81779,4.81779,0,0,1-.79472-4.95431C386.62529,241.686,391.58035,237.79249,397.39182,235.23243Z" transform="translate(-348.46277 -212.33815)"/><path class="cls-16" d="M381.53987,245.37645a6.94606,6.94606,0,0,1,.88086,4.5908,1.15543,1.15543,0,0,1,.37148,1.216c-2.71231,1.973-3.49414,4.97175-4.25105,7.986-1.43746.23642-1.90721-.78719-2.40594-1.80948-.31252-.64061-.3415-.62473-1.5402.2027a4.84646,4.84646,0,0,1-3.10732,1.01922c-2.98342-1.36615-1.57373-3.51282-.98048-5.5152A70.10473,70.10473,0,0,1,381.53987,245.37645Z" transform="translate(-348.46277 -212.33815)"/><path class="cls-17" d="M370.50722,253.06646c1.44881,1.41127-1.22092,3.80034,1.18757,4.98377a3.11315,3.11315,0,0,1,.4305,3.4215c-2.54729,1.1076-4.933-.97879-7.45859-.39178-1.26279-.93424.203-1.95668-.09472-2.92171A13.94906,13.94906,0,0,1,370.50722,253.06646Z" transform="translate(-348.46277 -212.33815)"/><path class="cls-18" d="M406.35669,299.805q.43809,2.54733.8758,5.09548a14.65536,14.65536,0,0,1-5.91508-3.00248c-.0365-1.718-.71028-3.53516.78365-5.01484l.293-.12519c1.92879-.65159,3.14263.39513,4.221,1.76734A1.21746,1.21746,0,0,1,406.35669,299.805Z" transform="translate(-348.46277 -212.33815)"/><path class="cls-19" d="M373.4909,291.87571a6.99052,6.99052,0,0,1-.96025-4.12366c1.64807-1.276,3.19593-.56125,4.74411.22751a5.92413,5.92413,0,0,1,1.58194,1.39106c.73152,1.351,2.07963,2.48381,1.5801,4.29017A14.79684,14.79684,0,0,1,373.4909,291.87571Z" transform="translate(-348.46277 -212.33815)"/><path class="cls-11" d="M380.4368,293.66079c-.64632-1.29065-2.10717-2.166-1.97282-3.85469a.77417.77417,0,0,1,.07273-1.278c1.884-.73806,3.49263-.06294,5.03087.97582a19.108,19.108,0,0,1,.99256,5.017l-.19772.36815A5.94069,5.94069,0,0,1,380.4368,293.66079Z" transform="translate(-348.46277 -212.33815)"/><path class="cls-20" d="M349.58186,274.87067a39.49349,39.49349,0,0,1,1.96032,11.10878C348.16053,282.75631,347.65392,279.0275,349.58186,274.87067Z" transform="translate(-348.46277 -212.33815)"/><path class="cls-21" d="M447.17356,214.51416l4.91131,3.59737c-1.63431,1.69977-3.2905,1.491-4.96073.05665q-1.45116-1.82429-2.9021-3.6482Q445.698,214.51745,447.17356,214.51416Z" transform="translate(-348.46277 -212.33815)"/><path class="cls-22" d="M402.10106,296.8832c-.46807,1.63913,1.05915,3.58891-.78358,5.01443a3.00476,3.00476,0,0,1-.92737-.2855C400.27928,299.79023,398.23686,297.27208,402.10106,296.8832Z" transform="translate(-348.46277 -212.33815)"/><path class="cls-23" d="M562.47405,285.90114q-.45077-.052-.90444-.06c-1.61481,1.30509-3.94963,1.70527-4.88088,3.86942l-2.06082.125c-1.13981-1.84451-3.31053-1.01876-4.83739-1.86072-1.51376-1.1834-.9805.35028-1.19232.895-1.4567,1.41671-3.04806,2.121-4.99563.94084q-.44768.04695-.89732.06753a3.21594,3.21594,0,0,1-2.54947-2.31044c-.19557-2.217,1.52167-2.69093,3.06212-3.26507a16.05691,16.05691,0,0,1,4.78623-1.24149c4.76236-.19549,5.07715-3.21512,6.42907-7.0454,1.76832-5.01-1.03156-6.04369-3.76351-8.00852-1.475-1.06085-2.9279-2.15289-4.43586-3.16846-4.5715-3.1342-9.16232-6.23742-13.98094-8.9904-2.72629-2.54264-6.88777-3.12236-8.98928-6.52672a3.76123,3.76123,0,0,1,2.20528-3.52224,3.22834,3.22834,0,0,1,1.42036-.1397c3.47229,1.99734,5.40308.67737,6.49669-2.86754a32.85981,32.85981,0,0,0,1.57841-6.65347c.44509-1.62773-2.157-3.76339.81129-4.97546l6.92978,4.11146c1.10453,1.93069.82352,3.89928.1623,5.88059-1.64436,1.13879-3.61893-1.87493-4.86685.07813a18.97045,18.97045,0,0,0-2.76736,7.18392c-.46706,3.06025,2.64759,2.60968,4.34451,3.50737a18.26953,18.26953,0,0,0,5.42822,4.53564c1.71917,1.41144,3.81371,2.14175,5.75434,3.15265,2.3,2.8341,4.73068,3.99733,7.67067.75625a1.99908,1.99908,0,0,1,2.27178-.46306,2.57769,2.57769,0,0,1-.04866,2.73939c-.5073,1.17248-2.661,2.258-.78463,3.64861,1.5317,1.13517,2.60431-.59051,3.74017-1.4041.91591-.656,1.76892-1.49316,3.06157-1.00882a2.13255,2.13255,0,0,1-.10758,2.75231c-2.49682,2.78658-.59959,3.93625,1.73392,4.97682.84895,2.60013,3.82334,1.62391,5.323,3.13237-1.35451,1.54126,1.84426,1.8807.88429,3.3213-.786,1.04069-2.41414-.895-3.00185.8463-2.31783,1.35337-4.277.92279-6.01614-1.08964-.52269-.60481-1.4549-1.19132-2.07517-.3205-.75363,1.058.01388,1.71893,1.05575,2.13366,1.20345.47906,3.15654-.04824,3.09707,2.20639-1.53559.3704-3.08661.68777-4.60226,1.12679-1.39234.4033-1.26753,1.15218-.29345,1.969A.64748.64748,0,0,1,562.47405,285.90114Z" transform="translate(-348.46277 -212.33815)"/><path class="cls-7" d="M493.81926,214.54981a108.41342,108.41342,0,0,1,27.933,9.74253c.43006,2.375-1.24459,3.30016-2.91843,4.22713a1.57856,1.57856,0,0,1-1.59759-1.056c-.4111-2.84412-2.03027-.85067-3.17465-.77265-8.02076-2.6042-16.278-4.465-24.08-7.74147C488.99943,215.52083,492.18508,215.70964,493.81926,214.54981Z" transform="translate(-348.46277 -212.33815)"/><path class="cls-24" d="M558.5532,246.11606a34.45653,34.45653,0,0,1,9.95711,7.07419c.5108,1.976,1.49417,4.03709-.98472,5.47669-2.09315.00042-4.12025-.69923-6.22839-.62814-.86851-2.50223-3.02746-4.16237-4.2336-6.44752C557.48648,249.748,556.0213,247.388,558.5532,246.11606Z" transform="translate(-348.46277 -212.33815)"/><path class="cls-25" d="M550.56911,240.25122a30.59289,30.59289,0,0,1,7.04656,4.83782c-.80907,1.65452.25753,3.9403-1.75018,5.192-2.83754-.79239-5.55616-1.3555-6.79017,2.44885-.19117.58939-1.0337.66077-1.69176.31906-1.31278-2.35117.04748-4.57275.31914-6.8442a4.351,4.351,0,0,1,.61178-1.18393C550.42586,244.0781,549.44143,241.66511,550.56911,240.25122Z" transform="translate(-348.46277 -212.33815)"/><path class="cls-26" d="M589.37285,271.97534c-2.12175-.29434-3.66173,3.09794-6.07517.95517a8.6991,8.6991,0,0,1-4.92919-.86267c-.52928-1.88853,1.17079-2.48715,2.04917-3.56317.972-1.21757,1.067-3.19857,3.05289-3.54148C586.13684,266.71449,587.64374,269.4381,589.37285,271.97534Z" transform="translate(-348.46277 -212.33815)"/><path class="cls-27" d="M583.47055,264.96319c-.74667,1.24565-1.79751,2.36127-1.702,3.96692-2.93354,1.37964-4.39991-.95983-6.209-2.43269.02208-2.36982-.4782-4.91111,2.0475-6.50242A13.10123,13.10123,0,0,1,583.47055,264.96319Z" transform="translate(-348.46277 -212.33815)"/><path class="cls-28" d="M570.69075,255.00253c2.48766.52379,4.22593,2.17143,5.89794,3.91843-.9229,1.70988.28553,4.25889-2.12919,5.38558a6.64339,6.64339,0,0,1-5.8118-4.8419C569.54861,258.07913,567.462,255.32513,570.69075,255.00253Z" transform="translate(-348.46277 -212.33815)"/><path class="cls-29" d="M544.49158,236.42838c1.90976.88061,3.83378,1.74,5.17859,3.46248.06334,1.73907,1.445,3.68108-.78294,5.06744l-.31462.20421c-2.33945.36852-3.60449-1.15176-4.83844-2.73479C543.35215,240.35044,541.93574,238.13754,544.49158,236.42838Z" transform="translate(-348.46277 -212.33815)"/><path class="cls-25" d="M535.77564,231.16329c-.94947,1.90585.34886,3.41529.89516,5.05736-2.23225,1.39544-3.95748.41537-5.55893-1.17236-.9603-2.12608-3.76518-4.11163-.53851-6.58131A13.95555,13.95555,0,0,1,535.77564,231.16329Z" transform="translate(-348.46277 -212.33815)"/><path class="cls-25" d="M522.70126,224.4288c2.4371,1.1044,5.03019,1.91528,7.08,3.74847-1.04448,1.29781-.13809,3.1949-1.36768,4.43863-1.89025.4996-3.1946-.41017-4.31389-1.77622C523.00888,228.84157,521.25147,226.98121,522.70126,224.4288Z" transform="translate(-348.46277 -212.33815)"/><path class="cls-30" d="M522.70126,224.42879q1.02594,2.94534,2.05187,5.89066a1.88971,1.88971,0,0,1-1.14714.5035,6.593,6.593,0,0,1-2.44711-.76306c-.92412-.51368-1.99055-.87474-2.31695-2.05892q1.45519-1.85435,2.91032-3.70867A1.40205,1.40205,0,0,1,522.70126,224.42879Z" transform="translate(-348.46277 -212.33815)"/><path class="cls-31" d="M544.49158,236.42839a4.98535,4.98535,0,0,0,.153,5.616c-.58477.69063-.12808,1.90346-1.1879,2.35783a1.39084,1.39084,0,0,1-1.2248-.52286,2.18512,2.18512,0,0,1,.308-2.63962q.08277-2.98272.16557-5.96522Q543.5985,235.85169,544.49158,236.42839Z" transform="translate(-348.46277 -212.33815)"/><path class="cls-32" d="M574.40465,264.06663c1.481-1.39668.34138-3.90159,2.184-5.14554q.50867.537,1.01779,1.074c-1.45762,1.64.00552,4.41814-2.24713,5.74881a.73867.73867,0,0,1-1.05393-.00142A1.28279,1.28279,0,0,1,574.40465,264.06663Z" transform="translate(-348.46277 -212.33815)"/><path class="cls-33" d="M493.81926,214.54981l-3.9135,3.6346a1.86046,1.86046,0,0,1-2.95686-.06378q1.9589-1.78744,3.91731-3.57369Q492.34227,214.54958,493.81926,214.54981Z" transform="translate(-348.46277 -212.33815)"/><path class="cls-34" d="M528.5348,232.39631c-.43451-1.65649-.33748-3.15652,1.24644-4.219a3.2654,3.2654,0,0,1,.7923.28939c-1.53916,2.287.444,3.87267,1.14126,5.71432a1.57855,1.57855,0,0,1-1.17914.55724C529.28623,234.45374,528.47243,233.79746,528.5348,232.39631Z" transform="translate(-348.46277 -212.33815)"/><path class="cls-35" d="M555.5605,250.11875c1.38193-1.39284.38177-3.75545,2.05516-5.02968q.469.51341.93773,1.02693c-1.36678,1.51924.01927,3.5434-.94592,5.13622a1.58668,1.58668,0,0,1-1.21338.32788C555.7459,251.3041,555.29783,250.9132,555.5605,250.11875Z" transform="translate(-348.46277 -212.33815)"/><path class="cls-36" d="M570.69075,255.00253c-1.9857,1.33151-.796,3.38131-1.15359,5.0811a1.20478,1.20478,0,0,1-1.21532.18552,1.91093,1.91093,0,0,1-.98112-2.22648c1.80853-1.27714.04145-3.41294,1.16971-4.85292A3.34493,3.34493,0,0,1,570.69075,255.00253Z" transform="translate(-348.46277 -212.33815)"/><path class="cls-37" d="M548.88723,244.9583q.39135-2.53243.78281-5.06615a3.719,3.719,0,0,1,.8991.359,24.39536,24.39536,0,0,1,.457,4.10049C550.93428,246.1835,549.91023,245.81805,548.88723,244.9583Z" transform="translate(-348.46277 -212.33815)"/><path class="cls-38" d="M578.37466,271.98155c1.80857-.543,3.51291-.5468,4.92516.949.72784,1.91956-.72123,2.85391-1.79784,3.95668-.682,1.37008-1.59967,2.03841-3.08025,1.03069q-1.95835.07164-3.91665.14473c-.45041-1.01505-2.22479-1.63178-.95994-3.16619C574.54518,272.91827,575.99823,271.68779,578.37466,271.98155Z" transform="translate(-348.46277 -212.33815)"/><path class="cls-39" d="M567.56479,281.84034c-.9565-1.23162-2.36508-1.08311-3.60093-.92971-2.3772.295-1.69374-1.945-2.53051-2.89083-.89381-1.01034.29009-1.70632.96586-2.33719a2.275,2.275,0,0,1,3.441.50172c1.47886,2.03312,3.50551,2.39262,5.66322,2.7259C572.40453,282.85236,569.19529,281.28914,567.56479,281.84034Z" transform="translate(-348.46277 -212.33815)"/><path class="cls-40" d="M578.42173,277.918q1.53994-.51525,3.08006-1.03059c1.15316.23269,2.94842-.33965,2.76609,1.74492-.19527,2.23266-2.01183,2.21743-3.67153,2.18282C578.68112,280.77521,577.25979,280.293,578.42173,277.918Z" transform="translate(-348.46277 -212.33815)"/><path class="cls-41" d="M562.47405,285.90114q.09921-.48269.19433-.96569c1.70455.03316,3.5304-.58939,4.95957.92077-.22845,2.73464-2.58354,1.982-4.06871,2.21085C562.218,288.2737,562.73276,286.7074,562.47405,285.90114Z" transform="translate(-348.46277 -212.33815)"/><path class="cls-42" d="M581.39951,282.14959c-1.33894,1.05993-2.13522,2.85347-4.0067,2.84908-.21922-.00052-.73767-1.15574-.60382-1.63176C577.54464,280.67964,579.7901,282.5802,581.39951,282.14959Z" transform="translate(-348.46277 -212.33815)"/><path class="cls-43" d="M503.89648,374.22951c2.9162,4.53053,6.97125,2.86729,10.88117,1.99337a5.3783,5.3783,0,0,1,7.016-.00259c2.64712.07806,5.309.01205,7.93657.28074,2.0225.20683,3.36112,1.41329,3.15812,3.673a2.9592,2.9592,0,0,1-3.34553,2.93275c-6.3771-.41033-12.722.30754-19.1918-.6112-4.32264-.61383-9.21692.74548-13.89809.69316-2.10346-.02352-4.15474-.23162-4.56123-2.7737-.44723-2.797,1.33856-3.76335,3.77621-4.1275.54131-.08084,1.00182-.70053,1.49955-1.0721C499.11407,372.87158,501.34619,372.46882,503.89648,374.22951Z" transform="translate(-348.46277 -212.33815)"/><path class="cls-44" d="M503.89648,374.22951a16.55773,16.55773,0,0,0-6.72909.986c-.60015-1.83509-1.45027-3.12754-3.79623-3.00719a101.733,101.733,0,0,1-10.83457-.00386c-2.37324-.13177-3.14416,1.25265-3.80919,3.01284-2.52535.80972-4.96641,1.39312-5.86113-2.17508a37.99184,37.99184,0,0,1,4.00354-9.76056c2.03063-1.54088,4.04436-.42453,6.06374.02084a18.93644,18.93644,0,0,0,9.5383.18886c2.14324-.43056,4.15554-1.56053,6.444-1.22786A53.49332,53.49332,0,0,1,503.89648,374.22951Z" transform="translate(-348.46277 -212.33815)"/><path class="cls-43" d="M472.86627,373.04222c1.56065,1.7803,3.96163,1.30463,5.86115,2.17514,1.65067,1.9782,6.69487,1.09811,5.17942,5.63842-1.23847,3.71049-4.74092,2.192-7.31987,2.269-6.10978.18245-12.22881.04133-18.344.06643-2.37181.00973-5.00035.17316-5.45423-2.88689-.45361-3.05825,1.69179-3.98865,4.34115-3.93594,1.54734.0308,1.96818-.869,2.103-2.13483a4.96525,4.96525,0,0,1,6.64329.00009C468.183,377.68378,470.09944,377.35711,472.86627,373.04222Z" transform="translate(-348.46277 -212.33815)"/><path class="cls-45" d="M514.96445,353.37248c.00555-1.67906-1.00194-2.0555-2.4918-2.31869a3.1232,3.1232,0,0,1-2.78048-3.92735c.33281-1.97135,1.71872-2.6798,3.56516-2.67253,6.42572.02527,12.88377-.31287,19.2665.228,4.84877.41086,9.23123,2.468,11.03245,7.70443-1.89959,2.09106-4.32469,2.322-6.9198,1.96076-5.03956-1.9591-10.097-2.49173-15.18914-.15164C519.17275,354.802,516.93651,355.10621,514.96445,353.37248Z" transform="translate(-348.46277 -212.33815)"/><path class="cls-46" d="M543.40906,361.322c-2.15477,5.51227-6.7369,7.39583-12.11877,7.84119-3.12419.25854-6.281.12466-9.42309.16738a7.11,7.11,0,0,1-6.90447-1.05131l-.00068-6.95475c1.9481-1.72722,4.2285-1.31709,6.49262-1.02274a28.2676,28.2676,0,0,0,14.99076-.7212C538.85871,359.78891,541.37709,359.59289,543.40906,361.322Z" transform="translate(-348.46277 -212.33815)"/><path class="cls-47" d="M431.36879,366.29018l.00287-8.94382c3.96862-2.635,8.723-.65629,12.88-2.18559,1.35367,2.54939,2.70732,5.09879,4.09926,7.72028,1.93-.38469,1.41479-2.70987,2.78366-3.49086,2.25928-.52063,4.4835-.83288,6.33621,1.06242q-1.26867,2.91628-2.53736,5.83255a21.10261,21.10261,0,0,1-12.4618-.01142c-1.16976-2.32289-2.33954-4.64578-4.03606-8.01468-.17782,3.3885-.29965,5.70981-.42146,8.03112A4.92362,4.92362,0,0,1,431.36879,366.29018Z" transform="translate(-348.46277 -212.33815)"/><path class="cls-45" d="M480.93517,353.37713c.11215-2.885-2.09345-1.89963-3.47853-1.93652-2.4803-.066-4.32066-.98848-4.41267-3.56135-.099-2.76812,1.8952-3.512,4.34089-3.44637,1.64538.0441,3.29294.00505,4.93953.00489,9.39268-.00087,9.39268-.00071,12.9205,8.87289-1.62369,1.75494-3.9375,1.49632-5.97461,2.05511a9.05637,9.05637,0,0,1-2.4129.019C484.84023,354.84943,482.57986,355.0116,480.93517,353.37713Z" transform="translate(-348.46277 -212.33815)"/><path class="cls-48" d="M444.25162,355.16077c-.295,2.24359-1.95066,2.21446-3.63449,2.20114-3.08168-.02433-6.16364-.01234-9.24547-.01552.36249-3.73115-.51676-6.886-4.09367-8.789a1.03316,1.03316,0,0,1,.00037-1.26536c4.79792-5.10811,11.92911-4.15835,14.64652,1.98353C442.77775,351.2032,443.48028,353.19715,444.25162,355.16077Z" transform="translate(-348.46277 -212.33815)"/><path class="cls-49" d="M403.51962,351.33775c2.9796,3.22763,4.70493,7.27469,7.12585,10.86732-1.4505,2.60155-3.721,2.73851-6.258,2.07437l-4.7267-6.44077-.46,4.46981a4.89581,4.89581,0,0,1-6.63781.00008l-.00132-9.92766C395.94753,349.24107,399.66431,349.56449,403.51962,351.33775Z" transform="translate(-348.46277 -212.33815)"/><path class="cls-50" d="M404.3875,364.27944l6.25768-2.07426c1.66205,2.29277,3.3238,4.58565,5.27256,7.27452l.52752-3.193a4.95949,4.95949,0,0,1,6.637,0q.00242,4.47053.00484,8.941c-3.45877,2.1488-7.16635,1.74764-10.90189,1.0598A75.84652,75.84652,0,0,1,404.3875,364.27944Z" transform="translate(-348.46277 -212.33815)"/><path class="cls-51" d="M427.27836,347.292q-.00027.63249-.00046,1.26518c-1.09424,2.4539-5.55223,2.8398-4.19569,6.80022a4.89773,4.89773,0,0,1-6.63554.00009c.02375-2.41427-.04939-4.53538-3.54616-4.31448-1.80111.1138-3.0262-1.36783-3.08873-3.22706-.04578-1.36136.65108-2.93349,2.03-3.06287,4.563-.4281,9.18464-.88537,13.6959.30965C426.2643,345.25522,426.70532,346.52188,427.27836,347.292Z" transform="translate(-348.46277 -212.33815)"/><path class="cls-52" d="M399.20339,374.23453c.07582,2.52671,2.02831,1.99957,3.56538,2.22261a3.19277,3.19277,0,0,1,3.03852,3.30994,3.25666,3.25666,0,0,1-3.4876,3.38421c-3.12591.04587-6.25327-.00685-9.37922.03762-1.9874.02828-3.6985-.55959-4.34858-2.52179-.71813-2.16761.66687-3.418,2.53173-4.09047,1.20486-.43445,1.21133-1.41046,1.43608-2.34215A4.9637,4.9637,0,0,1,399.20339,374.23453Z" transform="translate(-348.46277 -212.33815)"/><path class="cls-53" d="M453.83221,353.2923c2.22882-8.29626,3.93071-9.57138,11.55708-8.87308,1.5764.14432,3.01066.38556,3.61082,2.02671.63191,1.728.4211,3.34489-1.48246,4.13154-1.87042.77293-1.3148,2.43676-1.64514,3.788C460.86783,356.75221,457.26307,356.43093,453.83221,353.2923Z" transform="translate(-348.46277 -212.33815)"/><path class="cls-43" d="M438.01727,375.22912c.59172,1.4023,1.88726,1.02383,2.97838,1.18438,2.20273.32412,3.84835,1.32657,3.50612,3.82041-.28879,2.10447-1.80179,2.97524-3.90038,2.95091q-4.44993-.05157-8.90087.00227c-1.9992.02584-3.70258-.60186-4.32-2.573-.68332-2.18134.80067-3.28044,2.59288-4.11388a6.274,6.274,0,0,0,1.39186-1.27115A4.9703,4.9703,0,0,1,438.01727,375.22912Z" transform="translate(-348.46277 -212.33815)"/><path class="cls-54" d="M453.83221,353.2923c3.869,1.97279,8.02352.75288,12.0403,1.07317l.0031,8.94264a4.91646,4.91646,0,0,1-6.64333.00009c-.05522-.94656-.07481-1.89716-.18173-2.83787a6.25877,6.25877,0,0,0-.41308-1.2534q-.58415.61777-1.1675,1.2356c-2.08591-.50493-4.46283.71472-6.33543-1.06236A15.91213,15.91213,0,0,1,453.83221,353.2923Z" transform="translate(-348.46277 -212.33815)"/><path class="cls-55" d="M403.51962,351.33775a41.22914,41.22914,0,0,0-10.958,1.04318c-1.60242-1.98884-6.61092-1.10558-5.14736-5.55995,1.297-3.9474,5.016-1.77394,7.64512-2.40723C401.00569,342.98139,400.96222,348.71791,403.51962,351.33775Z" transform="translate(-348.46277 -212.33815)"/><path class="cls-44" d="M399.20339,374.23453q-3.32186,0-6.64371,0,.00165-5.96294.00328-11.92591,3.31893,0,6.63783-.00006Q399.20208,368.27149,399.20339,374.23453Z" transform="translate(-348.46277 -212.33815)"/><path class="cls-56" d="M442.47159,366.27374a30.56462,30.56462,0,0,1,12.46186.01145c-1.656,3.33249-1.18895,8.92242-7.32975,7.67625C443.70462,373.1702,444.06708,368.93417,442.47159,366.27374Z" transform="translate(-348.46277 -212.33815)"/><path class="cls-44" d="M459.23228,363.3082l6.64344-.00009q.00034,5.4628.00072,10.9256-3.32211-.00007-6.64366-.00009Q459.23272,368.77089,459.23228,363.3082Z" transform="translate(-348.46277 -212.33815)"/><path class="cls-57" d="M416.44667,355.35749q3.31784,0,6.6356-.00008.00006,5.46468.00013,10.92935-3.31884,0-6.63728,0Q416.446,360.82209,416.44667,355.35749Z" transform="translate(-348.46277 -212.33815)"/><path class="cls-58" d="M488.7012,354.4889c2.01742-1.29728,4.30532-1.09808,6.54322-1.17821a33.47582,33.47582,0,0,1,3.67136,8.95278,9.008,9.008,0,0,1-5.89629,2.03763A9.20886,9.20886,0,0,1,488.7012,354.4889Z" transform="translate(-348.46277 -212.33815)"/><path class="cls-59" d="M412.18522,376.28754c3.48386-1.89179,7.26686-.71769,10.90191-1.05978a16.38016,16.38016,0,0,1,.12053,3.4103c-.259,1.55158,1.18238,4.06225-1.50028,4.39545-2.23344.27738-4.99039,1.17506-6.58009-1.707C414.18819,379.624,413.16861,377.96572,412.18522,376.28754Z" transform="translate(-348.46277 -212.33815)"/><path class="cls-58" d="M480.93517,353.37713c2.162-.05424,4.32253-.09988,6.25293,1.1267.53454,4.13627-.74214,7.47517-4.32886,9.79715l-5.98941-1.0193A38.79632,38.79632,0,0,1,480.93517,353.37713Z" transform="translate(-348.46277 -212.33815)"/><path class="cls-60" d="M438.01727,375.22912q-3.32648,0-6.6525,0,.00211-4.46946.00367-8.93888,3.32352,0,6.646,0Q438.0155,370.75965,438.01727,375.22912Z" transform="translate(-348.46277 -212.33815)"/><path class="cls-61" d="M543.40906,361.322c-2.35081.00623-4.74269.28457-6.8932-1.03646a16.0852,16.0852,0,0,1,.18681-6.90613l6.85361-.99311C545.32376,355.3947,544.86353,358.36652,543.40906,361.322Z" transform="translate(-348.46277 -212.33815)"/><path class="cls-62" d="M521.59315,361.32575l-6.63112-.00122q.00123-3.976.00242-7.952,3.3136-.00007,6.62721-.00011Q524.88016,357.34846,521.59315,361.32575Z" transform="translate(-348.46277 -212.33815)"/><path class="cls-63" d="M514.96273,368.27929c2.34713.05176,4.76068-.33109,6.90445,1.05131l-.07357,6.88971q-3.508.00126-7.016.00259Q514.87022,372.25108,514.96273,368.27929Z" transform="translate(-348.46277 -212.33815)"/><path class="cls-64" d="M470.16044,365.04105c0-2.92509-.0486-5.85143.02767-8.77454.025-.95775-.46747-2.807,1.49318-2.0965,1.17989.4276,3.76839.26615,2.72623,2.92674-1.06139,2.70971-2.23529,5.37553-3.35992,8.06056Z" transform="translate(-348.46277 -212.33815)"/><path class="cls-65" d="M513.80625,306.71281c.27958,2.25343-1.24227,3.12011-2.94179,3.94243-3.35211,1.62189-6.66681,3.32076-9.997,4.98782-4.01893.8149-8.139,1.24092-11.89076,3.08267a6.906,6.906,0,0,1-4.96932-.02389c-2.12261-.377-4.03122.53189-6.01368.99716-5.461.90477-10.96437.13116-16.44129.41495-1.22013.27861-2.43054.48464-3.4882-.46018l-3.06178-.89383a9.13416,9.13416,0,0,1-5.88741-.13048c-6.68077-2.35383-13.67849-3.8564-19.88688-7.48071-1.83437-1.07087-3.90485-1.83987-4.00467-4.43325a4.70956,4.70956,0,0,1,2.276-4.06707c2.38276-1.33435,4.53446-.08729,6.608.77052a92.28281,92.28281,0,0,0,39.153,6.91518c10.36729-.37673,20.157-3.11354,29.89458-6.31707,2.76613-.91,5.49228-2.45841,8.6084-1.38412C513.344,303.54265,514.42636,304.70472,513.80625,306.71281Z" transform="translate(-348.46277 -212.33815)"/><path class="cls-66" d="M406.35669,299.805l-.02012-1.00921c1.03039-3.57029-2.21868-3.71749-4.02756-5.01667l.06294.04162c-1.42876-.87844-3.95669-.30116-4.00253-3.01111l.94753-3.75753c3.42119-1.09662,6.04683,1.523,9.1473,1.93516,5.524,2.75073,12.02609,3.30424,16.921,7.47652.12158,2.65752-2.16135,2.90857-3.80811,3.79988-2.59005.49582-4.85914-1.03524-7.35338-1.17077-2.43527-2.07025-4.62552-1.15942-6.74971.55891Z" transform="translate(-348.46277 -212.33815)"/><path class="cls-67" d="M427.20566,303.80823l-1.98208,2.90712c-4.07823,1.6559-5.7161.30559-4.95136-4.00442.07106-.2502.14211-.50041.21047-.75245a3.60458,3.60458,0,0,1,3.24728-1.89081C425.49743,300.747,428.52689,300.26881,427.20566,303.80823Z" transform="translate(-348.46277 -212.33815)"/><path class="cls-68" d="M414.25581,298.82989c2.62564-1.93841,4.57711.78892,6.89326.99238.68265,1.28678-.44683,2.011-.91614,2.94012l.03923-.05139c-3.49961,3.40236-5.25688.79238-6.9586-2.00928C412.80732,299.66635,413.41351,299.18891,414.25581,298.82989Z" transform="translate(-348.46277 -212.33815)"/><path class="cls-69" d="M414.25581,298.82989l-.94241,1.87212c-2.28309,1.51535-3.83861-1.00789-5.84035-1.04956C409.93477,295.05873,411.30417,294.89276,414.25581,298.82989Z" transform="translate(-348.46277 -212.33815)"/><path class="cls-70" d="M449.115,318.62946q2.94462.06435,5.88833.1296-5.42193,1.4207-10.84183,2.83961C445.26289,319.69486,447.84,320.24417,449.115,318.62946Z" transform="translate(-348.46277 -212.33815)"/><path class="cls-71" d="M461.06842,319.70942q8.46236-.00582,16.925-.011c2.64681,1.99027,6.6564-.75235,9.28239,3.25818a92.13325,92.13325,0,0,0-26.21323-2.355q-.35258-.2997-.23249-.5963Q460.94959,319.7095,461.06842,319.70942Z" transform="translate(-348.46277 -212.33815)"/><path class="cls-72" d="M460.38279,322.87544h16.506l-.00652.487H460.22244Z" transform="translate(-348.46277 -212.33815)"/><path class="cls-70" d="M461.06842,319.70942q-.00664.4461-.00583.8922a28.60066,28.60066,0,0,1-11.09469,1.89593c2.26215-2.808,5.858-.82388,8.09656-2.84413Q459.56622,319.68177,461.06842,319.70942Z" transform="translate(-348.46277 -212.33815)"/><path class="cls-71" d="M484.0074,318.70184q2.484.011,4.96867.023c.962,1.43187,3.24108.70622,4.15059,2.677C489.631,321.672,486.99328,319.55539,484.0074,318.70184Z" transform="translate(-348.46277 -212.33815)"/><path class="cls-73" d="M391.42091,284.89614l-2.13,2.94718c-1.60809,1.33509-3.07872.63627-4.53366-.29761-1.68061.06842,1.21344-3.28614-1.72348-2.2805-2.34186-.88206-4.48871-.8715-6.17212,1.33277a4.545,4.545,0,0,1-4.243-.648l2.02337-1.73761c-1.24469-1.85318-3.75286-.68805-5.16924-2.17274-.18975-3.57666,4.23783-.90363,4.5506-3.8183-2.13049.94405-4.49,1.54028-6.63319,2.74332-1.92411-1.91489-3.963-.21926-5.94893-.18841-1.24163-1.8366-3.271-1.49378-5.058-1.82144-.55825.16461-1.29192.7548-1.617-.08348-.66134-1.7052,1.4491-1.87336,1.86561-3.0192,2.26958-.99216,4.40109.5151,6.73368.424-.67085-1.76813-3.645-1.972-2.892-4.50229,1.91022-1.10555,3.47644.12285,5.05682.83959a5.383,5.383,0,0,0,5.58467-.2842c5.12423-1.15871,1.1986-4.98183,2.17351-7.35711,3.78353,1.93277,7.62314,1.35289,11.47777.24392,1.44256.40519,2.75908.96217,3.12185,2.63826-.72355,3.00238-3.557,3.60338-5.70068,5.33474,1.92519.28066,2.05114,1.90471,2.14163,3.546.18086,3.2802.85837,6.09364,5.03209,6.26024A2.34608,2.34608,0,0,1,391.42091,284.89614Z" transform="translate(-348.46277 -212.33815)"/><path class="cls-74" d="M360.51957,271.852c.52837,1.83857,2.37316,2.0421,3.66121,2.93721.70116.48726,2.23981.66922,1.3214,1.90515-.51455.69243-1.40988,2.50586-2.58947,1.32948-1.83906-1.834-4.54343-.50218-6.28121-2.17144q.04354-1.40241.08769-2.8035c.95186-.72971,1.39871-2.17539,2.94265-2.06369C360.46306,270.76609,360.76081,271.04335,360.51957,271.852Z" transform="translate(-348.46277 -212.33815)"/><path class="cls-39" d="M367.39016,280.96467c.97306-3.59077,5.04313-2.62494,7.11051-4.72588.48136-.48917,1.77312.7358,2.17577,1.59939.57408,1.23125-.66025,1.541-1.37709,2.15028-1.69754,1.44276-4.35763.04926-5.82625,2.04988Q368.43128,281.50281,367.39016,280.96467Z" transform="translate(-348.46277 -212.33815)"/><path class="cls-75" d="M356.38322,278.95482c2.35334-1.2373,4.7526-2.60161,5.05852,1.82194C359.62569,280.52749,357.18333,282.013,356.38322,278.95482Z" transform="translate(-348.46277 -212.33815)"/><path class="cls-76" d="M372.61862,285.95l4.71235.01036a1.7322,1.7322,0,0,1,.07523,2.76242q-2.438-.4849-4.87576-.97026Q372.57474,286.85079,372.61862,285.95Z" transform="translate(-348.46277 -212.33815)"/><path class="cls-77" d="M358.102,282.26947c1.53568-.54195,2.94875-.808,3.866.82493.12724.22655-.25965,1.04113-.57418,1.16522C359.52744,284.996,358.81912,283.68184,358.102,282.26947Z" transform="translate(-348.46277 -212.33815)"/><path class="cls-78" d="M486.9489,218.12063q1.47846.03249,2.9569.06438c8.363,2.4849,16.859,4.55432,24.93274,7.94427,1.91605.11111,1.79656,1.56959,1.91952,2.873-.47288,2.80289-1.25471,5.53408-2.00475,8.27791a4.24244,4.24244,0,0,1-2.08334,2.41325,4.439,4.439,0,0,1-2.48132.1132c-20.29033-8.88475-41.5301-8.349-62.89516-6.16838-6.6505.67879-12.61053,3.83244-18.81676,6.05669-4.07714-.40087-4.90685-2.8893-4.113-6.41512-1.27963-5.82659.876-9.16671,6.86794-10.49632,5.3744-1.19257,10.60076-3.04988,15.89244-4.61462q2.48048-.02855,4.96083-.05652A161.02241,161.02241,0,0,1,486.9489,218.12063Z" transform="translate(-348.46277 -212.33815)"/><path class="cls-79" d="M424.36373,233.27982c.86717,1.99994,1.21647,4.25084,2.85785,5.87559a1.04035,1.04035,0,0,1,.03478,1.27425,13.33748,13.33748,0,0,1-5.88387,2.28722,2.26787,2.26787,0,0,1-2.03786-2.52265c-.59772-2.53291-1.27573-5.05081-1.75533-7.60581a5.32823,5.32823,0,0,1,.11554-3.32757,4.68238,4.68238,0,0,1,4.52829-2.35263c1.66557.25318.8,2.17934.9625,3.37271C423.33771,231.39782,423.08646,232.62113,424.36373,233.27982Z" transform="translate(-348.46277 -212.33815)"/><path class="cls-79" d="M419.33463,240.19423l1.90216,1.93792a1.05881,1.05881,0,0,1,.0044,1.316c-2.57075,1.35927-5.02255,3.35039-8.20072,1.57171-.58915-.49192-1.0505-1.03689-.736-1.8819.42139-3.75052-3.41615-7.11622-1.00189-11.04755,1.44485-.69,2.88977-1.37931,4.42331-2.11088C417.24126,233.35188,416.39208,237.45783,419.33463,240.19423Z" transform="translate(-348.46277 -212.33815)"/><path class="cls-80" d="M540.64634,287.81451a3.51878,3.51878,0,0,1,2.05835,2.063q-.01106.44666-.021.89193c-1.1463,1.50064-3.17582,2.19664-3.80919,4.17086a2.38773,2.38773,0,0,1-1.26522.37536c-1.24013-.20729-1.9043-1.185-2.70424-1.98638-1.07626-1.44563-3.394-1.90227-3.3933-4.21282C534.34606,287.20714,537.03762,284.29573,540.64634,287.81451Z" transform="translate(-348.46277 -212.33815)"/><path class="cls-68" d="M522.70288,304.46076c-1.13849.41831-1.9492-.47912-2.92215-.72529a2.20533,2.20533,0,0,1-1.51749-2.1138c.596-3.93014,2.84284-5.24966,6.61586-4.15386a4.33484,4.33484,0,0,1,.84774,1.18956c.29973,1.52244,1.65822,3.27672-.89158,4.19523Z" transform="translate(-348.46277 -212.33815)"/><path class="cls-81" d="M524.77945,298.84323l-.03151-1.08481c2.39647-3.44328,3.65649-3.60808,7.31015-.96225a3.37655,3.37655,0,0,1,.63838,2.88971,5.77571,5.77571,0,0,0-4.9634,2.04C525.555,301.98347,525.97441,299.58932,524.77945,298.84323Z" transform="translate(-348.46277 -212.33815)"/><path class="cls-82" d="M532.69647,299.68588l-.98009-1.86183c-.97437-3.48784.03374-5.41347,3.97594-5.027l1.96721,1.98308c.78975,1.14854.55507,1.87983-.86935,2.1265C534.93389,297.11145,534.017,298.69481,532.69647,299.68588Z" transform="translate(-348.46277 -212.33815)"/><path class="cls-83" d="M538.59745,294.85747c-1.69152-4.40363,2.45884-2.98886,4.08607-4.08767,2.47638,3.71966-1.92319,3.44593-2.981,5.11326C538.86481,296.04507,538.39013,295.81733,538.59745,294.85747Z" transform="translate(-348.46277 -212.33815)"/><path class="cls-84" d="M549.79052,287.97485c5.41515-1.82468,5.41515-1.82468,4.83722,1.86061-.68516,1.17678-1.9578.84987-2.98133,1.16155A5.45763,5.45763,0,0,1,549.79052,287.97485Z" transform="translate(-348.46277 -212.33815)"/><path class="cls-85" d="M543.60257,289.81067q2.49805-.47075,4.99587-.94117c1.41653,1.83191.60482,2.87482-1.25433,3.56543C544.81218,293.37547,544.4325,291.27748,543.60257,289.81067Z" transform="translate(-348.46277 -212.33815)"/><path class="cls-86" d="M524.77945,298.84323q1.47682,1.44138,2.95364,2.88274c.62936,1.08947.8046,2.55557-.22019,3.05882-1.48752.73048-1.98481-.96839-2.67808-1.93275C526.59622,301.49146,524.62338,300.18211,524.77945,298.84323Z" transform="translate(-348.46277 -212.33815)"/><path class="cls-87" d="M538.59745,294.85747q.55235.51222,1.10488,1.025c.64707,1.08757.68945,2.54471-.28886,2.98892-1.45465.66048-1.93052-1.02383-2.62378-1.96533a2.12787,2.12787,0,0,0,.87-2.12591A5.70249,5.70249,0,0,1,538.59745,294.85747Z" transform="translate(-348.46277 -212.33815)"/><path class="cls-67" d="M518.78235,301.80414l.99834,1.93125c-.84911,3.27651-2.73927,4.47152-5.97446,2.97733q-.95361-1.487-1.90724-2.97422C513.45653,299.41661,515.33809,298.88786,518.78235,301.80414Z" transform="translate(-348.46277 -212.33815)"/><path class="cls-88" d="M373.47624,264.94506c.162.62387.12,1.46227.51732,1.83874,4.40235,4.17129,1.07115,5.21786-2.45882,6.21322-3.36342-1.64615-5.79086-3.99144-5.99551-7.99706q-.43767-1.96075-.87393-3.92075c2.55973-2.05373,4.84548-1.94143,6.794.85208C372.90057,262.42312,373.98425,263.15342,373.47624,264.94506Z" transform="translate(-348.46277 -212.33815)"/><path class="cls-89" d="M365.53923,265q2.99733,3.99777,5.99509,7.9963c-1.44043,2.4279-3.38773,2.1411-5.564,1.12381-1.78072-.8324-3.63081-1.51694-5.45046-2.26755q-.42988-.43452-.85859-.86766C360.11057,267.5124,361.97579,265.42543,365.53923,265Z" transform="translate(-348.46277 -212.33815)"/><path class="cls-90" d="M391.42091,284.89614c-7.541.0077-7.92407-6.89241-9.99421-12.39839l5.98929-4.54353c1.04915-2.13386,2.84162-2.76536,5.07846-2.5104,8.70973.02648,17.41771-.01962,26.1255.01992,2.12527.00965,4.28976-.14344,6.27829.88642,1.37307.95621,1.52126,2.43434,1.67273,3.90942a38.08484,38.08484,0,0,0,3.70869,12.7777c.92271,1.90984,2.14515,3.78427,1.46745,6.1024-1.1516,2.04208-3.1945,2.09031-5.12637,2.15075-6.17108.193-12.35524.41017-18.36941-1.44237-3.18311-.28035-5.99258-1.74926-8.93423-2.79706l-.46657-.13317-.48349.0434a4.80555,4.80555,0,0,1-5.999-2.0317l-.47141-.07793Z" transform="translate(-348.46277 -212.33815)"/><path class="cls-91" d="M398.36942,290.80967c.98563,1.465,3.54125.85077,4.00233,3.011-1.67229,2.39575-3.77455,2.33175-5.45687.356C395.7579,292.81782,396.01127,291.13245,398.36942,290.80967Z" transform="translate(-348.46277 -212.33815)"/><path class="cls-92" d="M392.36806,284.92953q2.99967,1.0152,5.99916,2.031-1.52866,1.43382-3.057,2.86636c-1.32892.74359-2.555,1.18087-2.91092-.9737C391.4521,287.55278,392.37835,286.23743,392.36806,284.92953Z" transform="translate(-348.46277 -212.33815)"/><path class="cls-93" d="M402.309,293.77916c5.90658.30485,5.98455.40195,4.02751,5.01622q-1.9716-1.01817-3.94286-2.03731Q402.35178,295.26856,402.309,293.77916Z" transform="translate(-348.46277 -212.33815)"/><path class="cls-94" d="M384.52007,286.90153q2.38637.47079,4.77178.94169c1.01372,5.32477-2.61387,2.82266-4.76257,2.814C383.51293,289.40777,383.28364,288.15643,384.52007,286.90153Z" transform="translate(-348.46277 -212.33815)"/><path class="cls-95" d="M392.39932,288.85324c.68877,1.16484,1.85016.92106,2.91154.9736-.05781,1.36756.41769,3.236-1.64172,3.293-1.02729.02847-2.70358-.04043-3.07081-1.70322C390.27509,289.95306,390.59949,288.86723,392.39932,288.85324Z" transform="translate(-348.46277 -212.33815)"/><path class="cls-96" d="M384.52007,286.90152q.00429,1.87847.0089,3.75629c.13766,1.28771,1.8854,2.56374.03057,3.86521-1.32221-1.37851-1.09174-3.139-1.19439-4.81713a3.78356,3.78356,0,0,1-.78186-3.58443,2.49706,2.49706,0,0,1,.86473-1.23677c.569-.09027,1.29309-1.00635,1.62057-.22218C385.30707,285.23353,384.73228,286.143,384.52007,286.90152Z" transform="translate(-348.46277 -212.33815)"/><path class="cls-97" d="M556.68873,289.71054c-.77161-4.30425,2.10849-4.01914,4.88088-3.86942C561.86788,289.55048,558.843,289.08339,556.68873,289.71054Z" transform="translate(-348.46277 -212.33815)"/><path class="cls-98" d="M397.2828,241.90761q.02631-1.549.05256-3.10184c3.68643-.75835,6.46275-.041,6.99476,4.30566,2.04493.76888,2.59143,2.55772,3.03469,4.42508.29116,2.99763-.83487,5.33121-3.85,5.92765-4.00014.79131-4.564-2.836-5.98769-5.26368C396.8321,246.129,395.8229,244.06326,397.2828,241.90761Z" transform="translate(-348.46277 -212.33815)"/><path class="cls-98" d="M406.40431,247.31081q-1.037-2.09958-2.07413-4.19928c.18529-3.612-1.20387-7.95524,4.46561-9.06611,1.74394,2.704.70307,6.67827,3.50863,9.09252l1.14012,1.07463c1.39348,2.89569-.62649,4.13281-2.67336,5.18051C408.54351,250.53335,407.14207,249.50914,406.40431,247.31081Z" transform="translate(-348.46277 -212.33815)"/><path class="cls-78" d="M397.2828,241.90761l1.05905,6.057c.68716.93618.66771,2.14043,1.24633,3.142.96832,1.67606,2.16933,3.38957-.03464,5.13857-2.08952,1.65817-4.08134,1.862-6.1353.01-.48449-.43685-.96546-.87437-1.40831-1.35138-1.70417-2.25824-3.26953-4.566-2.31413-7.63122C391.084,243.8769,393.90072,242.49394,397.2828,241.90761Z" transform="translate(-348.46277 -212.33815)"/><path class="cls-79" d="M389.6958,247.27254q1.3417,3.35222,2.68344,6.70444c.58552,1.819,3.745,2.8224,1.94541,5.3502-1.70521,2.39519-4.10959,2.178-6.54653,1.153-3.5802-2.14917-4.79-5.66734-5.47832-9.48506q.06066-.51294.12113-1.02685C385.22436,250.0874,386.71886,246.68621,389.6958,247.27254Z" transform="translate(-348.46277 -212.33815)"/><path class="cls-79" d="M382.2998,250.99508c2.6802,2.53534,2.66528,6.81617,5.86153,9.0173,2.07589.8244,1.68259,2.07858.48664,3.31774a5.97314,5.97314,0,0,1-4.20615,2.12306c-4.07977-.19489-5.83076-2.55076-5.96421-6.40677C377.10218,255.10946,378.547,252.50646,382.2998,250.99508Z" transform="translate(-348.46277 -212.33815)"/><path class="cls-98" d="M378.47761,259.04641c1.867,2.09217,2.36481,5.55146,5.94536,5.93281q.45523.32653.30893.66039-.14657.33548-.29684.33562c-.3187.04416-.72912-.02415-.94247.1492-3.75687,3.05257-7.05129,2.3755-10.01624-1.17914q-1.00842-1.5069-2.01686-3.01368.11583-1.9411.23371-3.88147,2.1111-1.197,4.2204-2.39151Q377.197,257.3552,378.47761,259.04641Z" transform="translate(-348.46277 -212.33815)"/><path class="cls-6" d="M383.448,284.88469l-.162,1.16962c-1.43455,1.22877-3.68926,1.04173-4.82565,2.78519q.00078.48342.0037.96671-.52828-.541-1.05716-1.08265-.03786-1.383-.07514-2.76378C378.40729,280.14735,381.21816,284.162,383.448,284.88469Z" transform="translate(-348.46277 -212.33815)"/><path class="cls-99" d="M378.46032,288.8395c-.29076-4.20743,2.64134-2.85391,4.82658-2.78635q.03843,1.82785.07848,3.65306Q380.91261,289.27255,378.46032,288.8395Z" transform="translate(-348.46277 -212.33815)"/><path class="cls-100" d="M540.64634,287.81451c-3.48175-1.61208-6.02379.79174-8.83177,2.059-4.06022,3.96615-9.73206,4.45464-14.60635,6.655-5.52277,2.49311-11.37762,4.19788-17.07556,6.27987-1.83751.67142-3.7289,1.3686-5.73078.52747-1.70788-2.231.47181-3.07561,1.607-4.137a89.88757,89.88757,0,0,0,9.19483-9.39034,44.029,44.029,0,0,0,7.54655-18.59837c.35374-2.18933.44088-4.68124,2.76692-6.06467,4.88433-1.28524,9.86049-.576,14.78971-.63011,5.44756-.05981,10.8887-.14939,16.32527-.493,2.72548,1.81855,5.48878,3.58385,8.16217,5.47577,1.586,1.12239,5.237,1.70166.84288,4.536-1.04514.67417-1.65563,5.82583-.97219,6.81334,2.03963,2.94715-.38069,1.63359-1.28836,2.03687C549.21175,284.73494,543.78738,283.35137,540.64634,287.81451Z" transform="translate(-348.46277 -212.33815)"/><path class="cls-101" d="M546.63218,264.02242c-1.68021,1.98077-3.96353,1.9684-6.28483,1.96331-8.50137-.01866-17.00285.00532-25.50429.01324-1.85252-1.7304-1.18507-4.25324-2.00589-6.31389-.16686-1.51132-.13082-2.97,1.09451-4.11218,6.21431-1.90463,12.51147-1.0004,18.79594-.53991A71.69574,71.69574,0,0,1,546.63218,264.02242Z" transform="translate(-348.46277 -212.33815)"/><path class="cls-102" d="M532.72762,255.033c-6.19353,2.16491-12.598.4566-18.87848,1.0241-3.47717-3.088-3.66138-7.83733-5.87031-11.56839-.53324-4.97815,2.42638-2.88029,4.65172-2.29536,1.45881.76053,2.92411,1.51657,4.41693,2.21764,2.25126,1.52981,5.31016,1.90056,6.72783,4.63556Z" transform="translate(-348.46277 -212.33815)"/><path class="cls-98" d="M528.5348,232.39631l2.17852,2.00954c1.23878,4.76535-.732,8.4448-3.97147,11.695l-1.01335.06086c-3.48344.1839-6.02133-.97726-6.74991-4.7214a6.40147,6.40147,0,0,1,1.00074-2.80233c1.98527-2.44822,1.22824-6.17545,3.87032-8.32024a2.90566,2.90566,0,0,1,.90336.00075A5.78347,5.78347,0,0,0,528.5348,232.39631Z" transform="translate(-348.46277 -212.33815)"/><path class="cls-79" d="M555.5605,250.11875l1.028,1.17069c.29884,4.33992-1.64507,7.236-5.80373,8.64663-2.51439.055-4.79053-.36074-5.9434-2.99638a3.34538,3.34538,0,0,1,2.71457-3.706c.40632-.49695,1.09343-.95156,1.17605-1.49734C549.68166,245.46252,552.508,247.36875,555.5605,250.11875Z" transform="translate(-348.46277 -212.33815)"/><path class="cls-78" d="M542.5398,241.23975l.263,2.82009c.61919,3.02537-.9036,5.34683-2.51613,7.64117-.19834.12189-.39974.2404-.60116.35892-2.26736,1.5138-3.98073.1796-5.627-1.162-1.927-1.57042-.08824-2.88919.41252-4.27277.386-1.06647.92175-2.07972,1.29415-3.15018C537.7219,237.85064,537.71121,237.84693,542.5398,241.23975Z" transform="translate(-348.46277 -212.33815)"/><path class="cls-98" d="M526.74185,246.10083c1.15731-3.95508,3.48663-7.51366,3.97153-11.69559q.50064-.11143,1.00143-.22414a5.37827,5.37827,0,0,0,4.9562,2.03913c-.88186,2.73847-1.5966,5.54439-2.68031,8.20029C531.81571,249.75086,531.38474,249.7966,526.74185,246.10083Z" transform="translate(-348.46277 -212.33815)"/><path class="cls-78" d="M550.7848,259.93607a16.16466,16.16466,0,0,0,5.80377-8.64693q.50917-.01923,1.01866-.038c1.79012,2.021,4.98585,3.24417,3.91586,6.88487.4554.9913-.10315,1.47136-.9213,1.82053-.85989.70087-1.76773,1.35125-2.57134,2.11139C554.58746,265.32458,552.68719,264.77563,550.7848,259.93607Z" transform="translate(-348.46277 -212.33815)"/><path class="cls-98" d="M547.556,253.23373q-1.35816,1.85364-2.71546,3.70662c-2.7932-.49511-5.14121-1.45915-5.155-4.88043l-.02431.02871c2.06734-2.30688,2.34184-5.47131,3.86019-8.04078.09778-.82215.16693-1.66029,1.1232-2.00305q1.96448,1.55808,3.92853,3.11733C549.222,247.97693,547.52849,250.49734,547.556,253.23373Z" transform="translate(-348.46277 -212.33815)"/><path class="cls-98" d="M560.60179,259.95657l.92169-1.82127c1.88957-3.177,3.87815-.23911,5.81949-.09273q.564,1.085,1.13257,2.16976c1.24669,2.205-.20927,3.03291-1.9106,3.73577a40.8464,40.8464,0,0,0-3.613,3.24011c-1.9394,2.18042-3.48874.85907-5.01472-.415-1.971-1.64561.0186-2.48326.86058-3.46571C559.65452,262.30781,560.65579,261.42807,560.60179,259.95657Z" transform="translate(-348.46277 -212.33815)"/><path class="cls-103" d="M566.56494,263.9481c.49511-1.31821,2.07146-2.08556,1.91093-3.73671q.53027-.06318,1.06123-.128,2.4343,1.99155,4.868,3.98294.02685.98332.05466,1.96609c-.04693.21674-.09385.43348-.13666.652a16.30191,16.30191,0,0,1-5.11741,5.12118c-.21827.04232-.43815.08067-.65805.119-1.98259.03948-4.26114.325-5.17356-1.88615-.809-1.96039,1.73136-2.44614,2.382-3.8345C566.09366,265.48374,566.29958,264.702,566.56494,263.9481Z" transform="translate(-348.46277 -212.33815)"/><path class="cls-89" d="M578.37466,271.98155l-4.82977,2.91512c-1.85319-.67652-5.43542,1.54345-4.99724-2.9721l-.034.02309a22.06023,22.06023,0,0,0,6.00533-5.99438l-.059.07871a9.10868,9.10868,0,0,0,.89971-.287c2.55819.21125,3.50413,3.65207,6.4054,3.18517C580.71977,270.03871,578.8604,270.24905,578.37466,271.98155Z" transform="translate(-348.46277 -212.33815)"/><path class="cls-104" d="M519.82487,241.0231c.15558,3.78762,3.88249,3.48649,5.90379,5.13825q-.9771,1.44339-1.95361,2.88564-3.52323-1.92419-7.047-3.84745c-.59244-.9641-.0074-1.72523.42479-2.517C517.86432,241.84616,518.36413,240.65823,519.82487,241.0231Z" transform="translate(-348.46277 -212.33815)"/><path class="cls-79" d="M519.82487,241.0231q-1.00178,1.00677-2.00352,2.01356c-1.86034-.198-3.25921-1.33046-4.73167-2.321-.45029-.52031-.88327-1.04667-.25367-1.72483l.94977-1.749c1.46694-2.54883,1.52507-5.52775,2.518-8.22228.0944-.946-.08231-2.11033,1.50047-1.85421q.51864.41884,1.03747.83667,1.40533.64872,2.81029,1.29946c2.08509,3.54543.17114,6.72778-.91,9.98574Q520.28347,240.15515,519.82487,241.0231Z" transform="translate(-348.46277 -212.33815)"/><path class="cls-30" d="M517.80428,227.1653c-.98786.31778-1.00715,1.20451-1.17984,2.00114-.21855.52269-.45134.50322-.69637.01823-.21441-1.07113.09374-2.328-1.08969-3.055.20578-1.32246.481-2.96469,2.23774-2.32548C518.43883,224.3,518.52245,225.82388,517.80428,227.1653Z" transform="translate(-348.46277 -212.33815)"/><path class="cls-105" d="M520.742,239.28717c.32647-3.32669,1.60017-6.56729.91047-9.986q1.09771.50809,2.19676,1.0161C522.85989,233.32345,523.38648,236.85262,520.742,239.28717Z" transform="translate(-348.46277 -212.33815)"/><path class="cls-106" d="M543.52141,244.04785c-.74867,2.93762-.84035,6.18948-3.86019,8.04077q1.57038-4.01422,3.14119-8.02862A2.52312,2.52312,0,0,0,543.52141,244.04785Z" transform="translate(-348.46277 -212.33815)"/><path class="cls-107" d="M482.85925,364.301q2.1644-4.89856,4.32882-9.79715l1.51316-.01494q2.1591,4.90618,4.31826,9.81227A11.12207,11.12207,0,0,1,482.85925,364.301Z" transform="translate(-348.46277 -212.33815)"/><path class="cls-108" d="M521.59315,361.32575q-.00073-3.97665-.00149-7.95333c.2208-.90523.19035-2.1055,1.5265-2.06462,4.60755.141,9.4443-1.13449,13.58452,2.07167a6.33936,6.33936,0,0,1-.18676,6.90613A17.38139,17.38139,0,0,1,521.59315,361.32575Z" transform="translate(-348.46277 -212.33815)"/><path class="cls-109" d="M493.78265,302.97669c12.39739-2.72853,23.7904-8.31761,35.686-12.47525.76163-.2662,1.562-.42184,2.34516-.6284,1.41923.80867,3.182,1.16179,3.87854,2.924a4.93876,4.93876,0,0,0-3.976,5.02639c-2.2928-3.19613-4.63034-1.65832-6.96841-.065-2.90965-.00558-5.21023.884-5.96565,4.045-2.99857-1.85042-5.16606-.75371-6.884,1.93487-2.03914-.95106-3.81658.09215-5.67152.70462-11.24806,3.714-22.48017,7.10972-34.56771,7.344a96.82949,96.82949,0,0,1-39.40971-7.60147c-1.68862-.69888-3.24655-1.72839-5.04348-.378-.08392-2.62079-2.78007-1.96675-3.9933-3.17212-.07248-2.40117,2.55657-2.5918,3.4527-4.20521,7.28788,1.4395,13.94225,4.95523,21.22533,6.42076a87.94213,87.94213,0,0,0,41.53082.27331C490.86153,302.79231,492.30775,302.3958,493.78265,302.97669Z" transform="translate(-348.46277 -212.33815)"/><path class="cls-110" d="M447.1901,303.84061c-7.30169-1.41157-14.1359-4.24374-21.02972-6.89476a.52373.52373,0,0,1-.90458-.04492q-8.50173-3.52666-17.004-7.0531c6.22015-.01081,12.44137.021,18.66107-.06178,1.63809-.0218,3.81774.78482,4.29047-1.94564,3.34219.29394,3.5679,3.85362,5.7106,5.40714a41.7616,41.7616,0,0,0,7.77868,6.836C445.978,300.942,447.74458,301.67907,447.1901,303.84061Z" transform="translate(-348.46277 -212.33815)"/><path class="cls-111" d="M425.2558,296.90093a1.43886,1.43886,0,0,1,.90487.04423c.0551,2.05684-2.44121,2.0828-2.948,3.691q-1.49,1.0622-2.9797,2.12616.45875-1.47027.91684-2.94038Q423.20206,298.36178,425.2558,296.90093Z" transform="translate(-348.46277 -212.33815)"/><path class="cls-112" d="M384.43506,265.97523q-.0059-.498-.01194-.996c.90662-1.91147,5.54212-1.0233,3.74042-4.96676,5.38479.60757,6.26839-.65649,4.21582-6.035.86859.72337,1.76972,1.41231,2.59868,2.179,1.36795,1.26519,2.32342.28559,3.42042-.47211,1.13775-.78585,2.20754-1.40953,1.24037-3.08164a7.01021,7.01021,0,0,1-1.29678-4.63706,13.18078,13.18078,0,0,1,1.023,1.011c1.12023,1.36346.88622,4.2795,3.76678,3.61669,2.71439-.62458,3.47445-2.72379,3.27181-5.28467,3.37227,2.35832,5.32649,1.4975,7.0396-3.09707,2.95838,2.06808,5.00746-1.84161,7.75219-1.17231a2.04313,2.04313,0,0,1,1.43856,2.25358c-.67839,2.87744-3.19405,3.88835-5.36688,5.2483-3.42815,2.14564-6.924,4.17928-10.3853,6.26839-5.32234,2.7654-9.44009,7.583-15.50119,9.093q-1.98225,1.02585-3.96458,2.05163Z" transform="translate(-348.46277 -212.33815)"/><path class="cls-113" d="M427.14048,240.103q.04977-.473.08115-.94757a72.95793,72.95793,0,0,1,33.33676-8.099c16.61846-.12175,33.1137-.06827,48.6289,7.06771a15.93912,15.93912,0,0,1,1.64542,1.00439c.884,1.80983.05713,2.437-1.68437,2.43227-7.84012-1.87194-14.97853-6.13571-23.24078-6.66475-2.30573-.14764-4.60752-.274-6.92145-.32348-6.93906.0322-13.87243-.02657-20.8007.0492A81.44476,81.44476,0,0,0,434.45,240.489c-1.81012.73669-3.62051,1.57183-5.67634,1.28376A2.29447,2.29447,0,0,1,427.14048,240.103Z" transform="translate(-348.46277 -212.33815)"/><path class="cls-114" d="M508.83321,241.14307a1.86092,1.86092,0,0,0,1.99938-2.01439q1.00176-.06832,2.00333-.13711.45843.61485.91669,1.23122c.873,1.37915-2.40693,1.47645-.94133,3.03851-4.01845-1.10253-4.01845-1.10253-3.93937.84139-.51007,4.92461-4.52824,4.87846-7.98973,5.62951-2.56429.02637-2.89938-2.36464-4.127-3.7975-.09873-.85008.2058-1.824.93851-1.91392,2.28749-.28072.3449-1.32984.45759-1.97977-.06728-3.10122,2.0604-3.63733,4.25813-2.98389A33.98972,33.98972,0,0,1,508.83321,241.14307Z" transform="translate(-348.46277 -212.33815)"/><path class="cls-115" d="M515.92807,229.18467a5.34785,5.34785,0,0,0,.697-.018c-.68572,2.78267-.46842,5.88161-2.83923,8.07462A23.47893,23.47893,0,0,1,515.92807,229.18467Z" transform="translate(-348.46277 -212.33815)"/><path class="cls-116" d="M427.14048,240.103l1.10839,1.01424c.57061,1.09235.06262,1.993-.50735,2.88708-1.59739,1.51092-3.2546,2.75192-5.4924,1.10826q-.52626-1.0359-1.05309-2.07251.03612-.45387.041-.90787C423.165,241.34056,424.86506,239.88794,427.14048,240.103Z" transform="translate(-348.46277 -212.33815)"/><path class="cls-117" d="M436.1611,293.79768c-2.41076-1.3572-2.87156-4.33112-4.95768-5.95739-2.80749-5.3503-5.411-10.77152-5.897-16.92765,1.12153-1.00765.77946-2.44664,1.105-3.69118.411-1.57128,1.5864-1.98564,3.05149-1.83267,1.83884.192,2.70129,1.09772,2.09726,2.99928a1.56213,1.56213,0,0,1-.29052.39634l.60782-.08394c.43934-2.41584-1.39974-4.63809-.80307-7.12841.62133-2.59325,1.53207-4.13242,4.31731-2.1072a4.12277,4.12277,0,0,1,1.11274,2.53988c.20382,1.42093-1.08471,2.685-.42508,4.244,1.3816-1.35241-.02847-3.45543,1.37371-4.72048a3.82254,3.82254,0,0,1,3.44666-.15475,15.84617,15.84617,0,0,1,3.37759,2.52857c.15938,2.44072,3.39343,4.87915.01979,7.3298a1.26784,1.26784,0,0,1-.19253.096c5.58048,1.5611,4.90833,7.88964,8.535,11.16711,2.86982,2.59348,7.27324,4.02557,7.98205,8.93783.2238,1.55092,2.30313.98632,3.70752-.058,2.27433-1.69129,4.56963-2.5496,5.31324,1.52013-.43468,1.52709-1.9569,2.16242-2.77536,3.36355-1.08664,1.59473-.68112,3.31736.81652,3.72383,1.85145.50248,2.1606,1.82353,1.82448,3.43524-.40343,1.93452-1.81455,2.48963-3.27853,1.50786a6.439,6.439,0,0,0-5.47731-.94576c-2.37586.50345-6.4579-2.767-6.84437-4.87554a5.98292,5.98292,0,0,1,.01623-2.379c-.66739.0417-.87541.71142-1.36476,1.009-1.9189,1.73725-3.94467,1.66631-6.35413.91838-3.67383-1.14038-4.31948-2.611-1.25873-5.18835,1.3585-.46638,2.88752-.58474,3.81642-1.92369.46756-.674,1.03011-1.38734.71273-2.20672-.46764-1.20728-1.30069-.25978-1.99712-.19489-2.50269.23318-3.53737-1.96873-5.18242-3.16008-.85659-1.67055-3.41257-2.94853-1.0996-5.73449a18.24816,18.24816,0,0,0-3.66324,2.1531c.89337,2.10644,3.09444,2.31228,4.619,3.44272a26.10835,26.10835,0,0,0,1.795,6.88547c-.285,3.21709-1.87975,4.01256-4.62036,2.37816A17.207,17.207,0,0,0,436.1611,293.79768Z" transform="translate(-348.46277 -212.33815)"/><path class="cls-118" d="M391.38065,265.90265a133.53386,133.53386,0,0,1,14.95683-9.85383c6.45411-.82184,12.9009-1.47835,19.22124.84534,1.58183,3.42855,1.955,6.81323-.37723,10.09574-9.56932-.007-19.13888.01864-28.70775-.05107C394.74688,266.92625,392.79321,267.61465,391.38065,265.90265Z" transform="translate(-348.46277 -212.33815)"/><path class="cls-119" d="M425.18149,266.9899l.04389-9.94485c-.27044-.93155.25077-1.21676,1.04469-1.28144,2.28682,1.28984,4.43843,1.70856,6.524-.51826,1.05547-1.12695,2.327-.877,3.38261.24441.44655,1.67609,1.02608,3.38581-1.01554,4.50566-1.47626-.69477-2.9136-1.25242-2.94177,1.28919-.02339,2.11036-.23,4.23054.66276,6.26993a1.41243,1.41243,0,0,1-.67833,2.05645,2.47344,2.47344,0,0,1-1.86317.10714c-1.98048-1.3357.5911-1.02473.69609-1.69082.15653-.99309-.04061-1.55008-1.157-1.52985-1.03048.01866-2.397-.776-2.59991,1.13052-.14886,1.399.22879,3.11584-1.97407,3.285Q425.24428,268.9511,425.18149,266.9899Z" transform="translate(-348.46277 -212.33815)"/><path class="cls-117" d="M513.82108,260.00012c1.78849,1.75387.62051,4.00912,1.0215,5.99861-1.03113,8.98277-3.01212,17.62161-9.01253,24.80533-3.39784.99469-5.93753,3.40537-8.371,5.68663-2.9209,2.7382-4.36947,2.34408-5.33022-1.35261.2046-3.992-.18121-8.13658,2.83969-11.43595,2.53707-1.02028,5.35761,2.52567,7.9274-.93522-2.85113.69481-5.7141-.63751-8.22772,1.31492a104.69352,104.69352,0,0,1-12.40666,9.98413c-.77937,1.21922-2.84381,1.65932-1.31619,4.06649,1.40883,2.22-1.4864,2.54328-2.68,3.55941-2.16018.97208-4.20343,1.57086-4.891-1.692-.135-.64053-.11869-1.51847-.76907-1.72551-4.67668-1.48867-2.60111-3.779-.79682-6.07068,1.06463-4.05428,5.10175-2.2092,7.56147-3.71208A32.09211,32.09211,0,0,0,492.224,274.32269c1.415-3.064,3.06657-4.13825,6.0132-1.99146,1.2679,1.00309,2.456,2.28964,4.31555,1.29531,2.26191-1.20948,2.11981-2.42477-.03044-3.61349-1.10437-3.58645.05135-6.3435,3.0962-8.41139a4.81689,4.81689,0,0,1,1.95371-.62947C509.7308,261.14854,511.8878,261.29833,513.82108,260.00012Z" transform="translate(-348.46277 -212.33815)"/><path class="cls-120" d="M472.98934,292.7907c.31708,1.94395-2.15784,1.63093-2.63144,3.36773,1.82991.78788,4.501.4487,4.32385,3.95087-.1526,3.01607,2.01824.96052,3.25813.64744,4.27337.7314,3.18639-3.66482,5.03994-5.25183,2.52792,1.07638,4.95869,1.596,7.26294-.62078a1.84809,1.84809,0,0,1,2.64722-.06773c.11074,1.2164.42208,2.4122,1.82051,2.59009,1.271.16166,1.47651-1.714,1.57994-1.73858,3.59195-.85408,4.7005-6.62523,9.53974-4.8638-3.2804,4.77991-8.1449,7.99759-12.04555,12.17014-13.61243,5.04135-27.53838,4.70034-41.525,2.19212-1.65855-.29743-3.70939.28467-5.07044-1.3269-3.284-3.77467-8.45661-5.48516-11.02785-10.04191,1.55153-1.02447,2.7722-.75011,4.16039.55578,2.10412,1.97936,2.551.21338,2.82963-1.539,1.15053-.66731,1.99-.70188,1.98866.974-.15959,1.11038-1.95894,2.722-1.27217,2.76987,2.29772.16015,4.124,2.69411,6.61405,1.29608.57147-.32086,1.09751-.72231,1.64447-1.08667a22.8284,22.8284,0,0,0,2.97149,2.0217c1.46137.83268-1.519,2.407.51906,3.13162,2.22613.79154,1.57335-2.13952,3.26747-2.38105.90191.89064-1.07269,6.32109,3.44226,2.43793a2.3896,2.3896,0,0,1,3.6772,1.24509c.30886.87958.87721,1.51883,1.78925,1.30012,1.06343-.255.6422-1.37486.80663-2.0997.316-1.39305-.69287-1.56349-1.76159-1.6895-1.42138-.1676-2.97323.47189-4.3367-.64824,4.56468-.38309,2.01516-6.95337,6.53779-7.29562A2.87893,2.87893,0,0,1,472.98934,292.7907Z" transform="translate(-348.46277 -212.33815)"/><path class="cls-121" d="M513.82108,260.00012c-.83274,4.10551-3.879,1.62693-5.967,1.99864-2.57989-2.94521-5.897-1.82188-9.05138-1.63066a4.15791,4.15791,0,0,1-1.51548-3.11176,4.01618,4.01618,0,0,1,.71653-1.7916c1.048-1.63624,2.9955-1.66873,4.45151-2.56842-2.20264-.58626-2.11475-2.12955-1.6128-3.84585,3.05509-1.03659,6.45981-1.50791,8.029-4.94769a56.85334,56.85334,0,0,1,4.9772,11.95419Q513.83535,258.02868,513.82108,260.00012Z" transform="translate(-348.46277 -212.33815)"/><path class="cls-113" d="M512.81128,243.2613c-.99787-1.41843.15779-2.1716.94185-3.039,1.53055.68683,3.28091,1.05747,4.06793,2.81493q-.5456,1.07977-1.09236,2.16152A6.26173,6.26173,0,0,1,512.81128,243.2613Z" transform="translate(-348.46277 -212.33815)"/><path class="cls-122" d="M574.519,265.95328a7.86479,7.86479,0,0,1-6.00533,5.99437A22.75783,22.75783,0,0,1,574.519,265.95328Z" transform="translate(-348.46277 -212.33815)"/><path class="cls-123" d="M525.49666,356.72144c3.17606-1.56139,5.0412-1.46426,7.79971.10051A10.95117,10.95117,0,0,1,525.49666,356.72144Z" transform="translate(-348.46277 -212.33815)"/><path class="cls-124" d="M426.22885,256.03881q-.50159.503-1.00332,1.00615c-6.30585-.14894-12.65492.52124-18.88811-.9962,3.84586-2.41225,7.61032-4.97059,11.57438-7.1706a15.34583,15.34583,0,0,0,4.33736-3.76555,5.85892,5.85892,0,0,0,4.9968-1.87358c1.39056-.71283,2.67217-2.90714,4.30916-.31675C429.98647,247.37638,428.98825,252.06406,426.22885,256.03881Z" transform="translate(-348.46277 -212.33815)"/><path class="cls-125" d="M431.13584,243.07672c-1.3694-1.70688-2.57851.46664-3.89.1612q.50136-1.05886,1.00277-2.12033c9.46721-3.21853,18.7874-6.97265,28.88654-7.88265,1.49283,1.02614,3.25011.09494,4.80558.64594.08023.142.24809.29688.23044.42657-.24141,1.77348-3.32961,1.755-2.43519,4.91874.35126,1.24247-4.5494,2.98694-7.46835,3.65355-4.43034-4.0417-7.89534.48142-11.68878,1.48836a16.76981,16.76981,0,0,0-3.5162,1.65677C432.94918,248.34042,432.36749,248.02982,431.13584,243.07672Z" transform="translate(-348.46277 -212.33815)"/><path class="cls-126" d="M508.83321,241.14307a21.2387,21.2387,0,0,1-5.95183-1.2137c-1.74194-.72946-3.93012-.833-4.00308,2.18145a1.08464,1.08464,0,0,1-1.222.22961c-1.07717-1.22786-1.72094-3.06328-3.89319-2.749-3.64529.31489-6.83236-3.3171-10.8887-.9454-1.17893.68931-2.84752-1.15384-3.56346-2.7566a2.65751,2.65751,0,0,1,.64693-2.67564A59.4812,59.4812,0,0,1,508.83321,241.14307Z" transform="translate(-348.46277 -212.33815)"/><path class="cls-127" d="M479.95788,233.21383q-.00354,1.45838-.007,2.91676a1.49686,1.49686,0,0,1-1.28143.2574c-3.15511-1.21373-6.44587-.46518-9.67131-.65879-2.39926-.144-4.92775.30293-6.95857-1.52045-1.64193-.29132-3.52894.64656-4.905-.97418Q468.54687,233.22457,479.95788,233.21383Z" transform="translate(-348.46277 -212.33815)"/><path class="cls-128" d="M500.8425,249.05047c.92811.48539.42521,1.54836.75311,2.07272.82482,1.319.26864,2.83367-1.59007,3.91782a12.38055,12.38055,0,0,0-2.11984,2.0141c-2.43786-.06428-2.40172-2.31629-3.317-3.7234-.74658-2.63634-1.8805-5.375,1.67761-6.99194.20845-.07679.41944-.14835.63044-.21991C499.59913,245.20862,498.68464,249.20066,500.8425,249.05047Z" transform="translate(-348.46277 -212.33815)"/><path class="cls-129" d="M497.88793,242.06651q.49443.03873.99036.04462c1.40691,2.36754-1.88843,2.39656-2.00138,4.00863l.02026-.01506c-1.62228.91038-2.52752.07266-2.54-1.41663C494.33835,242.45659,495.8423,241.78206,497.88793,242.06651Z" transform="translate(-348.46277 -212.33815)"/><path class="cls-119" d="M472.98934,292.7907q-1.97526-.0003-3.95032-.00066c-.8915-2.35608-3.072-2.30352-3.73673-.69172-1.06706,2.5875-2.47032,2.14105-4.2198,1.53192-1.74188-.60646-3.58065-1.25386-2.54918-3.78487.47867-1.17453-.14062-1.84821-1.14378-2.30979-5.05577-2.32633-8.08169-6.56478-10.07732-11.45162-1.14879-2.8131-2.46175-4.79278-6.35157-4.96066,4.16351.49577,4.62046-1.44685,3.3009-3.8805-.6954-1.28252.06961-2.187-.12971-3.24026.21541-.08121.43082-.16242.64556-.24737,2.99532,1.15047,5.71387-.99672,8.63853-.72847a9.07127,9.07127,0,0,1,1.6621,3.8752c1.73706,9.25282,5.59068,13.12127,13.674,13.69415.46636-.02524.932-.019,1.39732-.0107,8.3973-.399,12.35167-4.15688,14.42278-13.7343.03556-.71017.06922-1.41847.11118-2.1281a7.89222,7.89222,0,0,1,.552-2.79074c.90038-1.52657,1.68478-.92395,2.56682.07873,2.0298,2.30738,4.05542,2.41851,5.96056-.1752a3.6199,3.6199,0,0,1,4.25054-1.45511c2.09963,1.24241,4.10372.32494,6.14328-.22267,1.65516-.44442,2.66943-.17074,1.68455,1.84816-1.74538,2.35824-3.235,4.813-2.99918,7.91882-1.45032,1.35141-3.4828,1.73268-4.9926,2.985-1.70995-.93422-3.547-1.67246-4.3304.90968-2.3664,7.80011-8.195,12.30823-14.7883,16.3017C476.87134,291.24742,473.36193,288.72537,472.98934,292.7907Z" transform="translate(-348.46277 -212.33815)"/><path class="cls-130" d="M445.14,293.78835a2.01738,2.01738,0,0,0-1.9887-.97427c-1.07-2.21789-3.48844-4.24381-.99727-6.96964l.00337-.00333c1.68209-.25568,2.70567.58259,3.6312,1.90136.49383.70363,1.49412,1.72576,1.81259-.33184.14615-.94434.94327-1.42388,1.76345-.70709.83581.73043,1.91541,1.61775,2.09,2.58062C451.876,291.607,447.91476,294.30408,445.14,293.78835Z" transform="translate(-348.46277 -212.33815)"/><path class="cls-131" d="M442.154,285.84444c-3.69347,1.89224-4.78458-1.28658-5.9763-3.40369-1.25868-2.236,1.68061-.63449,2.28436-1.91255.81863-1.733,3.05866-1.73685,4.91942-1.6742.1327.00448.2378.82609.35574,1.26776-4.61051.78246-.46846,3.97387-1.57989,5.71936Z" transform="translate(-348.46277 -212.33815)"/><path class="cls-132" d="M437.1709,262.00545a4.13819,4.13819,0,0,0,.19584.44184,4.54373,4.54373,0,0,1-.9234,6.09561,2.02368,2.02368,0,0,1-1.66853-.16731c-.55107-2.31422-.73855-4.61677,1.38913-6.373A.804.804,0,0,1,437.1709,262.00545Z" transform="translate(-348.46277 -212.33815)"/><path class="cls-133" d="M437.1709,262.00545l-1.00673-.00281a2.14182,2.14182,0,0,1-1.00268-2.007q.50858-1.97682,1.01782-3.95318c1.98534-.99991,2.51444.14071,2.68144,1.8068-1.151,2.919,2.15931.33626,2.21907,1.7746a1.9571,1.9571,0,0,1,.59863,1.16542,1.83822,1.83822,0,0,1-.55848,1.19251Z" transform="translate(-348.46277 -212.33815)"/><path class="cls-134" d="M434.91074,276.28512c-1.10762.408-1.57432-.03121-1.52448-.771.12814-1.90181,1.77069-2.11476,3.13361-2.40659.87175-.18665,1.54.40321,1.49329,1.418C437.90155,276.95061,434.871,274.14562,434.91074,276.28512Z" transform="translate(-348.46277 -212.33815)"/><path class="cls-135" d="M455.09785,298.78933c-1.41386-.054-2.94213.05951-2.97173-2.02167,1.22195-.4224,1.11719-2.86314,2.69157-2.27942C457.62113,295.52766,453.29024,297.42928,455.09785,298.78933Z" transform="translate(-348.46277 -212.33815)"/><path class="cls-119" d="M441.12,261.9818q.02888-.48882.046-.97818c1.27548-.94833,2.69888-1.30122,3.8457-.04549,1.12083,1.22726.44891,2.30322-.86141,3.02868l-.01825.01557C442.65741,264.0276,441.23747,263.97175,441.12,261.9818Z" transform="translate(-348.46277 -212.33815)"/><path class="cls-136" d="M438.15148,259.02938c.0421-1.45575.107-2.9265-1.97211-2.9869-1.13525-.42715-1.88593-1.1411-3.15851.49937-2.09094,2.69541-4.77921,3.06208-6.792-.503.811-4.63183,1.96772-9.13316,4.90769-12.96176,1.48062.98052,1.95183,5.1993,4.13144,2.7976,1.583-1.74424,3.31321-1.42161,4.8046-2.33683,2.54148-1.5596,5.25821-2.84275,7.84935-4.37987,2.42184-1.43668,2.08653,2.89088,4.20387,2.98495a1.313,1.313,0,0,1,.26035,1.2822c-.7298,1.53771-2.10757,2.47679-3.3253,3.56613-.605.54122-1.5538,1.289-.97165,1.995,3.539,4.29192-.93053,6.73052-2.157,9.91249a2.60236,2.60236,0,0,1-1.23048.544C441.21083,257.7288,441.21083,257.7288,438.15148,259.02938Z" transform="translate(-348.46277 -212.33815)"/><path class="cls-137" d="M492.89,294.8164a10.73234,10.73234,0,0,0-2.08268,1.13084c-2.66607,2.31475-5.24771,2.74392-7.81245-.11233-.9193-.39888-1.53322-.95158-1.04172-2.06094,3.7191-4.08144,7.81076-7.67837,12.94593-9.91823l-.00364-.00356Q493.89269,289.33429,492.89,294.8164Z" transform="translate(-348.46277 -212.33815)"/><path class="cls-138" d="M497.84927,272.90993c-.15755-4.03158,2.89646-2.71,4.99276-2.98471,1.343.31489,2.68613.63006,4.21162.988C501.7622,276.62136,501.00945,276.76157,497.84927,272.90993Z" transform="translate(-348.46277 -212.33815)"/><path class="cls-139" d="M494.89906,283.85574q-.28618-1.15137-.57234-2.30276c3.2431,1.29351,6.499-1.40484,9.707-.01022,2.007.87251,1.11048,1.93518-.01054,2.90364-3.23868,2.79794-6.17818,1.02682-9.1278-.59419Z" transform="translate(-348.46277 -212.33815)"/><path class="cls-140" d="M481.95313,293.774q.52038,1.02981,1.04124,2.0603c.2782,3.649-.60074,6.11386-5.054,4.92231.89764-.59242,1.79576-1.185,2.7195-1.79446-.89115-1.27079-2.78866.80048-3.23347-1.23074C480.38315,298.06231,477.60892,291.86182,481.95313,293.774Z" transform="translate(-348.46277 -212.33815)"/><path class="cls-141" d="M505.84105,262.00612c-1.00806-2.73-1.88834.58481-3.10538.0835-1.49059-.614-3.49237.54011-4.86613-1.08579-.23714-.89864.109-1.22481,1.00055-1.01578,2.79561.57017,2.89-1.753,3.75437-4.17129,1.35751,2.88989,4.41794,3.42418,5.22942,6.182Q506.84771,262.00242,505.84105,262.00612Z" transform="translate(-348.46277 -212.33815)"/><path class="cls-142" d="M498.87009,259.98805q-.50013.508-1.00039,1.01584c-1.28569.07914-2.56678-.12278-3.39625,1.391-2.13418,3.89487-5.43979,3.67736-7.87079-.419-.04491-.07567-.31443-.07567-.44786-.02643-.1444.05328-.252.20584-.37572.3151-2.3859-.836-2.49688-2.84688-2.54292-4.89044.33436-1.08148.98041-1.80428,2.12509-1.10085,3.07618,1.89034,5.40708,2.16206,6.48142-2.17052a1.78775,1.78775,0,0,1,3.043-1.03846c2.10868.49963,1.54387,3.00179,2.99994,3.99053Q498.37791,258.5217,498.87009,259.98805Z" transform="translate(-348.46277 -212.33815)"/><path class="cls-126" d="M452.09133,243.13361q.01576-.49545.03426-.99074c2.53584-1.21478,5.07142-2.42962,7.58638-3.63458-.88671-2.67852-3.13981.43981-4.1714-1.50727,1.91994-1.53294,4.79257-.90156,6.49918-2.79245,4.76161.10152,9.52651.33658,14.28359.22864,1.57639-.03577,2.53254-.00969,2.65087,1.75279,1.1911,1.48453.7824,2.81985-.37389,4.0861-1.22282,1.10755-3.055.88475-4.67508,2.23331,1.28187,1.73863,4.1551,2.61144,3.74437,5.42684-.7438,2.31408-2.553,2.27494-4.46118,2.03137-3.49562-.71873-4.173-2.91418-3.61431-5.43111.79572,3.243-1.29672,4.98631-4.739,5.88184-3.10994.80908-5.77283,3.27481-9.31763,2.494-2.91067-.64109-4.89328-2.01119-4.092-5.42131C451.78365,246.05207,451.61663,244.54686,452.09133,243.13361Z" transform="translate(-348.46277 -212.33815)"/><path class="cls-114" d="M473.01991,249.05961c1.57679-.15657,3.64772.67593,3.9762-1.97923,3.926.54083,8.058,1.7553,10.30983-3.15575,1.62992-2.37542,3.17943-4.86511,6.59922-4.76391,4.22876-2.99059,3.4049.915,3.98279,2.90658-3.78092,2.26714-3.78494,2.28355-.9909,4.03745-1.22922,2.1589-3.47345,4.02563-2.01123,6.95959-.993.08124-2.01708.20806-2.34581,1.33935-1.63957,5.64253-2.85358,6.02074-8.03224,2.48383-.09818-.067-.49062.29515-.74576.45708-4.13769-1.50767-6.82316-5.257-10.82256-6.98193A1.26493,1.26493,0,0,1,473.01991,249.05961Z" transform="translate(-348.46277 -212.33815)"/><path class="cls-143" d="M493.90516,239.16072c-2.45447,1.09-3.87744,3.4057-5.93039,4.97282-3.15251-1.84949-6.89333-2.25555-10.05481-4.083a5.55194,5.55194,0,0,0,1.05425-3.86064q.48933-.01473.97679-.05875c1.49912.16078,3.32879,4.55915,4.461-.34657a.94028.94028,0,0,1,.807-.42588C488.1282,236.59349,491.014,237.88346,493.90516,239.16072Z" transform="translate(-348.46277 -212.33815)"/><path class="cls-144" d="M473.00485,249.99374c4.82806.6381,7.68891,4.14572,10.75792,7.34972q1.0082,2.46049,2.01713,4.91994-.01638,1.26912-.03108,2.53579c-3.21252,3.43744-6.77943,3.37841-9.04276-.37922a14.16378,14.16378,0,0,0-5.37145-5.44058c-3.84-2.15549-2.99584-5.64049-1.59977-8.99658A2.57864,2.57864,0,0,1,473.00485,249.99374Z" transform="translate(-348.46277 -212.33815)"/><path class="cls-145" d="M468.95208,281.81825c-8.55052-.11381-14.33254-5.89343-14.73693-14.73082,4.9183-2.43,6.68466-1.9777,10.21733,2.60261.93249.93581,1.94613,1.7877,2.89061,2.7155C470.3108,275.12077,471.50118,278.14953,468.95208,281.81825Z" transform="translate(-348.46277 -212.33815)"/><path class="cls-146" d="M485.70749,267.21616c-2.814,10.757-6.95681,14.63016-15.62259,14.60572-1.91188-4.85152-.08191-8.241,4.1785-10.68666Q478.24683,264.11806,485.70749,267.21616Z" transform="translate(-348.46277 -212.33815)"/><path class="cls-147" d="M485.70749,267.21616c-5.04864-1.74215-8.11207.94221-10.66478,4.76536-.14726-.1629-.2945-.32581-.44352-.488-.16176-.46533-.34206-1.06367-.08058-1.40526,1.86059-2.43062-.43329-2.472-1.73366-3.09579a1.61426,1.61426,0,0,1,.17587-1.2928c1.38965-.959,2.25107-2.02045.74256-3.58266-1.70995-1.77083-2.5288-.28664-3.42237.92783a1.63875,1.63875,0,0,1-1.28235.17938c-.82369-1.89339-3.084-2.15426-4.22719-3.69439,2.548-2.665,2.719-6.34316,4.07833-9.51744a1.21833,1.21833,0,0,1,1.35013.19939c-.34446,3.71019-1.33366,7.612,4.078,8.83241,1.03814.23412,2.15789,1.72627,2.55929,2.875,1.75391,5.01951,5.01324,4.79963,8.91235,2.88065Q485.72778,266.00735,485.70749,267.21616Z" transform="translate(-348.46277 -212.33815)"/><path class="cls-136" d="M444.15025,263.98681c1.88318-3.86311-1.23711-2.7388-2.98436-2.98312q-.02008-.49124-.03188-.9826c1.04027-1.508,2.74747-.34775,4.00244-.99676l.01967-.00958c3.10535.931,6.47867.46283,9.50733,1.81412a2.5343,2.5343,0,0,1-.24235,2.06572.97546.97546,0,0,1-1.269.12024C450.3484,265.15556,447.49589,266.84634,444.15025,263.98681Z" transform="translate(-348.46277 -212.33815)"/><path class="cls-148" d="M453.15214,263.01483q.478-.0011.956-.00124c3.01137,2.02522,5.6971,2.31,7.7836-1.31678a1.98114,1.98114,0,0,1,2.12549-.89577c.95006,1.537.78865,3.93246,3.30686,4.25789a2.04822,2.04822,0,0,1,.03065,1.93186,8.372,8.372,0,0,0-3.2612,4.0283c-2.23572-3.95751-5.66829-4.91909-9.87879-3.932A6.36955,6.36955,0,0,1,453.15214,263.01483Z" transform="translate(-348.46277 -212.33815)"/><path class="cls-149" d="M475.04271,271.98152c-3.6066,2.2994-6.34231,5.036-4.958,9.84051q-.5659-.00186-1.13241-.0036c-.00753-3.35887.9352-7.03159-3.01484-9.08706,1.32134-1.05584,1.95611-2.62548,2.95154-3.9321a1.65664,1.65664,0,0,1,1.27417-.00635c.84993,2.16842,3.00072,2.31316,4.76453,3.058Z" transform="translate(-348.46277 -212.33815)"/><path class="cls-141" d="M501.88061,265.76163c-.104,1.39383.15861,2.87533-1.44835,2.93961-1.63277.06531-1.51374-1.37722-1.5266-2.51656-.01375-1.21978.278-2.59421,1.58523-2.69727C502.30059,263.34473,501.54427,265.091,501.88061,265.76163Z" transform="translate(-348.46277 -212.33815)"/><path class="cls-119" d="M445.13645,259.02433c-1.05183,1.46084-2.62165.84946-4.00215.9967-.95691-.44267-2.512.90695-2.98261-.99181,1.69769-1.018,2.13639-2.91217,3.263-5.28146C442.17385,256.39284,442.81106,258.445,445.13645,259.02433Z" transform="translate(-348.46277 -212.33815)"/><path class="cls-150" d="M454.23024,261.21671c-3.14708-.232-6.56713.65685-9.07434-2.20188,1.14107-1.95422,1.1045-4.48514,3.029-6.07508.31007-.25616.59915-1.11871.4647-1.24638-6.08238-5.77572,2.23811-5.747,3.44192-8.55983.28408,1.30531,2.12869,1.84535,1.26494,3.85443-1.387,3.22618,1.25109,5.90435,4.80449,4.83566a92.4017,92.4017,0,0,0,9.56509-3.877c2.23553-.95688.68338-3.31456,1.91235-5.3092.34522,2.89079.35,5.58916,3.38139,6.42247q-.0134.46675-.01492.93408-1.403.10815-2.80545.21732-.60874-.05087-1.21856-.10261C462.29332,251.46873,458.37428,256.49156,454.23024,261.21671Z" transform="translate(-348.46277 -212.33815)"/><path class="cls-151" d="M438.17753,252.07891c.99872-3.16463.99872-3.16463,5.51449.29177-1.96615,1.39664-3.683-.90474-5.529-.30422Z" transform="translate(-348.46277 -212.33815)"/><path class="cls-152" d="M438.163,252.06646c.25093,1.05433,1.84568,2.5675-.62148,2.79529-1.18368.10928-3.04494-.51838-2.93091-1.88246.24224-2.89772,2.66713.73416,3.56686-.90048Z" transform="translate(-348.46277 -212.33815)"/><path class="cls-153" d="M477.92,240.0505c3.90319.0069,7.82527-.03252,10.05432,4.083-1.15533,5.05343-6.63566,6.52462-10.97827,2.94712-.73058-.84364-1.4456-1.70127-2.196-2.52689-.90093-.99129-3.56851.3525-3.20935-1.9076.26415-1.66224,2.35545-2.01367,3.91106-2.4197A12.8153,12.8153,0,0,1,477.92,240.0505Z" transform="translate(-348.46277 -212.33815)"/><path class="cls-154" d="M468.96547,269.00791c.10432,2.14265.43139,4.46555-3.02709,3.72466q-.92364-.85827-1.84517-1.71381c-1.18259-2.84242-.97343-4.68863,2.84132-3.95366A2.11145,2.11145,0,0,1,468.96547,269.00791Z" transform="translate(-348.46277 -212.33815)"/><path class="cls-144" d="M454.23024,261.21671c2.99949-6.23963,6.727-11.51609,14.75072-11.10809.62947,4.155-.01472,7.803-4.03648,10.10713q.06673.78252-.71639.70678a2.75143,2.75143,0,0,0-2.0941,2.38056c-.40319,2.34725-2.02392,2.54252-3.91856,2.57761-2.11479.03917-3.90557-.24141-4.10738-2.86728Q454.16919,262.11524,454.23024,261.21671Z" transform="translate(-348.46277 -212.33815)"/><path class="cls-155" d="M470.09336,262.914c.27338-1.38756-1.046-3.94714,1.70447-3.63107a5.542,5.542,0,0,1,4.63229,5.14529c.25755,2.45575-2.16324,1.0317-3.33754,1.4746A3.40982,3.40982,0,0,1,470.09336,262.914Z" transform="translate(-348.46277 -212.33815)"/><path class="cls-156" d="M474.9277,271.8509c-2.75438,1.00877-5.64536,2.2506-4.8348-2.82323.314-1.51074,1.13617-2.38763,2.78937-2.22781C478.74905,266.39158,475.08234,269.82974,474.9277,271.8509Z" transform="translate(-348.46277 -212.33815)"/><path class="cls-157" d="M472.88227,266.79986q-1.39477,1.11381-2.78946,2.22772-.56351-.00981-1.12726-.01974-1.01549-.9714-2.03091-1.94284.02812-1.05945.05647-2.11911c-.23232-1.53705.45186-2.18219,1.96944-2.01629q.56633-.00771,1.13274-.01552a7.35034,7.35034,0,0,1,2.999,2.9889A2.17475,2.17475,0,0,0,472.88227,266.79986Z" transform="translate(-348.46277 -212.33815)"/><path class="cls-158" d="M468.96055,262.92959q-.98466,1.00819-1.96938,2.01634c-1.109.47931-2.33427,1.59012-3.40231.35348-1.31479-1.52238.61563-2.87289.63819-4.3762q.36058-.35565.71826-.70869C467.88323,258.76122,469.61049,259.09292,468.96055,262.92959Z" transform="translate(-348.46277 -212.33815)"/></g></svg>