<svg id="Layer_1" data-name="Layer 1" xmlns="http://www.w3.org/2000/svg" viewBox="0 0 153.71441 202.64725"><defs><style>.cls-1{fill:#ff2a44;}.cls-2{fill:#128dff;}.cls-3{fill:#8bda67;}.cls-4{fill:#939598;}</style></defs><g id="vmjdE7.tif"><path class="cls-1" d="M320.26765,241.73276a.83321.83321,0,0,0,.508.095,33.42834,33.42834,0,0,1,12.23032,2.8866,36.29919,36.29919,0,0,1,20.94546,24.15082,34.65854,34.65854,0,0,1,1.21933,11.538,36.658,36.658,0,0,1-17.477,29.30279c-.0499.03071-.09861.06342-.14925.09285-.37958.22059-.385.22356-.6148-.16556q-2.44164-4.1347-4.87909-8.27188c-1.754-2.97663-3.49146-5.96315-5.271-8.92438a1.14145,1.14145,0,0,1,.37067-1.69465,14.63988,14.63988,0,0,0,6.20736-9.768,14.96057,14.96057,0,0,0-6.84876-15.31766,14.725,14.725,0,0,0-9.51617-2.21367,14.8999,14.8999,0,0,0-13.25774,12.3151c-.99951,6.11679,1.08467,11.08417,5.98783,14.87109.07721.05963.15891.11339.23774.171a1.00828,1.00828,0,0,1,.347,1.552c-.54681.94655-1.1047,1.88672-1.6598,2.82847q-4.22242,7.16363-8.446,14.32658-.04461.07569-.09117.15023c-.22495.35886-.23227.37029-.57569.15411-.62748-.395-1.26019-.78426-1.86519-1.212a36.43286,36.43286,0,0,1-14.98731-22.31563,35.32844,35.32844,0,0,1-.72282-11.00258,36.69657,36.69657,0,0,1,20.88167-30.0352,35.833,35.833,0,0,1,10.78137-3.1814,23.88119,23.88119,0,0,1,2.623-.23807.72439.72439,0,0,0,.50512-.09389Z" transform="translate(-242.28559 -241.73276)"/><path class="cls-2" d="M396,349.33121a.77757.77757,0,0,0-.09568.50658,33.02046,33.02046,0,0,1-2.814,12.19035,36.35672,36.35672,0,0,1-17.852,18.69518,35.33826,35.33826,0,0,1-11.23241,3.32394,36.52463,36.52463,0,0,1-28.40928-8.42342,36.19533,36.19533,0,0,1-12.12525-20.16023,35.40247,35.40247,0,0,1-.8269-8.78173,36.6813,36.6813,0,0,1,17.46515-30.273c.04987-.03077.09851-.06363.14916-.09305.382-.22177.38718-.22458.61972.16783q2.26927,3.82936,4.53458,7.66106,2.75922,4.66237,5.51845,9.32476c.08945.15119.18519.29972.26142.45749a.93334.93334,0,0,1-.24351,1.213c-.13017.11662-.28271.20808-.4235.31308a14.82793,14.82793,0,0,0-6.12676,10.3886,15.04753,15.04753,0,1,0,23.64317-10.45655c-.06366-.04525-.12961-.08728-.19262-.1334a.98839.98839,0,0,1-.33911-1.509c.55294-.96567,1.1212-1.92259,1.68471-2.88219q4.18171-7.12116,8.36489-14.24148c.10786-.18358.22282-.363.3281-.53393a.76255.76255,0,0,1,.44369.18793,36.494,36.494,0,0,1,16.93142,23.93737,24.65113,24.65113,0,0,1,.64063,5.2205c.00064.16884-.04417.3553.09592.50119Z" transform="translate(-242.28559 -241.73276)"/><path class="cls-3" d="M279.0378,384.501A36.71145,36.71145,0,0,1,242.805,353.82145c-.21173-1.24808-.32323-2.51113-.41735-3.777a28.43172,28.43172,0,0,1-.079-3.45076,37.03117,37.03117,0,0,1,3.98489-15.39982,36.61889,36.61889,0,0,1,14.0941-14.98922,36.19736,36.19736,0,0,1,12.575-4.58191,35.19194,35.19194,0,0,1,7.46626-.47578,36.60947,36.60947,0,0,1,15.79727,4.26712c.75943.40506.755.28207.30077,1.05392q-4.39587,7.469-8.80091,14.93259c-.39654.67259-.78949,1.34735-1.19221,2.01622-.45928.76281-.82306.88755-1.65706.5375a15.05607,15.05607,0,0,0-20.716,11.4195,14.93286,14.93286,0,0,0,6.91332,15.23158,14.67782,14.67782,0,0,0,9.52629,2.17265,14.50632,14.50632,0,0,0,8.43742-3.83182,15.12561,15.12561,0,0,0,4.66725-7.95372,11.84132,11.84132,0,0,0,.32838-2.54793,4.03974,4.03974,0,0,1,.05368-.69863.96193.96193,0,0,1,1.0041-.87055c.117-.00527.23439-.00168.3516-.00168q9.78729-.00009,19.57457-.00009c.03907,0,.07815-.00028.11721.00007.55719.005.55848.005.56395.58975a36.261,36.261,0,0,1-.32965,5.13424,35.05772,35.05772,0,0,1-2.03072,7.97311,37.14146,37.14146,0,0,1-10.45569,14.90267,36.563,36.563,0,0,1-16.00874,8.15509,33.34533,33.34533,0,0,1-5.26109.77305C280.75426,384.45949,279.89766,384.48918,279.0378,384.501Z" transform="translate(-242.28559 -241.73276)"/><path class="cls-4" d="M269.49,416.57a24.526,24.526,0,0,0-.93-5.23A8.475,8.475,0,0,0,262,405.1a22.03439,22.03439,0,0,0-6.63-.5,16.64828,16.64828,0,0,0-4.25.76,7.97369,7.97369,0,0,0-5.12,4.55,15.86979,15.86979,0,0,0-.88,2.79,36.95308,36.95308,0,0,0-.71,8.05,38.352,38.352,0,0,0,.26,4.71,21.257,21.257,0,0,0,.92005,4.4,9.01354,9.01354,0,0,0,1.98,3.48,8.45312,8.45312,0,0,0,3.92,2.24,20.91918,20.91918,0,0,0,10.77.09,8.30124,8.30124,0,0,0,6.22-5.92,25.24634,25.24634,0,0,0,1.02-5.51A47.90163,47.90163,0,0,0,269.49,416.57Zm-6.19,9.9a11.4959,11.4959,0,0,1-.56,1.9,4.47571,4.47571,0,0,1-3.08,2.81,9.35117,9.35117,0,0,1-5.37-.02,4.50615,4.50615,0,0,1-3.06-2.91,15.61515,15.61515,0,0,1-.82-4.12,44.84847,44.84847,0,0,1,0-7.42,20.74464,20.74464,0,0,1,.54-3.23,5.047,5.047,0,0,1,4.61-4.09,9.75909,9.75909,0,0,1,3.84.19,4.72435,4.72435,0,0,1,3.34,2.92,14.94084,14.94084,0,0,1,.89,4.16,32.78251,32.78251,0,0,1,.15,3.65A30.457,30.457,0,0,1,263.3,426.47Z" transform="translate(-242.28559 -241.73276)"/><path class="cls-4" d="M294,421.09a12.85636,12.85636,0,0,0-1.28-4.24,6.01553,6.01553,0,0,0-5.53-3.41,12.34972,12.34972,0,0,0-8.97,3.5c-.07.06-.12.16-.28.16-.04-.26-.07-.52-.1-.79-.08-.64-.17005-1.28-.21-1.92-.02-.34-.17-.4-.47-.4-1.12.02-2.23,0-3.34.01-.8,0-.67-.09-.67.69q-.015,14.475,0,28.95a2.08044,2.08044,0,0,1-.01.35c-.04.31.11.39.4.39,1.53-.01,3.05,0,4.58-.01.39,0,.4-.01.4-.43q.015-.645,0-1.29c-.03-2.72.09-5.43-.1-8.13995-.01-.09-.04-.19.03-.27.12-.04.19.05.26.1a13.46117,13.46117,0,0,0,9.36,1.71,6.27538,6.27538,0,0,0,5.06-3.87,11.88639,11.88639,0,0,0,.87-3.27A28.84435,28.84435,0,0,0,294,421.09Zm-5.51,7.22a6.72573,6.72573,0,0,1-.43,1.64,2.76254,2.76254,0,0,1-1.64,1.57,6.07764,6.07764,0,0,1-2.77.31,42.19766,42.19766,0,0,1-4.84-.83c-.29-.06-.29-.24-.29-.47.01-1.6,0-3.2,0-4.8,0-1.58.01-3.16-.01-4.74a.7334.7334,0,0,1,.39-.7,23.12883,23.12883,0,0,1,3.24-1.85,6.48942,6.48942,0,0,1,3.19-.56,2.98109,2.98109,0,0,1,2.7,1.92,8.24651,8.24651,0,0,1,.56,2.44A24.174,24.174,0,0,1,288.49,428.31Z" transform="translate(-242.28559 -241.73276)"/><path class="cls-4" d="M367.38345,405.12526c1.54357,0,3.02717-.0042,4.51073.00286.38833.00186.85866-.152,1.1431.06488.28056.21391.25659.70537.35791,1.077q2.94637,10.80693,5.883,21.61648c.28545,1.05337.52673,2.11979.75082,3.18806.071.33845.19513.44468.53671.4352.66573-.01852.65308-.00063.81051-.65116.62842-2.59674,1.36734-5.16433,2.05825-7.74457q2.3376-8.7296,4.68392-17.45685c.14236-.53038.14346-.53135.68665-.53161q2.315-.00105,4.62989-.00026h.45681a.78835.78835,0,0,1-.06089.48122Q389.607,419.78856,385.383,433.9706c-.03338.1121-.06116.22612-.09966.33642a1.89124,1.89124,0,0,1-1.93405,1.40394c-1.36732.015-2.7349.00467-4.10239.00489-.41024.00006-.82073.00828-1.23065-.00325a1.91547,1.91547,0,0,1-1.93877-1.48023q-4.28475-14.3161-8.56546-28.63342C367.47349,405.47,367.44131,405.33919,367.38345,405.12526Z" transform="translate(-242.28559 -241.73276)"/><path class="cls-4" d="M311.3,427.13a15.02118,15.02118,0,0,0,1.64-.09,4.68413,4.68413,0,0,0,4.29-3.64,9.51588,9.51588,0,0,0,.12-4.47,6.0234,6.0234,0,0,0-3.66-4.55,7.3858,7.3858,0,0,0-1.32-.47,19.03888,19.03888,0,0,0-8.88-.08,6.9973,6.9973,0,0,0-5.43,4.65,14.03968,14.03968,0,0,0-.42,1.4,23.79976,23.79976,0,0,0-.42,6.99,14.79016,14.79016,0,0,0,.77,3.95,7.03709,7.03709,0,0,0,4.26,4.53,11.68807,11.68807,0,0,0,2.78.7,29.58473,29.58473,0,0,0,9.15-.35,11.801,11.801,0,0,0,2.51-.79.342.342,0,0,0,.24-.44c-.15-.92-.29-1.85-.4-2.78-.03-.29-.14-.35-.4-.32-.57.07-1.13.12-1.69.17a49.43945,49.43945,0,0,1-6.55.3,7.90339,7.90339,0,0,1-2.59-.47,2.8686,2.8686,0,0,1-1.25-.83,6.16983,6.16983,0,0,1-1.17-3.42h.63C306.11,427.12,308.7,427.12,311.3,427.13Zm-8.5-4.21a10.803,10.803,0,0,1,.38-2.65,3.12932,3.12932,0,0,1,2.46-2.39,10.09506,10.09506,0,0,1,4.41-.05,2.3774,2.3774,0,0,1,2.1,2.38,4.62317,4.62317,0,0,1-.07,1.57,1.71446,1.71446,0,0,1-1.86005,1.56c-1.15.01-2.3,0-3.45,0H303.2C302.79,423.34,302.78,423.33,302.8,422.92Z" transform="translate(-242.28559 -241.73276)"/><path class="cls-4" d="M360.54794,409.54333c-1.48664-.08486-2.79568-.08533-4.10437-.07491a7.86823,7.86823,0,0,0-2.58642.43,4.47451,4.47451,0,0,0-2.78213,2.66226,13.09862,13.09862,0,0,0-.79044,3.4685,42.42936,42.42936,0,0,0-.09965,7.83805,17.81924,17.81924,0,0,0,.69933,3.96845,4.63021,4.63021,0,0,0,3.556,3.29158,8.14164,8.14164,0,0,0,1.91326.24338,72.77739,72.77739,0,0,0,8.89094-.404c.30545-.03589.36276.054.39018.32111.11356,1.10652.24874,2.21083.37188,3.31639.05591.50185.05223.5047-.40287.63228a23.42629,23.42629,0,0,1-3.49729.69609,39.62347,39.62347,0,0,1-7.13384.25249,14.9329,14.9329,0,0,1-3.90015-.732,8.38034,8.38034,0,0,1-5.38854-5.08228,19.46575,19.46575,0,0,1-1.14415-4.58584,42.241,42.241,0,0,1-.21866-8.65212,24.19317,24.19317,0,0,1,1.13742-6.08055,8.682,8.682,0,0,1,6.52762-5.93632,18.919,18.919,0,0,1,4.64361-.52245,36.93627,36.93627,0,0,1,7.39822.645c.36287.07436.72134.17163,1.08573.23656.23867.04253.33238.14557.29942.39476q-.24187,1.82819-.46246,3.65916c-.0316.26634-.18175.23834-.36933.22422C363.17884,409.64756,361.77551,409.5574,360.54794,409.54333Z" transform="translate(-242.28559 -241.73276)"/><path class="cls-4" d="M320.57446,435.71573v-.6406q0-10.22244.00131-20.44485c.00023-.71663-.08734-.62816.611-.631q1.72847-.007,3.457-.00008c.42719.00113.44041.00486.49327.43685.1066.87108.19728,1.74412.295,2.621.2469.05467.36246-.14093.50768-.24469a20.35618,20.35618,0,0,1,5.01991-2.73019,10.92283,10.92283,0,0,1,5.00524-.6447,6.367,6.367,0,0,1,1.69637.42387,4.26107,4.26107,0,0,1,2.06739,1.65377,6.1024,6.1024,0,0,1,1.09836,3.32777c-.02135,5.42844-.00912,10.857-.00911,16.28554a2.87723,2.87723,0,0,0,.00114.29273c.02352.22894-.07008.31046-.30076.29887-.33119-.01664-.66384-.00409-.99586-.00409-1.25,0-2.5-.00717-3.74989.00541-.27751.00279-.376-.07344-.36755-.36163.01956-.66334.006-1.32765.006-1.99158q-.00009-6.18033.00017-12.36065a6.95448,6.95448,0,0,0-.14035-1.62937,1.60963,1.60963,0,0,0-1.465-1.37839,6.77918,6.77918,0,0,0-3.28216.3792,26.34137,26.34137,0,0,0-4.31152,2.08058.4.4,0,0,0-.22892.42553c.00891.1361.00138.27327.00138.40995q0,6.854,0,13.708c0,.15621-.00563.31263.00025.46861.00651.17238-.06939.25283-.24141.24349-.01945-.00106-.03905.00062-.05858.00062C324.00743,435.71575,322.33008,435.71573,320.57446,435.71573Z" transform="translate(-242.28559 -241.73276)"/></g></svg>