<svg id="Layer_1" data-name="Layer 1" xmlns="http://www.w3.org/2000/svg" viewBox="0 0 299.78213 383.34354"><defs><style>.cls-1{fill:#030304;}.cls-2{fill:#46ad4b;}.cls-3{fill:#cd1d56;}</style></defs><g id="Q6ShZv.tif"><path class="cls-1" d="M237.35323,436.54223H218.41275c-13.28-.86032-24.39039-6.72878-34.52359-14.89847-2.76272-2.22737-6.45452-2.71556-9.3512-4.62255-12.44166-8.19084-25.67032-14.81557-38.92968-21.59677-18.71931-9.5737-29.47562-26.28186-33.2759-47.15539a8.47483,8.47483,0,0,0-.515-2.43011c-4.86465-9.23528-7.41859-19.70994-12.92662-28.38727C81.12651,305.22,77.96589,292.43054,78.328,278.283a67.53926,67.53926,0,0,1,8.63757-32.35131c1.31945-2.31546,2.41462-4.92646,4.47522-6.55321,8.95878-7.07263,10.82162-18.46715,16.89473-27.28,1.12239-1.62873,1.114-3.80413,1.52933-5.75069a59.30929,59.30929,0,0,1,14.82659-28.35464c3.91821-4.23441,3.97209-5.59965-1.04652-8.78944a70.99811,70.99811,0,0,1-14.17226-11.68136c-.45145-.48742-.00656.19123-.33063-.36672-7.72445-13.29889-18.39814-25.08466-21.072-40.98-.11022-.65523-.46546-1.37633-.28119-1.95731,2.277-7.17917-.88212-13.271-3.186-19.82125C81.40993,85.3192,85.547,75.686,94.05221,69.655c7.50131-5.31913,16.08777-7.76316,25.06815-9.04721,1.97077-.28179,4.11305-.21335,5.74562-1.44068,7.927-5.95937,17.09688-5.90683,26.259-5.28a65.2091,65.2091,0,0,0,10.88757-.273c8.0024-.78132,15.895-.67731,23.40258,2.80768a21.65385,21.65385,0,0,0,6.66838,1.937A43.69686,43.69686,0,0,1,217.67919,70.5722c2.16838,2.05829,4.35738,4.1154,6.32521,6.3583,2.52052,2.87288,4.40945,3.11252,7.09046-.12038a57.47567,57.47567,0,0,1,19.7473-14.88727,31.94489,31.94489,0,0,1,12.35713-3.54621,13.36,13.36,0,0,0,5.29367-1.28015c8.53382-4.18492,17.5894-4.41284,26.75649-3.38313,6.30357.70806,12.57568-.24515,18.86935-.01964,4.231.15161,8.544.51866,11.97463,2.83667,4.933,3.33315,10.39688,4.09164,15.96537,4.99034a44.61507,44.61507,0,0,1,19.2234,7.78114C372.308,77.21946,375.00507,89.687,368.01875,101.274c-1.1678,1.93686-1.862,3.723-1.33372,6.06744,2.54665,11.30174-1.44042,20.89987-8.08942,29.71578-1.30069,1.72457-2.76712,3.295-3.4643,5.413-3.54513,10.76952-10.83631,18.47915-20.12852,24.54381a44.19085,44.19085,0,0,0-3.71919,2.50423c-3.86138,3.12065-4.01574,4.44562-.6755,7.97217a58.89474,58.89474,0,0,1,15.62871,31.15536c.61443,3.58027,2.61747,6.40142,4.10219,9.53557,3.84844,8.12373,8.32847,15.62537,14.69061,22.24787,7.08762,7.37765,9.69561,17.28926,11.617,27.1491,3.52892,18.10943.70609,35.01039-10.17615,50.23157-1.2828,1.79427-1.83016,3.87531-2.6448,5.8701-5.2536,12.864-9.74589,26.01913-14.68605,38.97922-7.50188,19.6804-22.42163,32.57438-42.57941,39.04928a25.79887,25.79887,0,0,0-9.85841,5.51087,53.18942,53.18942,0,0,1-13.364,8.62463,117.96529,117.96529,0,0,0-19.08392,11.59852C256.27843,433.208,247.107,435.83213,237.35323,436.54223Z" transform="translate(-78.30023 -53.19869)"/><path class="cls-2" d="M138.45271,94.98016c.521,2.01885,2.10571,1.98786,3.23056,2.45263,22.73464,9.39362,41.435,24.06512,57.0686,42.94661,3.27294,3.95289,3.12529,7.30483.55594,11.17817-4.991,7.524-12.40985,11.32224-20.87332,13.288-10.27975,2.38763-20.45067,2.15475-30.02975-2.79963-2.361-1.22114-5.85529-2.22888-3.61333-6.63693,1.02542-2.01613-1.69322-1.90262-2.91536-2.26657-6.25952-1.86406-12.51454-3.98041-16.75258-9.1602-1.77346-2.16755-7.56472-4.76657-1.15485-8.719,1.43672-.88589-.62131-2.14193-1.59973-2.8474-4.749-3.42427-9.17192-7.16617-11.9605-12.44824-2.80981-5.32229-2.15715-6.71371,3.62519-7.45858,2.78565-.35884,3.127-1.96313,2.72715-4.21385a29.01788,29.01788,0,0,0-8.41-15.48681c-3.87869-3.93677-3.6568-5.06573,1.41671-7.292,8.18139-3.59,16.72413-3.78065,25.38909-2.502,1.27078.18752,2.666,1.25452,3.73054.08391,1.03188-1.13466-.37888-2.05208-.88508-3.00478-1.48707-2.79871.04237-3.91088,2.4898-4.60984,6.14161-1.754,11.79325.1011,17.37649,2.34876,1.53282.61707,2.95834,1.49807,4.44274,2.23865,2.06686,1.03118,3.96685,1.25083,2.84832-1.90059-1.38824-3.91133.98448-3.775,3.48136-3.81034,6.94148-.09833,12.5035,2.81346,17.05,7.87707,2.03424,2.26559,3.88921,4.55468,4.86887-.73062.36692-1.97956,1.82342-1.7264,3.50651-1.2114,14.402,4.40675,28.52139,26.26738,26.2026,40.93952a19.13046,19.13046,0,0,1-7.90022,12.79121c-2.88152,2.11183-4.98282,2.11589-7.46148-1.08239-15.80637-20.39534-36.71957-32.618-61.83925-37.88769C141.62964,94.75411,140.16881,94.29562,138.45271,94.98016Z" transform="translate(-78.30023 -53.19869)"/><path class="cls-2" d="M317.65692,94.90655c-4.58076-.52258-8.6501.95733-12.658,2.07249a100.81165,100.81165,0,0,0-53.72176,35.7807c-2.55467,3.26995-4.74661,3.55048-7.8448,1.144-8.044-6.2481-9.43487-14.57945-6.936-23.70491a45.19291,45.19291,0,0,1,23.2051-29.08247c2.5272-1.33716,5.03006-2.77624,6.20581,1.98.83335,3.37118,2.67044.91389,3.78951-.29195,4.45875-4.80448,9.72654-8.0026,16.41361-8.31264,2.66872-.12373,6.13506-1.2158,4.30269,4.10841-.9643,2.8019,1.49322,2.24087,3.01761,1.3872a42.12687,42.12687,0,0,1,12.9982-4.81124,17.14042,17.14042,0,0,1,7.40273-.02652c3.11628.79047,6.41215,1.61008,2.78708,5.75577a1.62379,1.62379,0,0,0-.16689,2.251c.83315.85074,1.85131.24388,2.7934.00541a40.56782,40.56782,0,0,1,25.78957,2.11345c5.45366,2.21492,5.65073,3.38333,1.58894,7.49242a31.33121,31.33121,0,0,0-8.12251,14.59274c-.84035,3.27266-.40492,5.31257,3.52146,5.037,4.24615-.29805,4.17028,1.98184,3.23839,5.0665-1.89307,6.26627-6.52229,10.20029-11.42053,14.01086-1.78126,1.38572-6.1435,2.65979-.79441,5.4686,2.04777,1.0753.64988,2.86212-.22856,4.28137-4.00579,6.472-10.28792,9.64181-17.19877,11.92457-2.38078.7864-5.71346.76389-3.80991,5.02176.6737,1.50693-1.07557,2.21927-2.10543,2.97348-12.83834,9.40183-40.35637,6.22-50.72486-5.85056-5.58363-6.50023-5.58146-9.57569-.06057-16.24217a144.82905,144.82905,0,0,1,53.58155-40.349C315.59867,97.32622,315.59832,97.32543,317.65692,94.90655Z" transform="translate(-78.30023 -53.19869)"/><path class="cls-3" d="M215.76263,260.8861c-.52866,13.53763-8.1704,27.03471-23.3746,35.62271-22.51928,12.71987-47.40468-1.30413-48.71981-27.12736-.89507-17.57526,10.70424-36.132,26.88946-43.01814C193.48722,216.60777,215.68037,231.62319,215.76263,260.8861Z" transform="translate(-78.30023 -53.19869)"/><path class="cls-3" d="M311.25093,267.664c-.21936,26.59305-24.35622,41.31252-47.91078,29.21765-17.1125-8.787-27.07991-29.5946-23.03532-48.08767,4.52761-20.70147,24.55646-30.90273,44.09842-22.46054A45.10119,45.10119,0,0,1,311.25093,267.664Z" transform="translate(-78.30023 -53.19869)"/><path class="cls-3" d="M227.77012,366.82153c-11.08657-.02576-20.88439-3.42928-28.87144-11.28041-12.02431-11.81969-12.62191-28.90057-1.58119-41.6846,14.88352-17.23359,46.67787-16.992,61.26515.46562,11.52915,13.79772,9.62225,32.48577-4.47042,43.6043A40.84988,40.84988,0,0,1,227.77012,366.82153Z" transform="translate(-78.30023 -53.19869)"/><path class="cls-3" d="M290.137,382.69925c-12.20674.19836-17.84643-6.42184-14.31465-18.12468,5.75138-19.05762,17.68753-33.64678,35.05255-43.284,10.89931-6.04889,19.00456-1.52156,21.24868,10.8702C336.56907,356.70826,315.316,382.29013,290.137,382.69925Z" transform="translate(-78.30023 -53.19869)"/><path class="cls-3" d="M165.23419,382.69219c-25.35036-.59613-46.65325-26.93757-41.55992-51.38966,2.34987-11.28123,9.984-15.6023,20.18091-10.22681,18.2944,9.64422,30.482,24.84883,36.2353,44.67785C183.22805,376.5674,177.12528,382.97181,165.23419,382.69219Z" transform="translate(-78.30023 -53.19869)"/><path class="cls-3" d="M227.27659,215.55893c-9.36172.04267-18.50958-1.125-27.10892-5.06036-12.12048-5.54674-13.55538-14.3733-3.90192-23.55694,16.96124-16.13576,47.97378-15.30235,64.01705,1.72035,7.36753,7.81732,6.25488,15.34547-3.22516,20.61679C247.80494,214.42371,237.63211,215.50552,227.27659,215.55893Z" transform="translate(-78.30023 -53.19869)"/><path class="cls-3" d="M227.22954,383.62319c9.79417.19489,18.69541,1.09631,26.8459,5.36745,9.59407,5.02763,10.10955,12.41923,1.45876,18.85973-16.28188,12.12187-40.62687,11.70858-56.66065-.96188-6.99725-5.52948-6.77376-12.14521.83737-16.845C208.36066,384.70225,218.1364,383.90633,227.22954,383.62319Z" transform="translate(-78.30023 -53.19869)"/><path class="cls-3" d="M283.89382,178.17647c20.21279.29,37.762,14.71924,41.68829,33.4548a21.79547,21.79547,0,0,1,.4473,5.42531c-.26136,5.61894-3.6038,8.17587-9.05116,6.46791-10.34539-3.24365-18.66158-9.88622-26.70573-16.8471a82.79137,82.79137,0,0,1-12.96239-13.71233c-2.31271-3.17662-5.23453-6.58111-3.25308-10.82722C276.22631,177.48927,280.93057,178.38274,283.89382,178.17647Z" transform="translate(-78.30023 -53.19869)"/><path class="cls-3" d="M129.61538,213.30762c2.00145-14.12894,11.19456-24.989,25.51509-31.97055A34.05285,34.05285,0,0,1,173.391,177.6519c8.60261.81127,10.93889,5.66579,6.17888,12.95039-5.20743,7.96936-12.1313,14.40652-19.5386,20.30828a76.9265,76.9265,0,0,1-19.48638,11.74909C133.20577,225.56219,129.40706,222.88763,129.61538,213.30762Z" transform="translate(-78.30023 -53.19869)"/><path class="cls-3" d="M329.0281,271.86649a64.598,64.598,0,0,1,2.534-19.18052c2.2651-7.71371,8.25336-9.04415,13.81526-3.32771,12.38183,12.72587,15.062,36.803,5.78114,51.94273-1.94332,3.17012-4.067,6.57564-8.17925,6.47443-4.43412-.10907-6.2832-3.963-7.88187-7.43462A68.09384,68.09384,0,0,1,329.0281,271.86649Z" transform="translate(-78.30023 -53.19869)"/><path class="cls-3" d="M125.84854,270.74437a68.79487,68.79487,0,0,1-6.32838,29.97192c-1.45694,3.152-3.054,6.69046-7.09539,6.91516-3.97021.22069-6.10307-2.99183-8.03159-5.88372-9.60468-14.40264-7.10719-40.01611,5.02893-52.42263,5.44112-5.5623,11.11755-4.43389,13.62536,2.9151A53.23474,53.23474,0,0,1,125.84854,270.74437Z" transform="translate(-78.30023 -53.19869)"/></g></svg>