<svg id="Layer_1" data-name="Layer 1" xmlns="http://www.w3.org/2000/svg" viewBox="0 0 308.41873 274.66826"><defs><style>.cls-1{fill:#81d6f5;}</style></defs><g id="R5nB7L.tif"><path class="cls-1" d="M380.31,277.24a28.69013,28.69013,0,1,0,28.58,28.82A28.65371,28.65371,0,0,0,380.31,277.24Zm0,0a28.69013,28.69013,0,1,0,28.58,28.82A28.65371,28.65371,0,0,0,380.31,277.24Zm0,0a28.69013,28.69013,0,1,0,28.58,28.82A28.65371,28.65371,0,0,0,380.31,277.24Zm0,0a28.69013,28.69013,0,1,0,28.58,28.82A28.65371,28.65371,0,0,0,380.31,277.24Zm0,0a28.69013,28.69013,0,1,0,28.58,28.82A28.65371,28.65371,0,0,0,380.31,277.24Zm0,0a28.69013,28.69013,0,1,0,28.58,28.82A28.65371,28.65371,0,0,0,380.31,277.24Zm0,0a28.69013,28.69013,0,1,0,28.58,28.82A28.65371,28.65371,0,0,0,380.31,277.24Zm0,0a28.69013,28.69013,0,1,0,28.58,28.82A28.65371,28.65371,0,0,0,380.31,277.24Zm0,0a28.69013,28.69013,0,1,0,28.58,28.82A28.65371,28.65371,0,0,0,380.31,277.24Zm0,0a28.69013,28.69013,0,1,0,28.58,28.82A28.65371,28.65371,0,0,0,380.31,277.24Zm0,0a28.69013,28.69013,0,1,0,28.58,28.82A28.65371,28.65371,0,0,0,380.31,277.24Zm0,0a28.69013,28.69013,0,1,0,28.58,28.82A28.65371,28.65371,0,0,0,380.31,277.24ZM534.5,304.4a25.25993,25.25993,0,0,0-3.47-12.11,48.24964,48.24964,0,0,0-9.21-11.51,76.83817,76.83817,0,0,0-9.97-7.94,138.37678,138.37678,0,0,0-24.47-12.82c-5.26-2.18-10.65-4.01-16.06-5.78-1.17-.38-1.18-.4-.93-1.6.54-2.72,1.1-5.44,1.6-8.17a156.25145,156.25145,0,0,0,2.5-21.11,79.74888,79.74888,0,0,0,.13-10.26c-.24-3.04-.31-6.09-.67-9.12a56.9668,56.9668,0,0,0-6.04-20.59,27.61733,27.61733,0,0,0-13.53-12.85,18.98211,18.98211,0,0,0-6.22-1.66c-1.77-.13-3.55-.05-5.31-.27h-1.44c-.18.15-.38995.1-.59.1h-.26a34.27163,34.27163,0,0,0-5.17.31,50.95461,50.95461,0,0,0-10.68,2.94c-9.55,3.59-18.18,8.81-26.41,14.76a210.27244,210.27244,0,0,0-17.08,14.02c-1.1.99-1.15,1.01-2.24-.01-1.91-1.78-3.86-3.49-5.85-5.18a164.65815,164.65815,0,0,0-19.63-14.41,98.20507,98.20507,0,0,0-22.09-10.39A47.19629,47.19629,0,0,0,312.71,168.99a24.026,24.026,0,0,0-15,7.18,32.83813,32.83813,0,0,0-7.13,10.85c-3.42005,8.03-4.66,16.53-4.97,25.17a114.83556,114.83556,0,0,0,.35,14.48c.36,4.13.78,8.24,1.4,12.34q1.035,6.81,2.54,13.54c.3,1.37.28,1.4-1.03,1.82-1.61.5-3.19,1.05-4.78,1.59a163.48329,163.48329,0,0,0-26.58,11.53c-7.86,4.34-15.23,9.37-21.43,15.96a42.7036,42.7036,0,0,0-7.37,10.35,21.10555,21.10555,0,0,0-2.4,7.61c-.09,1.15-.03,2.31-.22,3.45v2.06c.15.18.1.39.1.59a21.43925,21.43925,0,0,0,.66,5.8,32.46454,32.46454,0,0,0,4.01,8.53,55.881,55.881,0,0,0,12.83,13.52,106.31313,106.31313,0,0,0,17.94,11.21,186.02809,186.02809,0,0,0,27.67,11.05c1.09.35,1.13.41.88,1.54-1.46,6.8-2.64,13.65-3.42,20.57-.55,4.8-.81,9.62-.94,14.44a91.56872,91.56872,0,0,0,.55,11.7,67.33127,67.33127,0,0,0,3.54,16.54,34.92309,34.92309,0,0,0,8.75,13.99,25.3787,25.3787,0,0,0,12.04,6.37,32.87537,32.87537,0,0,0,5.52.44,42.70494,42.70494,0,0,0,8.9-.38995,69.96448,69.96448,0,0,0,20.37-7.23,121.17274,121.17274,0,0,0,14.74-9A186.72179,186.72179,0,0,0,377.03,413.2c.97-.87,1.88995-1.79,2.9-2.62a.815.815,0,0,1,1.25.04q3.855,3.555,7.9,6.89a139.34512,139.34512,0,0,0,29.23,19.23c8.59,4.07,17.46,6.83,27.15,6.37a25.76394,25.76394,0,0,0,17.97-7.92,35.46649,35.46649,0,0,0,7.64-12.81c2.98-8.16,3.82-16.66,4.09-25.25.12006-3.53-.18-7.05-.37-10.57-.21-3.84-.65-7.64-1.15-11.45-.71-5.36-1.72-10.68-2.89-15.97-.25-1.14-.22-1.19.87-1.56,2.85-.98,5.73-1.88,8.56-2.92a161.68535,161.68535,0,0,0,23.06-10.37c8.28-4.61,16.03-9.92,22.36-17.1a42.15231,42.15231,0,0,0,6.86-10.45C534.25,312.81,534.57,308.67,534.5,304.4ZM391.87,210.58c8.93-8.13,18.4-15.51,29.1-21.2,5.8-3.09,11.83-5.58,18.42-6.46a20.49431,20.49431,0,0,1,7.84.36c3.57.9,5.95,3.28,7.74,6.34a38.12755,38.12755,0,0,1,4.33,13.2,89.02423,89.02423,0,0,1,1.06,14.22,147.4377,147.4377,0,0,1-2.79,26.32c-.38,1.95-.78,3.89-1.15,5.84-.15.81-.32995,1.21-1.38.95-8.87-2.18-17.86-3.82-26.91-5.13-3.52-.51-7.06-.88-10.6-1.29a2.55559,2.55559,0,0,1-1.96-1.08,294.57853,294.57853,0,0,0-23.85-28.8c-.52-.54-1.34-1.13-1.36-1.71C390.33,211.5,391.32,211.08,391.87,210.58ZM316.03,323.95c.09-.22.18994-.44.38995-.88a337.03707,337.03707,0,0,0,17.24,29.72c-2.78-.44-5.31-.8-7.81994-1.25-5.62006-1.01-11.22-2.11-16.78-3.43-.92-.22-1.12-.51-.84-1.45Q311.64,335.14,316.03,323.95ZM308,265.1c-.28-.94,0-1.17.83-1.36q11.805-2.685,23.78-4.53a8.59033,8.59033,0,0,1,.89,0c-6.17,9.64-11.81,19.44-16.96,29.52-.1,0-.2.01-.3.01-1.04-2.75-2.11-5.49-3.12-8.25C311.26,275.41,309.59,270.27,308,265.1Zm16.12,41.89a1.9354,1.9354,0,0,1,.05-1.84,336.40454,336.40454,0,0,1,16.89-31.42c3.24-5.34,6.64-10.57,10.14-15.74a2.25131,2.25131,0,0,1,1.85-1.07c9.1-.66,18.2-1.2,27.32-1.06,4.84-.08,9.68.03,14.51.26,4.34.2,8.68.54,13.02.79a1.39585,1.39585,0,0,1,1.12.78q7.52994,10.875,14.2,22.29c4.75,8.11,9.1,16.43,13.15,24.92a2.01233,2.01233,0,0,1-.01,1.92005,349.64034,349.64034,0,0,1-26.19,45.99,4.8109,4.8109,0,0,1-4.12,2.35,338.06958,338.06958,0,0,1-34.43.9c-5.79-.12-11.57-.52-17.35-.86a4.31151,4.31151,0,0,1-3.71-2.25A342.38836,342.38836,0,0,1,324.12,306.99Zm119.9,15.91a18.28608,18.28608,0,0,1,1.4,3.22q3.96,10.245,7.1,20.78c.18.6.21.89-.54,1.07-8.13,1.91-16.31,3.52-24.57,4.73a2.335,2.335,0,0,1-.45-.06A338.08114,338.08114,0,0,0,444.02,322.9Zm.38-34.86c-.06.15-.15.3-.29.58a3.12523,3.12523,0,0,1-.33-.4,331.59247,331.59247,0,0,0-16.84-28.96,10.86177,10.86177,0,0,1,3.54.37q10.65006,1.695,21.14,4.14c.72.17.94.38.71,1.16C450.02,272.75,447.35,280.44,444.4,288.04Zm-64.85-65.45c.5-.53.76-.32,1.14.08,3.36,3.56,6.68,7.17,9.83,10.92,2.09,2.49,4.13,5.03,6.2,7.55.19.23.37006.48.55.72-.03.1-.06.2-.08.3a324.79735,324.79735,0,0,0-34.04,0c-.04-.08-.08-.17-.12-.26.85-1.09,1.68-2.19,2.55-3.28C370.01,233.08,374.7,227.76,379.55,222.59Zm-79.58-4.77c.02-7.69.5-14.24,2.29-20.63a26.81023,26.81023,0,0,1,4.62-9.68,12.04527,12.04527,0,0,1,9.41-4.5c5.9-.27,11.39,1.4,16.73,3.63,8.8,3.67,16.69,8.87,24.23,14.64,4.14,3.17,8.11,6.54,11.96,10.05.68.62.87.98.13,1.76q-6.795,7.17-13.07,14.8-5.94,7.22993-11.42,14.81a2.30806,2.30806,0,0,1-1.78,1.01,280.05957,280.05957,0,0,0-37.72,6.51c-.86.22-1.15.08-1.35-.83a181.07093,181.07093,0,0,1-3.55-22.19A87.23913,87.23913,0,0,1,299.97,217.82ZM294.7,342.93c-.29.99-.64,1.11-1.57.81a166.21554,166.21554,0,0,1-25.51-10.31c-7.6-3.96-14.84-8.45-20.88-14.65a26.55547,26.55547,0,0,1-5.51-7.87,13.785,13.785,0,0,1-1.13995-4.93,15.43461,15.43461,0,0,1,2.74-8.02,43.18206,43.18206,0,0,1,11.11-11.16c8.69-6.44,18.36-11.05,28.41-14.91,3.49-1.35,7.04-2.5,10.57-3.71.98-.33,1.32-.18,1.61005.82,2.21,7.68,4.85,15.21,7.75,22.65,1.77,4.57,3.63995,9.1,5.65,13.57a1.77815,1.77815,0,0,1,.05,1.56A288.65013,288.65013,0,0,0,294.7,342.93Zm75.14,57.31c-10.11005,9.23-20.8,17.66-33.19,23.7a51.9493,51.9493,0,0,1-15.08,4.94,20.88314,20.88314,0,0,1-7.76-.15,12.39225,12.39225,0,0,1-7.8-5.79,35.05029,35.05029,0,0,1-4.57-12.79,86.452,86.452,0,0,1-1.26-15.73,140.0772,140.0772,0,0,1,2.2-22.59c.56-3.1,1.19-6.19,1.75-9.29.15-.84.41-1.1,1.32-.87,7.85,1.96,15.78,3.46,23.78,4.67,4.77.72,9.56,1.29,14.35,1.89a1.55993,1.55993,0,0,1,1.17.69q7.545,10.35,15.91,20.05,4.44,5.145,9.12006,10.06C370.19,399.45,370.41,399.72,369.84,400.24Zm11.12-11.02c-.48.52-.74.35-1.14-.06-3.26-3.34-6.36-6.81-9.4-10.35-2.49-2.92-4.94-5.86-7.46-9.13,5.96.23,11.67.44,17.39.45,5.68,0,11.35-.17,17.31-.45-1.07995,1.39-1.99,2.57-2.92,3.73C390.37,378.87,385.74,384.12,380.96,389.22Zm79.6,5.9c-.05,7.04-.54,14.03-2.68,20.8a22.68971,22.68971,0,0,1-5.25,9.54,11.38363,11.38363,0,0,1-7.75,3.31c-6.11.37-11.81-1.29-17.35-3.61-8.83-3.7-16.74-8.92-24.3-14.71-4.13995-3.17-8.1-6.55-11.96-10.05-.68-.61-.75-.98-.08-1.69q7.77-8.22,14.88-17.03,5.00994-6.195,9.67-12.66a2.17566,2.17566,0,0,1,1.71-.94,286.349,286.349,0,0,0,37.91-6.53c.75-.19.96-.07,1.14.71a169.44736,169.44736,0,0,1,3.59,22.39A96.29718,96.29718,0,0,1,460.56,395.12Zm56.11-79.78A51.09649,51.09649,0,0,1,504.03,326.84a122.82077,122.82077,0,0,1-26.47,13.33c-3.37,1.27-6.8,2.35-10.19,3.57-.82.3-1.11.1-1.36-.72a296.33255,296.33255,0,0,0-11.82-32.64c-.52-1.23-1.03-2.46-1.61-3.67a2.1013,2.1013,0,0,1,.06-1.95,301.01564,301.01564,0,0,0,11.3-29.77c.68-2.12,1.31-4.26,1.94-6.39.17-.59.36-.85,1.07-.62,11.22,3.6,22.15,7.87,32.3,13.95a70.83353,70.83353,0,0,1,13.48,10.06c3.25,3.19,6.14,6.66,7.33,11.22a10.85466,10.85466,0,0,1,.38,2.91A16.87457,16.87457,0,0,1,516.67,315.34ZM380.15,334.62a28.69014,28.69014,0,1,0-28.65-28.78A28.56157,28.56157,0,0,0,380.15,334.62Zm.16-57.38a28.69013,28.69013,0,1,0,28.58,28.82A28.65371,28.65371,0,0,0,380.31,277.24Zm0,0a28.69013,28.69013,0,1,0,28.58,28.82A28.65371,28.65371,0,0,0,380.31,277.24Zm0,0a28.69013,28.69013,0,1,0,28.58,28.82A28.65371,28.65371,0,0,0,380.31,277.24Zm0,0a28.69013,28.69013,0,1,0,28.58,28.82A28.65371,28.65371,0,0,0,380.31,277.24Zm0,0a28.69013,28.69013,0,1,0,28.58,28.82A28.65371,28.65371,0,0,0,380.31,277.24Zm0,0a28.69013,28.69013,0,1,0,28.58,28.82A28.65371,28.65371,0,0,0,380.31,277.24Zm0,0a28.69013,28.69013,0,1,0,28.58,28.82A28.65371,28.65371,0,0,0,380.31,277.24Zm0,0a28.69013,28.69013,0,1,0,28.58,28.82A28.65371,28.65371,0,0,0,380.31,277.24Zm0,0a28.69013,28.69013,0,1,0,28.58,28.82A28.65371,28.65371,0,0,0,380.31,277.24Zm0,0a28.69013,28.69013,0,1,0,28.58,28.82A28.65371,28.65371,0,0,0,380.31,277.24Zm0,0a28.69013,28.69013,0,1,0,28.58,28.82A28.65371,28.65371,0,0,0,380.31,277.24Zm0,0a28.69013,28.69013,0,1,0,28.58,28.82A28.65371,28.65371,0,0,0,380.31,277.24Z" transform="translate(-226.09003 -168.60999)"/></g></svg>