<svg id="Layer_1" data-name="Layer 1" xmlns="http://www.w3.org/2000/svg" viewBox="0 0 511.37546 511.46223"><defs><style>.cls-1{fill:#252528;}.cls-2{fill:#414144;}.cls-3{fill:#39393c;}.cls-4{fill:#323232;}.cls-5{fill:#2c2c2c;}.cls-6{fill:#3b3b3b;}.cls-7{fill:#fefefe;}.cls-8{fill:#4c4c4c;}.cls-9{fill:#2a2a2d;}.cls-10{fill:#27272a;}</style></defs><g id="HCoDrf.tif"><path class="cls-1" d="M535.73153,513.67576h-6.98418a5.51444,5.51444,0,0,0-4.9887,0H252.37357a7.8201,7.8201,0,0,0-5.98643,0h-7.98192c-3.88341-.88573-7.89732-.5642-11.79232-1.18454-42.821-6.81947-71.61749-30.97148-87.64608-70.94783-5.29226-13.19924-6.7506-27.0334-6.76544-41.01828q-.151-142.36494-.0894-284.73016c-.03134-29.90677,9.3115-56.38336,29.69433-78.15808,20.07249-21.4432,45.10531-34.2088,74.86005-34.65846,98.05075-1.48175,196.11356-.29033,294.1708-.63933,29.71782-.10576,56.02062,9.33118,77.7177,29.53571,19.7069,18.3513,31.82334,41.0281,34.022,68.40758.24889,3.09958-.09433,6.28716.91054,9.32058v6.984a7.81949,7.81949,0,0,0,0,5.98626v272.375a7.81949,7.81949,0,0,0,0,5.98626v6.984c-1.31027,10.13242-1.76566,20.3387-5.2768,30.17191-13.9735,39.13375-41.29228,63.30059-81.35759,73.37257C549.94666,513.19907,542.73692,512.58329,535.73153,513.67576Z" transform="translate(-132.1119 -2.21353)"/><path class="cls-2" d="M643.48737,400.93445c-1.58-1.99542-1.349-3.99084,0-5.98626Z" transform="translate(-132.1119 -2.21353)"/><path class="cls-3" d="M643.48737,122.57318a4.60637,4.60637,0,0,1,0-5.98626Z" transform="translate(-132.1119 -2.21353)"/><path class="cls-3" d="M246.38714,513.67576a4.60678,4.60678,0,0,1,5.98643,0Z" transform="translate(-132.1119 -2.21353)"/><path class="cls-3" d="M523.75865,513.67576c1.66289-1.35572,3.32581-1.463,4.9887,0Z" transform="translate(-132.1119 -2.21353)"/><path class="cls-4" d="M360.14123,197.38359c1.82629-1.7619.44924-3.62114-.26393-5.03556-6.26443-12.424-4.92215-25.15371-2.54144-38.23214,3.93885-21.63788,7.25174-43.39059,10.74682-65.108,2.78543-17.30781,5.4421-34.63634,8.17294-51.953.55817-3.53952,2.12588-5.65911,6.27342-5.35112,4.46373.33147,8.97073.07593,13.45885.08541,2.91755.00616,4.69779,1.29991,5.01735,4.3501,1.67044,15.94629,3.25873,31.9021,5.07054,47.83244,2.16627,19.047,4.57609,38.06609,6.7883,57.108,1.14462,9.85232,2.37073,19.70866,3.04468,29.5983.63975,9.38805-2.97574,18.2494-4.3156,27.40783-.40658,2.77913-1.03915,5.52521-1.56826,8.28642.69846,6.11952-3.29974,9.60449-7.32377,13.08268-.64073.15777.20118.17814-.448.16536-5.98728-.11769-9.32235,2.32176-8.73606,8.775a3.39964,3.39964,0,0,1-1.01421,2.18243,4.16,4.16,0,0,1-3.11337,1.36211c-5.57934-.39648-10.55184,2.50175-15.98545,2.82444a2.98779,2.98779,0,0,1-1.67781-3.28973,25.7696,25.7696,0,0,0,5.30468-7.66507c1.26592-3.06294.31071-3.84916-2.63768-3.76774-2.302.06358-4.6766.18349-6.73487-1.25408A60.26811,60.26811,0,0,1,360.14123,197.38359Z" transform="translate(-132.1119 -2.21353)"/><path class="cls-4" d="M413.00025,325.123c-2.39338,2.89941-.53888,6.05291.33027,8.51163,2.11018,5.96948,1.16265,11.79766.55642,17.67517q-2.824,27.37946-5.91068,54.73159c-1.83163,16.096-3.91721,32.163-5.78155,48.25542q-1.28458,11.08828-2.13289,22.22585c-.56628,7.4347-1.25092,8.21891-8.543,8.2236-3.65812.00234-7.31664-.03822-10.97423.00475-3.39636.03988-4.959-1.45464-5.51715-4.95086-4.45959-27.93608-9.11338-55.84111-13.66292-83.76294q-4.11076-25.229-8.06542-50.48316a41.89721,41.89721,0,0,1-.1606-5.47638c-.78092-2.27819.2563-4.22265,1.21362-6.135,6.13495-12.2555,12.15644-24.57069,18.94688-36.48942a34.84063,34.84063,0,0,0,4.13211-8.39087c.85252-2.14967,1.65624-4.35545,4.134-5.24157a24.376,24.376,0,0,1,11.6633.1153c4.7592,4.33561,9.41135,8.79382,14.0364,13.28641,2.7774,8.33129,3.4853,17.16,6.12023,25.529A2.74049,2.74049,0,0,1,413.00025,325.123Z" transform="translate(-132.1119 -2.21353)"/><path class="cls-5" d="M403.03774,218.187c2.33471-3.93479,5.331-7.47834,6.987-11.81461,3.288-2.69386,5.32217-6.434,7.22786-10.00329,7.2615-13.60035,18.96356-22.718,30.70551-31.97838,18.064-14.2463,35.85726-28.83546,53.79994-43.23609q17.235-13.83265,34.5687-27.5423c2.84086-2.26,5.50331-2.71322,8.27161.34744,2.895,3.20072,6.06158,6.157,9.13229,9.19709,2.39006,2.36619,2.51323,4.66474.47725,7.47546q-39.79875,54.9431-79.46426,109.9826c-3.69823,5.12962-8.97552,7.69809-14.674,9.71652-2.02154-1.22605-2.13225-3.3529-2.04614-5.2601.19146-4.24-2.1825-4.74207-5.63692-4.79524-4.06145-.06254-4.49753,2.19044-4.51659,5.38267-.02138,3.58949.60979,7.29353-1.18259,10.71056a5.92552,5.92552,0,0,1-3.1943,2.26229,232.36211,232.36211,0,0,1-28.66424,5.82025c-2.72256.39416-4.773-1.24432-6.27055-3.34377-1.15224-1.61533-2.56052-3.0309-3.59126-4.73425C402.99944,230.45461,405.08206,224.10341,403.03774,218.187Z" transform="translate(-132.1119 -2.21353)"/><path class="cls-6" d="M413.00025,325.123c-4.38067-8.89089-5.03955-18.69-6.88175-28.20031,1.5192-1.487,3.37288-1.08908,5.1818-.90944a96.14472,96.14472,0,0,0,11.95789.21045c1.49-.03778,3.18221.074,4.11522-1.30907,1.37692-2.04115,3.38582-4.3549,2.526-6.72812-.74653-2.06064-3.5478-1.01071-5.43869-1.07227-4.15154-.1351-8.36237.18533-12.266-1.602-3.07272-1.40684-6.0554-3.00434-5.95215-7.12541,3.11169-5.50552,4.588-6.37569,10.22829-4.36136,10.52805,3.7599,21.63037,5.81174,31.76311,10.71806,4.38956,5.02606,9.12842,9.58722,15.64253,11.82933.62347.21459.88039.95627,1.01927,1.629q36.81453,45.96633,73.6354,91.92758,6.83933,8.532,13.82442,16.94644c2.64787,3.17183,3.17436,5.99205-.28862,9.01751a74.50118,74.50118,0,0,0-7.74478,7.76173c-3.00717,3.535-5.83094,3.46142-9.44193.82581-16.47646-12.02584-33.06893-23.8926-49.60528-35.8365-18.95525-13.691-37.83611-27.48625-56.88819-41.041-4.19247-2.98284-7.57853-6.28615-9.622-11.06921C417.06994,332.76693,414.93836,328.98626,413.00025,325.123Z" transform="translate(-132.1119 -2.21353)"/><path class="cls-5" d="M374.09239,298.33635q-7.25375,14.42921-14.50639,28.85895-3.23277,6.43655-6.44738,12.88227c-24.5188,18.95806-49.98565,36.62273-74.97281,54.94171-12.69633,9.30811-25.499,18.47132-38.18749,27.79-3.14788,2.31186-5.79678,2.78295-8.65963-.45514-2.6376-2.98329-5.60711-5.67222-8.41345-8.50757-2.82547-2.85475-2.71618-5.56609-.17621-8.7554,16.08991-20.20333,31.924-40.61137,48.1068-60.73944,12.96193-16.122,26.12208-32.08315,38.5769-48.60651a3.88687,3.88687,0,0,1,2.81337-.79353c18.48884,2.52007,37.0724.52745,55.59863,1.19611C370.1343,296.23113,372.5394,296.07229,374.09239,298.33635Z" transform="translate(-132.1119 -2.21353)"/><path class="cls-6" d="M360.14123,197.38359c4.23846,6.32914,5.46328,13.814,7.97861,20.80394-1.86008,2.56453-4.65652,2.14289-7.24069,2.15872-11.39551.06982-22.79263.12123-34.18684-.01018-5.70579-.06578-11.1779.53338-16.32085,3.2087-1.583.82344-3.288,1.67189-5.16228.6549q-23.72151-32.83322-47.44682-65.66372c-10.68269-14.76514-21.33643-29.552-32.13133-44.23488-5.48381-7.4589-5.58366-7.7892.98195-14.35459.35234-.35232.70943-.7,1.05632-1.05765,10.13436-10.44777,8.38959-8.83277,18.53432-.82181,26.36629,20.82057,52.52272,41.90685,78.76107,62.88939,6.98092,5.58256,14.08559,11.02,20.89451,16.80523C352.15773,183.11327,355.81,190.52622,360.14123,197.38359Z" transform="translate(-132.1119 -2.21353)"/><path class="cls-7" d="M305.20918,224.19967c6.483-4.58291,13.69123-6.07587,21.59056-5.93164,13.7683.25139,27.54621-.02523,41.3201-.0805h12.97364c-1.6892,4.11691-3.33845,7.619-4.55021,11.26655-.84706,2.54972-2.86425,1.56754-4.4162,2.04184-1.74186,2.00522-4.1297,1.88062-6.42764,1.843-12.71126-.2078-25.43458.59529-38.13725-.47634a8.83449,8.83449,0,0,0-5.31778.7176c-5.38846,1.91625-10.47655,4.31669-13.76206,9.31724-.98506,1.49923-2.43636,3.1523-1.704,4.98953.86233,2.16311,3.16787,1.36754,4.87791,1.375,16.12256.07042,32.24558,0,48.36825.05454,9.03269.03056,10.068,1.5764,6.92927,9.979-2.56,6.85323-3.947,7.87719-11.40078,7.90858-14.6267.06166-29.25383-.01833-43.88039.05974-1.70552.00907-3.99176-.78622-4.86979,1.38805-.75148,1.8609.65239,3.54929,1.68866,4.98478,3.80339,5.26873,8.84425,8.42692,15.52383,8.56317a64.89907,64.89907,0,0,1,6.9816.16424c7.43976.91048,14.83886-.54011,22.277-.27644,8.08629.28667,16.19422-.08245,24.276.62841,1.66477.09351,3.313.21,3.45227,2.4498-1.34145,3.27005-2.63515,6.56093-4.04687,9.80038-.599,1.37451-.63961,3.33321-2.863,3.37008-16.7127-.05535-33.42574-.18911-50.13791-.1185a36.63707,36.63707,0,0,1-14.54175-2.47263l-6.85528-4.73158c-2.55331-.66394-4.25875-2.37662-5.80036-4.42478a47.24378,47.24378,0,0,1-3.05323-51.21162c1.32556-2.28367,3.33978-3.61754,5.30641-5.11307Z" transform="translate(-132.1119 -2.21353)"/><path class="cls-7" d="M584.57657,275.20117c-3.39136,6.49937-7.09321,12.71926-13.19258,17.18606a28.04383,28.04383,0,0,1-17.12246,5.78756c-7.48088-.03407-14.987-.39244-22.43711.08812-10.63794.68614-19.59275-2.41673-26.96456-10.10106a11.81993,11.81993,0,0,1-5.76809-5.19764q-12.53584-21.37018-2.834-44.15416a9.9672,9.9672,0,0,1,4.34781-4.54322c7.78455-11.58041,18.386-17.19323,32.564-15.99693a127.96515,127.96515,0,0,0,17.92451.0284c15.51291-.87733,25.26355,7.09806,31.8673,20.15417.96617,1.91014,1.80585,3.88425,2.704,5.82875,4.63784,5.24159,4.20605,11.66538,3.61044,17.84312C588.83179,266.73028,588.934,271.862,584.57657,275.20117Z" transform="translate(-132.1119 -2.21353)"/><path class="cls-8" d="M299.01027,230.26417c-13.40015,17.55091-13.55218,41.97429,3.54718,60.74947-8.17836.22906-16.01-2.13231-23.99648-3.29849-13.23041-1.93188-26.41469-4.1875-39.5983-6.42526-2.63814-.44776-3.51384,1.092-4.38328,2.94813a4.13516,4.13516,0,0,1-1.96139-3.79034c-.03834-9.87967-1.36725-19.86107,1.08713-29.58583,1.76435-6.99061,4.642-13.50971,12.39965-16.05849,7.84892-.431,15.63076-1.5576,23.42663-2.4945,3.302-.39684,6.52242-.71792,9.78255.04C285.95838,232.40012,292.47987,231.29014,299.01027,230.26417Z" transform="translate(-132.1119 -2.21353)"/><path class="cls-7" d="M245.98378,236.22668c-7.97569,4.62812-10.80141,12.24877-11.23761,20.7646-.46415,9.06133-.14431,18.16279-.16678,27.24674-.04588,1.6552-.12375,3.31022-.13237,4.9656-.04981,9.56317-1.29214,10.48172-11.014,9.04163-2.38012-.35252-1.96179-1.69368-1.98144-3.09525-.07892-5.63064-.12873-11.2617-.18931-16.89258a6.18076,6.18076,0,0,1-1.70647-4.04221c.015-8.76273-.902-17.56638,1.19288-26.241.91222-3.77742,2.1889-7.30836,5.49585-9.71169,1.11565-1.75829,2.23129-3.5166,3.67743-5.79578H188.56347c1.53724-4.31169,2.99114-8.12289,4.23993-12.00018.66535-2.06581,2.06182-2.13991,3.8311-2.13776,28.55376.03488,57.10758.02463,86.02147.02463-.23027,4.32714-3.00983,7.72014-3.43538,11.73836-.33169,2.66282-2.19278,2.62576-4.31366,2.77911C265.22131,233.57114,255.354,232.80369,245.98378,236.22668Z" transform="translate(-132.1119 -2.21353)"/><path class="cls-8" d="M500.60561,234.26683c-10.39,18.897-8.80336,36.84875,4.25425,53.895l-19.17,2.9471c-1.21532-3.32337-3.67578-4.16044-7.02239-3.95891a30.3296,30.3296,0,0,1-10.86664-.84909c-5.65482-1.74021-9.29824-5.43391-9.61591-11.37539-.66466-12.43034-.31459-24.88422-.15845-37.32807.02076-1.654.39766-3.32337,2.02459-4.31152C473.66969,229.45893,487.08525,234.02911,500.60561,234.26683Z" transform="translate(-132.1119 -2.21353)"/><path class="cls-8" d="M226.24453,238.26251c-5.22253,9.96505-5.0155,20.75208-4.81781,31.549.05152,2.81337-.104,5.63051-.16445,8.44592-14.19379-2.16547-28.39124-4.30734-42.57919-6.51039-4.40273-.68367-8.76685-1.61951-13.17307-2.27593-2.79275-.41607-4.04517-1.81353-3.99932-4.64094.07793-4.805.02081-9.61222.01869-14.41851-.00128-2.892,1.23081-4.74558,4.2697-5.08052,15.25392-1.68129,30.51153-3.33,45.75975-5.06148C216.46676,239.71235,221.35,238.93772,226.24453,238.26251Z" transform="translate(-132.1119 -2.21353)"/><path class="cls-7" d="M460.051,233.286c-.04218,13.579-.19168,27.15884-.08222,40.73663.05637,6.98717,3.89328,10.57739,11.34655,11.08933,2.639.18123,5.29824.07533,7.94827.08581,2.62582.01041,5.25174.00228,8.25549.00228l-1.82929,5.909c-1.57334,6.40425-5.83236,8.056-11.93082,7.13794-2.89118-.43522-5.905-.05562-8.86328-.04518a25.63134,25.63134,0,0,1-16.9362-12.01381c-3.11465-2.92262-4.05292-6.63076-4.056-10.75931q-.01191-16.33029-.01321-32.6605c-.00381-2.37494.29715-4.60555,1.897-6.485.04936-4.97266.22386-9.94861.094-14.91658-.06263-2.39549.69286-3.41606,3.0687-3.006,3.60557.62226,8.48623-1.99489,10.56618,1.24689,1.67854,2.61613.47725,7.0799.55352,10.724Q460.06032,231.80869,460.051,233.286Z" transform="translate(-132.1119 -2.21353)"/><path class="cls-8" d="M584.57657,275.20117a51.73448,51.73448,0,0,0,1.08887-30.91995c7.87273.72671,15.75252,1.3861,23.61507,2.20971,3.70008.38758,5.47764,2.535,5.33131,6.39373-.15657,4.12888-.1616,8.27366.00706,12.40173.153,3.74647-1.69212,5.39409-5.15851,5.92909C601.15847,272.49684,592.87028,273.86695,584.57657,275.20117Z" transform="translate(-132.1119 -2.21353)"/><path class="cls-9" d="M245.98378,236.22668c3.45886-2.96472,7.65173-3.78,12.00052-3.87241,5.64147-.11981,11.29116-.15172,16.92931.02865,2.06732.06613,3.44631-.43892,4.307-2.29114q.0467,1.12831.09338,2.25689c-7.1973,1.93464-14.65317,1.98583-21.98841,2.84488C253.5751,235.63277,249.845,236.86278,245.98378,236.22668Z" transform="translate(-132.1119 -2.21353)"/><path class="cls-8" d="M330.24723,284.033c-14.48291.76214-22.2229-3.66064-26.24054-14.63409-1.16462-3.181-1.02732-4.27458,2.82509-4.23223,16.77576.18455,33.55679-.06385,50.331.18171,4.09072.05986,6.04969-1.07142,7.406-5.05267,3.10033-9.10058,3.34307-9.01788-6.46138-9.01788-16.94389,0-33.89011-.15393-50.83012.10232-4.539.06864-4.52743-1.39582-3.08254-4.77486,3.28169-7.6748,8.56816-12.8414,17.00837-14.33218,13.06762,1.29375,25.78071,4.54447,38.6316,7.02978,2.795.54056,5.16878.30914,7.28263-1.88489,1.59333-1.65379,3.35963-3.29317,5.98311-3.112,5.76045-3.68286,12.12975-4.51134,18.78348-4.00629,2.58862,1.84012,2.17244,4.63423,2.18822,7.22014.07545,12.37479.12249,24.75151-.03033,37.12418-.04354,3.52384,2.21626,7.11886-.19676,10.5884l-12.84282-.06649c-.58427-1.44986-2.00715-.67077-2.969-1.117-4.19135-.76323-7.97357-2.41152-10.69039-5.77094-2.54057-3.14144-5.41321-3.0732-8.87451-1.8721C349.2461,279.6061,340.05216,282.96735,330.24723,284.033Z" transform="translate(-132.1119 -2.21353)"/><path class="cls-7" d="M393.845,285.23238a39.45243,39.45243,0,0,1-1.82631-12.69292c.04492-14.07963-.07709-28.15981-.13482-42.23977.0503-.32777.114-.65411.14883-.98352.37723-3.56912-1.58476-8.30634.90652-10.40262,2.09008-1.75866,6.63849-.59589,10.09848-.72659,2.05638-.05083,3.16279.47733,3.06213,3.0106-.19959,5.02337.03136,10.06383.08434,15.09724a17.502,17.502,0,0,1,1.91863,8.63957c-.09522,8.64054-.06352,17.28314-.01435,25.92456a22.22257,22.22257,0,0,1-1.05379,7.35724c1.42557,5.64719,6.06441,6.56821,10.74454,6.86574,5.104.32442,10.24464.07369,16.16915.07369-1.74708,4.16789-3.3741,7.84744-4.82324,11.59576-.67575,1.74785-2.02882,1.416-3.27353,1.40169-6.59729-.07557-13.24343.577-19.73312-1.23039C400.81171,294.30209,396.45509,290.684,393.845,285.23238Z" transform="translate(-132.1119 -2.21353)"/><path class="cls-6" d="M373.10042,234.306c-2.353,2.301-4.76018,4.55-7.0369,6.92406-1.20826,1.25992-2.36931.61161-3.65728.36273q-19.2459-3.71935-38.50828-7.353a3.60281,3.60281,0,0,1-2.69487-1.96663,7.11275,7.11275,0,0,1,4.29824-.90343q23.31289.038,46.62574.12621Z" transform="translate(-132.1119 -2.21353)"/><path class="cls-8" d="M407.0347,278.21617c-1.05937-1.24592-.981-2.77525-.97807-4.24776q.038-18.83688.12758-37.67361c4.66554,8.077,11.582,6.415,18.76157,4.57309,6.886-1.76659,13.88964-3.075,20.8416-4.58477.04917,11.25717.20683,22.51535.10115,33.77108a48.61652,48.61652,0,0,0,2.071,16.13373c-11.66276-3.82141-23.33483-7.61464-34.98248-11.48159C409.53769,273.56443,409.38317,277.68026,407.0347,278.21617Z" transform="translate(-132.1119 -2.21353)"/><path class="cls-5" d="M330.24723,284.033q15.71583-5.23424,31.43727-10.45148c1.609-.53028,3.30544-.74594,4.49374.91279,3.07069,4.28637,7.57142,6.78226,11.855,9.55458Z" transform="translate(-132.1119 -2.21353)"/><path class="cls-8" d="M569.70313,241.21617c7.611,11.15689,6.37445,28.40847-2.658,37.08272-9.93848,4.76263-20.78869,4.69437-31.39658,5.84785-2.2883.24885-4.5837.38644-6.84146.8631-15.39453-1.79526-24.28357-14.68176-21.72869-31.526,1.13293-7.46937,3.83092-14.024,10.73422-18.07349A304.89931,304.89931,0,0,1,569.70313,241.21617Z" transform="translate(-132.1119 -2.21353)"/><path class="cls-1" d="M569.70313,241.21617c-.85341,1.04219-1.96012.97476-3.16269.83988q-21.598-2.42279-43.20164-4.79626c-1.96811-.21883-3.93719-.47771-5.52615-1.84947,8.86143-5.58405,36.35939-5.99788,45.1678-.62339A17.70108,17.70108,0,0,1,569.70313,241.21617Z" transform="translate(-132.1119 -2.21353)"/><path class="cls-10" d="M528.80712,285.00984c7.5504-3.13215,15.74554-3.06992,23.60046-4.70274,4.81045-1,9.75387-1.36049,14.63758-2.00821a19.88908,19.88908,0,0,1-14.9,6.7776C544.37624,285.35,536.5874,285.05877,528.80712,285.00984Z" transform="translate(-132.1119 -2.21353)"/></g></svg>