<svg id="Layer_1" data-name="Layer 1" xmlns="http://www.w3.org/2000/svg" viewBox="0 0 175.37396 189.66959"><defs><style>.cls-1{fill:#bcbec0;}.cls-2{fill:#d65941;}.cls-3{fill:#d65c46;}</style></defs><g id="C7lBct.tif"><path class="cls-1" d="M344.49,328.69c-.12-1.41-.14-2.83-.35-4.22-1.24-7.91-5-14.11-12.69-17.13-8.05-3.16-15.97-2.67-22.77,3.04-7.95,6.66-9.25,15.73-7.3,25.22a21.73809,21.73809,0,0,0,35.7,12.16C342.9,342.81,344.61,336.06,344.49,328.69Zm-8.09,10.26a14.94917,14.94917,0,0,1-14.62,8.86,15.10108,15.10108,0,0,1-13.67-10.6,27.04221,27.04221,0,0,1-1.03-9.46c.24-3.74.68-8.79,4.71-12.63a15.31585,15.31585,0,0,1,25.46,7.01A24.8143,24.8143,0,0,1,336.4,338.95Z" transform="translate(-255.69857 -163.48966)"/><path class="cls-2" d="M431.05528,329.126c-.03715,13.71435-10.48112,24.01738-23.854,23.99371a23.58791,23.58791,0,0,1-23.67057-23.52821,23.21539,23.21539,0,0,1,6.81028-16.8447c3.79449-3.95293,7.807-7.69786,11.58047-11.66988,1.30412-1.37271,2.73922-1.2985,4.309-1.26146.706.01667,1.11537.369,1.11606,1.05277.0015,1.53062.41248,3.06882-.97773,4.406-3.77008,3.62626-7.42074,7.37618-11.12648,11.06934a18.01284,18.01284,0,0,0-5.68458,12.85456,17.755,17.755,0,0,0,31.93532,10.87546,17.89529,17.89529,0,0,0,.35291-20.94433c-.56123-.80889-2.08951-1.47969-1.37417-2.62959a13.03439,13.03439,0,0,1,3.2736-3.36916c.95532-.71687,1.458.53406,1.88547,1.07809C429.16974,318.71239,431.28694,323.74541,431.05528,329.126Z" transform="translate(-255.69857 -163.48966)"/><path class="cls-1" d="M272.71271,342.05243c1.59954-6.92528-1.57133-12.26237-5.48157-17.5591-3.88425-5.26154-7.27251-10.88611-10.95572-16.29894-1.08281-1.59129-.59063-1.71961,1.053-1.93763,3.76019-.49876,6.06118.83927,7.94026,4.21766,2.97658,5.3516,6.54351,10.374,9.80306,15.57172.828,1.3203,1.28515,1.3985,2.16941.00252,3.72606-5.88235,7.55723-11.69823,11.33495-17.54808,1.19-1.84281,5.47783-3.09249,7.45241-2.09,1.23031.62465.22,1.25933-.12481,1.76074-3.33556,4.85-6.70976,9.6734-10.06853,14.50746-2.08149,2.99573-4.12022,6.022-6.25284,8.98086a4.81056,4.81056,0,0,0-.76715,3.05015c.01,4.89358-.15565,9.79426.06428,14.67791.11406,2.53248-.96043,2.784-3.04926,2.816-2.22707.034-3.4177-.33345-3.16622-2.93994C272.89389,346.88053,272.71271,344.45776,272.71271,342.05243Z" transform="translate(-255.69857 -163.48966)"/><path class="cls-1" d="M352.12958,329.07819c.00029-6.88285.052-13.76636-.037-20.64805-.02152-1.6637.52862-2.12565,2.12611-2.13974,3.96018-.03495,3.9606-.10423,3.9611,3.78206.00147,11.27791.05392,22.55627-.042,33.83335-.01856,2.18331.4273,3.03808,2.842,2.959,5.80713-.19017,11.6276.04205,17.43663-.11652,2.17913-.0595,2.36.88831,2.37178,2.63481.01233,1.8304-.14839,2.85424-2.4713,2.81128q-11.83034-.21871-23.66689-.00557c-2.17709.03566-2.59468-.73788-2.56285-2.71155C352.19671,342.67911,352.12929,335.87811,352.12958,329.07819Z" transform="translate(-255.69857 -163.48966)"/><path class="cls-3" d="M415.72995,311.5705a3.1734,3.1734,0,0,1-3.12644-3.17,3.20749,3.20749,0,0,1,3.25446-3.07541,3.09318,3.09318,0,0,1,3.0042,3.06966A3.20857,3.20857,0,0,1,415.72995,311.5705Z" transform="translate(-255.69857 -163.48966)"/><path class="cls-1" d="M401.43,241.78c-1.25-4.14-4.2-6.97-8.48-6.96-3.48,0-5.3-1.38-6.75-4.12a37.90723,37.90723,0,0,0-2.33-3.45c-4.38-6.42-4.38-6.42-.12-12.73,1.2-1.78,2.47-3.52,3.58-5.36a4.25248,4.25248,0,0,1,4.26-2.34,9.53592,9.53592,0,0,0,9.69-6.47,9.94173,9.94173,0,0,0-14.48-11.76c-1.96,1.22-3.33.97-5.15.06q-12.555-6.27-25.19-12.35c-1.81-.87-2.86-1.74-3.1-4.1a10.05323,10.05323,0,0,0-19.95.19c-.22,2.17-1.22,3.01-2.91,3.83-8.31,4.01-16.61,8.03-24.84,12.2-2.21,1.12-3.87,1.32-6.2-.04-3.72-2.19-7.64-1.52-10.97,1.18a9.1761,9.1761,0,0,0-3.17,10.23c1.1,3.85,3.86,6.94,7.74,6.75,4.7-.22,6.36,2.56,8.34,5.61,1.37,2.12,2.73,4.27,4.29,6.25,1.26,1.62,1.49,2.85.11,4.62-2.32,2.99-4.39,6.18-6.41,9.39a4.199,4.199,0,0,1-4.27,2.26,9.78306,9.78306,0,0,0-6.8,17.22,9.72973,9.72973,0,0,0,11.64,1.07c1.95-1.2,3.35-.96,5.17-.05q12.39,6.18,24.87,12.15c2.1,1,3.23,2.1,3.51,4.65.54,4.92,4.8,8.28,9.75,8.33a9.81876,9.81876,0,0,0,10.12-8.85,4.20951,4.20951,0,0,1,2.85-3.83c8.31-4.01,16.61005-8.04,24.85-12.2,2.19-1.11,3.85-1.35,6.2.03,3.68994,2.16,7.63995,1.58,10.96-1.2A9.11551,9.11551,0,0,0,401.43,241.78Zm-9.85-48.26c2.22.1,3.69,1.14,3.81,3.35a3.27449,3.27449,0,0,1-3.34,3.73c-2.36.15-3.92-1.15-3.98-3.49C388.02,194.94,389.47,193.76,391.58,193.52ZM295,200.62c-2.38-.03-3.77-1.35-3.63-3.79.13-2.26,1.6-3.34,3.78-3.27,2.24.06,3.33,1.43,3.55,3.6C298.4,199.32,297.21,200.64,295,200.62Zm-.09,47.57c-2.02-.44-3.56-1.37-3.56-3.69a3.31431,3.31431,0,0,1,3.52-3.6,3.37532,3.37532,0,0,1,3.77,3.74C298.59,246.9,296.99,247.85,294.91,248.19Zm86.73-13.01c-.19.2-.38.39-.57.58-2.12-1.03-4.19-2.21-6.39-3.05-2.44-.94-2.19-2.02-.85-3.83,1.23-1.68,2.03-2.51,3.42-.21C378.61,230.91,380.17,233.02,381.64,235.18Zm-4.75-21.87c-.39.57-.95,1.57-1.69.88a15.83448,15.83448,0,0,1-2.41-3.29c-.45-.73.16-1.11.74-1.4,2.52-1.25,5.05-2.5,7.57-3.75.17.21.34.41.51.61C380.04,208.68,378.49,211.01,376.89,213.31ZM354.2,182.19c8.67,4.25,17.37,8.44,25.99,12.77,2.36,1.18,2.36,2.93.06,4.2-3.2,1.75-6.55,3.21-9.79,4.88-1.46.75-2.27.24-3.1-.99-4.55-6.78-9.16-13.51-13.75-20.26C353.81,182.59,354,182.39,354.2,182.19Zm13.24,45.04c-.82.9-1.46,1.16-2.56.6-3.37-1.7-6.78-3.33-10.15-5.03-1.63995-.82-1.82-2.71-.72-3.39,3.74-2.29,7.75-4.12,11.22-5.9a1.9891,1.9891,0,0,1,2.29,1C371.93,219.63,371.89,222.27,367.44,227.23ZM343.51,169.7c2.06.4,3.51,1.44,3.45,3.71a3.263,3.263,0,0,1-3.54,3.52c-2.37-.01-3.76-1.33-3.66-3.76C339.86,170.88,341.45,170.01,343.51,169.7Zm-4.07,15.15c1.65-2.37,6.05-2.54,7.65-.24,4.9,7.04,9.69,14.15,14.52,21.24.28.42.54.85.79,1.23.11,1.11-.82,1.24-1.43,1.54-2.92,1.49-5.92,2.83-8.81,4.38-1.41.76-2.32995.09-3.44-.56-3.43-2.03-7.08-2.25-10.4-.1-1.99,1.3-3.44.93-5.16-.07-2.91-1.68-7.74-2.18-8.37-4.92-.52-2.21,3.03-5.41,4.85-8.12C332.87,194.41,336.12,189.61,339.44,184.85Zm7.58,35.6c-.13,2.39-1.21,3.75-3.44,3.84-2.14.08-3.64-.97-3.8-3.22-.18-2.42005,1.18994-3.75,3.55-3.84C345.58,217.15,346.64,218.57,347.02,220.45Zm-15.48,2.63c-3.05,1.5-6.15,2.94-9.16,4.52-1.5.79-2.58.78-3.39-.84a13.13307,13.13307,0,0,0-.84-1.26c-3.15-4.59-2.73-7.73,1.38-11.47a1.8358,1.8358,0,0,1,2.37-.3c3.28,1.63,6.55,3.26,9.85,4.84a2.11146,2.11146,0,0,1,1.49,2.34C333.41,222.18,332.46,222.62,331.54,223.08Zm-24.82-28.21c8.55-4.27,17.16-8.42,25.74-12.62.21.19.42.39.63.58-4.59,6.75-9.21,13.49-13.76,20.27-.85,1.27-1.71,1.63-3.12.9-3.14-1.62-6.37-3.06-9.48-4.72C304.36,198,304.33,196.06,306.72,194.87ZM305.08,206.35c.15-.2.29-.39.43-.58,2.53,1.22,5.07,2.44,7.6,3.67.58.28,1.24.64.85,1.37-.69,1.31-1.29,2.78-2.68,3.49-.62006.32-1.08-.43-1.43-.94C308.25,211.03,306.67,208.68,305.08,206.35Zm3.95,23.07c.62994-.85.99-2.57,2.25-2.16,1.42.46,2.23,2.12,2.65,3.5.44,1.46-1.3,1.55-2.19,2.03-1.99,1.09-4.06,2.01-6.1,3-.2-.18-.39-.35-.59-.52C306.37,233.32,307.63,231.32,309.03,229.42Zm-2.47,17.17c-2.37-1.19-2.29-2.99.01-4.24,3.2-1.75,6.56-3.21,9.81-4.87,1.06-.53,1.87-.62,2.58.47,4.45,6.83,9.45,13.29,12.85,21.07C323.39,254.89,314.93,250.82,306.56,246.59Zm36.86,25.12c-2.37,0-3.75-1.32-3.66-3.76.08-2.3,1.73-3.11,3.62-3.47,2.19.4,3.65,1.44,3.58,3.72A3.26016,3.26016,0,0,1,343.42,271.71Zm3.76-14.72c-1.11,1.67-2.53,1.32-4.12,1.25-1.77.55-2.89-.31-3.92-1.86q-6.81-10.245-13.82-20.34c-1.12-1.6-1.3-2.5.75-3.31a38.64389,38.64389,0,0,0,5.09-2.49c2.81-1.59,5.29-2.66,8.58-.4,2.58,1.78,6,1.25,8.62-.58,1.92-1.33,3.34-1.03,5.13-.05,2.43,1.34,4.93,2.56,7.46,3.67,1.66.73,1.61,1.5.69,2.84C356.77,242.78,351.92,249.85,347.18,256.99Zm32.78-10.26c-8.57,4.28-17.2,8.44-25.8,12.65-.2-.18-.38995-.36-.59-.53,4.65-6.85,9.32-13.68,13.95-20.54.74-1.09,1.45-1.56,2.79-.86,3.25,1.68,6.61,3.14,9.83,4.87C382.45,243.56,382.38,245.52,379.96,246.73Zm12.03,1.35a3.46187,3.46187,0,0,1-3.94-3.63,3.407,3.407,0,0,1,3.64-3.56c2.2-.05,3.43,1.29,3.8,3.38C395.38,246.57,394.11,247.96,391.99,248.08Z" transform="translate(-255.69857 -163.48966)"/></g></svg>